<svg width="70" height="70" viewBox="0 0 70 70" fill="none" xmlns="http://www.w3.org/2000/svg">
<circle cx="35" cy="35" r="35" fill="url(#paint0_linear_12_179)"/>
<path d="M50.9337 19.2405H47.6826C47.3671 19.2405 47.1113 19.5027 47.1113 19.8264C47.1113 20.1501 47.3671 20.4124 47.6826 20.4124H50.9337C52.5459 20.4124 53.8574 21.761 53.8574 23.4187V45.7969C53.8574 47.4546 52.5458 48.8032 50.9337 48.8032H20.0663C18.4541 48.8034 17.1426 47.4547 17.1426 45.797V41.6489C17.1426 41.3252 16.8868 41.063 16.5713 41.063C16.2558 41.063 16 41.3252 16 41.6489V45.797C16 48.1009 17.8241 49.9752 20.0663 49.9752H31.6644L30.5141 53.8281H27.9805C27.665 53.8281 27.4092 54.0904 27.4092 54.4141C27.4092 54.7377 27.665 55 27.9805 55H43.0194C43.3349 55 43.5907 54.7377 43.5907 54.4141C43.5907 54.0904 43.3349 53.8281 43.0194 53.8281H40.4858L39.3355 49.9752H50.9336C53.1758 49.9752 54.9998 48.1009 54.9998 45.797V23.4188C55 21.1149 53.1758 19.2405 50.9337 19.2405ZM31.7091 53.8281L32.8594 49.9752H38.1406L39.2909 53.8281H31.7091Z" fill="white"/>
<path d="M16.5713 39.5095C16.8868 39.5095 17.1426 39.2472 17.1426 38.9236V23.4188C17.1426 21.7611 18.4541 20.4125 20.0663 20.4125H21.7252C22.0407 20.4125 22.2965 20.1502 22.2965 19.8265C22.2965 19.5029 22.0407 19.2406 21.7252 19.2406H20.0663C17.8241 19.2405 16 21.1149 16 23.4188V38.9236C16 39.2472 16.2558 39.5095 16.5713 39.5095Z" fill="white"/>
<path d="M52.7207 23.3215C52.7207 22.2985 51.9104 21.4662 50.9144 21.4662H48.8811C48.5656 21.4662 48.3098 21.7285 48.3098 22.0521C48.3098 22.3758 48.5656 22.6381 48.8811 22.6381H50.9144C51.2804 22.6381 51.5781 22.9447 51.5781 23.3215V34.8108C51.5781 35.1345 51.8339 35.3967 52.1494 35.3967C52.4649 35.3967 52.7207 35.1345 52.7207 34.8108V23.3215Z" fill="white"/>
<path d="M52.7207 43.4732V37.5693C52.7207 37.2456 52.4649 36.9834 52.1494 36.9834C51.8339 36.9834 51.5781 37.2456 51.5781 37.5693V43.4732C51.5781 43.8501 51.2803 44.1567 50.9143 44.1567H20.0858C19.7198 44.1567 19.422 43.8501 19.422 43.4732V23.3215C19.422 22.9447 19.7198 22.6381 20.0858 22.6381H21.1617C21.4772 22.6381 21.733 22.3758 21.733 22.0521C21.733 21.7285 21.4772 21.4662 21.1617 21.4662H20.0858C19.0897 21.4662 18.2794 22.2985 18.2794 23.3215V43.4732C18.2794 44.4963 19.0897 45.3286 20.0858 45.3286H50.9143C51.9104 45.3286 52.7207 44.4963 52.7207 43.4732Z" fill="white"/>
<path d="M20.8793 46.4825C20.5638 46.4825 20.308 46.7448 20.308 47.0685C20.308 47.3922 20.5638 47.6544 20.8793 47.6544H23.2131C23.5286 47.6544 23.7844 47.3922 23.7844 47.0685C23.7844 46.7448 23.5286 46.4825 23.2131 46.4825H20.8793Z" fill="white"/>
<path d="M25.4496 46.4825C25.1341 46.4825 24.8783 46.7448 24.8783 47.0685C24.8783 47.3922 25.1341 47.6544 25.4496 47.6544H27.7834C28.0989 47.6544 28.3547 47.3922 28.3547 47.0685C28.3547 46.7448 28.0989 46.4825 27.7834 46.4825H25.4496Z" fill="white"/>
<path d="M35.5329 41.8629C37.8536 41.8629 40.1341 41.233 42.1278 40.0412C44.0621 38.8849 45.6865 37.2293 46.8255 35.2534C46.9861 34.9748 46.8961 34.6155 46.6245 34.4508C46.3528 34.2862 46.0026 34.3784 45.842 34.657C45.1449 35.8663 44.2486 36.9443 43.2014 37.8416C42.7317 37.6248 42.244 37.4295 41.7409 37.2563C42.9597 34.9615 43.6591 32.0796 43.7383 29.0176H47.4836C47.4309 30.1657 47.2235 31.2925 46.8648 32.3752C46.7632 32.6816 46.9231 33.0145 47.2218 33.1186C47.2828 33.1398 47.3447 33.1498 47.4057 33.1498C47.6436 33.1498 47.8657 32.9962 47.9465 32.7523C48.4065 31.3643 48.6396 29.9106 48.6396 28.4316C48.6396 21.0253 42.7599 15 35.5329 15C33.4433 15 31.446 15.4891 29.5964 16.4536C27.9697 17.3019 26.5123 18.5106 25.3569 19.9659C25.1766 19.9076 24.9847 19.8762 24.7857 19.8762C23.7353 19.8762 22.8808 20.7521 22.8808 21.8287C22.8808 22.3724 23.0987 22.8648 23.4497 23.2192C22.7703 24.8687 22.4261 26.6198 22.4261 28.4314C22.4261 35.8376 28.3058 41.8629 35.5329 41.8629ZM23.5823 29.0174H27.3275C27.4067 32.0795 28.1061 34.9613 29.3249 37.2562C28.8236 37.4287 28.3377 37.6233 27.8695 37.8391C25.3792 35.7055 23.7455 32.5553 23.5823 29.0174ZM28.9308 38.651C29.2566 38.5185 29.5907 38.3965 29.9324 38.2852C30.321 38.8774 30.7395 39.4009 31.1826 39.8522C30.3872 39.533 29.6331 39.129 28.9308 38.651ZM34.9616 40.6508C33.5498 40.4516 32.212 39.5166 31.1005 37.9532C32.3214 37.6547 33.6195 37.4829 34.9616 37.4449V40.6508ZM34.9616 36.2727C33.3874 36.3149 31.8666 36.5319 30.4467 36.9134C29.2441 34.7552 28.5512 31.984 28.4705 29.0174H34.9617V30.6239C34.1895 30.8732 33.628 31.6141 33.628 32.4868C33.628 33.3595 34.1895 34.1003 34.9617 34.3496V36.2727H34.9616ZM36.1042 40.6508V37.4449C37.4463 37.4829 38.7444 37.6547 39.9653 37.9532C38.8537 39.5166 37.516 40.4516 36.1042 40.6508ZM42.1404 38.6532C41.9482 38.7841 41.7521 38.9093 41.5524 39.0287C41.0157 39.3495 40.4563 39.6256 39.8799 39.8555C40.3242 39.4035 40.7438 38.8788 41.1333 38.2851C41.4769 38.3971 41.8129 38.5199 42.1404 38.6532ZM42.7857 25.0559C42.3654 25.0559 42.0234 24.7057 42.0234 24.2752C42.0234 23.8448 42.3654 23.4945 42.7857 23.4945C43.2061 23.4945 43.5482 23.8448 43.5482 24.2752C43.5482 24.7057 43.2061 25.0559 42.7857 25.0559ZM47.4834 27.8455H43.7381C43.7222 27.2359 43.6815 26.6292 43.6163 26.0323C44.2518 25.7154 44.6907 25.0469 44.6907 24.2752C44.6907 23.2233 43.875 22.363 42.8578 22.3241C42.5536 21.3427 42.1781 20.4308 41.7411 19.6067C42.2423 19.4341 42.7282 19.2397 43.1962 19.0239C45.6865 21.1573 47.3202 24.3076 47.4834 27.8455ZM42.1349 18.2119C41.8092 18.3444 41.4751 18.4663 41.1334 18.5777C40.8105 18.0866 40.4624 17.6371 40.0921 17.2346C40.0208 17.1571 39.9488 17.0816 39.8762 17.0079C40.6742 17.3275 41.4307 17.7325 42.1349 18.2119ZM36.1042 16.2131C37.5239 16.4183 38.8678 17.3806 39.9621 18.9105C38.742 19.2085 37.445 19.38 36.1042 19.418V16.2131ZM36.1042 20.5902C37.678 20.548 39.1984 20.3311 40.6181 19.9498C41.0604 20.7432 41.4447 21.6436 41.7548 22.6339C41.2293 22.9819 40.8808 23.5876 40.8808 24.2752C40.8808 25.247 41.5772 26.0553 42.4853 26.2034C42.5432 26.7442 42.5799 27.2934 42.5952 27.8455H36.1042V20.5902ZM36.1042 29.0174H42.5952C42.5145 31.9839 41.8216 34.7551 40.6191 36.9134C39.1992 36.532 37.6784 36.3149 36.1042 36.2727V34.3496C36.8763 34.1003 37.4378 33.3595 37.4378 32.4868C37.4378 31.6141 36.8763 30.8733 36.1042 30.6239V29.0174ZM35.5329 31.7061C35.9533 31.7061 36.2952 32.0563 36.2952 32.4868C36.2952 32.9173 35.9532 33.2674 35.5329 33.2674C35.1125 33.2674 34.7705 32.9173 34.7705 32.4868C34.7705 32.0563 35.1125 31.7061 35.5329 31.7061ZM34.9616 16.2123V19.418C33.6175 19.3799 32.3175 19.2077 31.095 18.9084C32.1867 17.3756 33.5299 16.4155 34.9616 16.2123ZM30.1142 17.4983C30.472 17.3117 30.8358 17.1447 31.2053 16.9972C30.7513 17.4546 30.3253 17.9839 29.9337 18.5782C29.59 18.4662 29.2538 18.3434 28.9262 18.2101C29.3088 17.9493 29.7056 17.7113 30.1142 17.4983ZM24.7856 21.048C25.206 21.048 25.5481 21.3983 25.5481 21.8287C25.5481 22.2592 25.206 22.6095 24.7856 22.6095C24.3653 22.6095 24.0233 22.2592 24.0233 21.8287C24.0233 21.3983 24.3653 21.048 24.7856 21.048ZM24.4698 23.7545C24.5726 23.7722 24.6781 23.7814 24.7856 23.7814C25.8361 23.7814 26.6906 22.9055 26.6906 21.8288C26.6906 21.3817 26.5432 20.9693 26.2957 20.6398C26.7685 20.0527 27.2953 19.5104 27.8654 19.022C28.3349 19.2387 28.8222 19.4337 29.325 19.6069C28.768 20.6555 28.3059 21.857 27.9642 23.1838C27.8836 23.4966 28.0657 23.8172 28.3707 23.8998C28.4196 23.9131 28.4686 23.9195 28.5169 23.9195C28.77 23.9195 29.0012 23.7457 29.0689 23.483C29.4116 22.152 29.8796 20.9621 30.4417 19.9484C31.8631 20.3306 33.3855 20.548 34.9615 20.5903V27.8456H28.4705C28.4873 27.2369 28.5302 26.6312 28.5986 26.0383C28.6357 25.717 28.4118 25.4255 28.0984 25.3875C27.7858 25.3503 27.5011 25.5792 27.4639 25.9005C27.3902 26.5387 27.3445 27.1908 27.3274 27.8455H23.5819C23.6461 26.4288 23.9439 25.0571 24.4698 23.7545Z" fill="white"/>
<path d="M24.3119 38.335H21.8636C21.5481 38.335 21.2924 38.5972 21.2924 38.9209C21.2924 39.2446 21.5481 39.5068 21.8636 39.5068H24.3119C24.6274 39.5068 24.8832 39.2446 24.8832 38.9209C24.8832 38.5972 24.6274 38.335 24.3119 38.335Z" fill="white"/>
<path d="M21.2924 41.6553C21.2924 41.9789 21.5481 42.2412 21.8636 42.2412H25.833C26.1485 42.2412 26.4043 41.9789 26.4043 41.6553C26.4043 41.3316 26.1485 41.0693 25.833 41.0693H21.8636C21.5481 41.0693 21.2924 41.3316 21.2924 41.6553Z" fill="white"/>
<defs>
<linearGradient id="paint0_linear_12_179" x1="15.5" y1="10" x2="50.5" y2="58.5" gradientUnits="userSpaceOnUse">
<stop stop-color="#B69DFA"/>
<stop offset="1" stop-color="#885EFF"/>
</linearGradient>
</defs>
</svg>
