<svg width="40" height="40" viewBox="0 0 40 40" fill="none" xmlns="http://www.w3.org/2000/svg">
<g clip-path="url(#clip0_12_143)">
<path d="M24.9698 14.757V13.1111C24.9698 12.4243 24.591 11.8247 24.0316 11.5091L30.5202 0.891484C30.6307 0.710625 30.635 0.484141 30.5313 0.299297C30.4276 0.114453 30.2322 0 30.0202 0H23.7575C23.5534 0 23.364 0.106172 23.2576 0.280391L18.4344 8.17297L14.156 1.17188H15.914L18.0215 4.62047C18.1901 4.89656 18.5507 4.98367 18.8269 4.81492C19.1031 4.64617 19.1901 4.28555 19.0214 4.00937L16.7425 0.280391C16.636 0.106172 16.4466 0 16.2425 0H9.97981C9.76786 0 9.57247 0.114453 9.46872 0.299297C9.36497 0.484141 9.36926 0.710625 9.47981 0.891484L15.9684 11.5091C15.409 11.8247 15.0302 12.4243 15.0302 13.1111V14.757C10.2579 16.7191 6.88879 21.4175 6.88879 26.8889C6.88887 34.1184 12.7705 40 20 40C27.2296 40 33.1112 34.1184 33.1112 26.8889C33.1112 21.4176 29.742 16.7191 24.9698 14.757ZM22.8028 11.2727H21.0448L27.2175 1.17188H28.9754L22.8028 11.2727ZM24.0862 1.17188H25.8442L19.6715 11.2727H17.9136L24.0862 1.17188ZM12.7826 1.17188L17.7478 9.29664L16.8688 10.735L11.0247 1.17188H12.7826ZM16.2022 13.1111C16.2022 12.7437 16.501 12.4448 16.8684 12.4445H16.8693C16.8697 12.4445 16.8701 12.4445 16.8705 12.4445H23.1297C23.13 12.4445 23.1304 12.4445 23.1308 12.4445H23.1318C23.4992 12.4447 23.798 12.7437 23.798 13.1111V14.3393C22.5953 13.9746 21.3204 13.7777 20.0001 13.7777C18.6799 13.7777 17.405 13.9746 16.2022 14.3393V13.1111H16.2022ZM20 38.8281C13.4167 38.8281 8.06075 33.4722 8.06075 26.8889C8.06075 20.3055 13.4167 14.9496 20 14.9496C26.5834 14.9496 31.9393 20.3055 31.9393 26.8889C31.9393 33.4722 26.5834 38.8281 20 38.8281V38.8281Z" fill="white"/>
<path d="M12.7876 32.3821C12.3839 32.1383 12.0027 31.9081 11.8281 31.6064C11.6579 31.3122 11.6481 30.8703 11.6378 30.4024C11.6288 29.9964 11.6196 29.5764 11.5094 29.1646C11.4036 28.7685 11.2054 28.4097 11.0138 28.0628C10.7833 27.6456 10.5657 27.2515 10.5657 26.8889C10.5657 26.526 10.7833 26.132 11.0138 25.7148C11.2054 25.3679 11.4036 25.0092 11.5094 24.613C11.6195 24.2012 11.6288 23.7812 11.6378 23.3751C11.6481 22.9072 11.6579 22.4653 11.8282 22.171C12.0028 21.8692 12.384 21.639 12.7877 21.3953C13.1326 21.187 13.4893 20.9717 13.7862 20.6747C14.0831 20.3778 14.2985 20.0212 14.5068 19.6763C14.7505 19.2727 14.9807 18.8914 15.2824 18.7169C15.5766 18.5467 16.0185 18.537 16.4864 18.5266C16.8925 18.5177 17.3124 18.5084 17.7242 18.3983C18.1203 18.2924 18.479 18.0942 18.826 17.9027C19.2432 17.6722 19.6372 17.4546 20 17.4546C20.3627 17.4546 20.7569 17.6722 21.174 17.9027C21.521 18.0943 21.8797 18.2924 22.2758 18.3984C22.6876 18.5085 23.1076 18.5178 23.5137 18.5267C23.9817 18.5371 24.4236 18.5469 24.7179 18.7171C24.9979 18.8792 25.3564 18.7835 25.5185 18.5035C25.6805 18.2234 25.5849 17.8649 25.3047 17.7028C24.7502 17.3821 24.1071 17.3678 23.5397 17.3553C23.1873 17.3474 22.8544 17.3401 22.5786 17.2664C22.3209 17.1974 22.0391 17.0418 21.7408 16.8771C21.2365 16.5985 20.665 16.2828 20.0001 16.2828C19.3353 16.2828 18.7638 16.5985 18.2595 16.8771C17.9612 17.0418 17.6794 17.1975 17.4218 17.2664C17.146 17.3401 16.8131 17.3474 16.4608 17.3552C15.8933 17.3677 15.2502 17.3819 14.6958 17.7027C14.1334 18.0281 13.799 18.5819 13.5038 19.0706C13.3239 19.3686 13.1539 19.6502 12.9578 19.8463C12.7617 20.0424 12.4802 20.2124 12.1822 20.3923C11.6934 20.6874 11.1395 21.0219 10.8141 21.5842C10.4933 22.1388 10.479 22.7819 10.4665 23.3493C10.4587 23.7017 10.4513 24.0346 10.3776 24.3105C10.3087 24.5682 10.153 24.8499 9.98826 25.1483C9.70975 25.6526 9.39404 26.2241 9.39404 26.889C9.39404 27.5538 9.70975 28.1253 9.98818 28.6295C10.1529 28.9278 10.3087 29.2096 10.3775 29.4674C10.4512 29.7432 10.4586 30.076 10.4663 30.4284C10.4788 30.9958 10.493 31.6389 10.8139 32.1934C11.1393 32.7557 11.6932 33.0903 12.1819 33.3853C12.4798 33.5653 12.7613 33.7353 12.9574 33.9314C13.0718 34.0457 13.2218 34.103 13.3717 34.103C13.5216 34.103 13.6716 34.0458 13.786 33.9314C14.0148 33.7026 14.0148 33.3316 13.786 33.1028C13.489 32.8057 13.1324 32.5903 12.7876 32.3821V32.3821Z" fill="white"/>
<path d="M30.012 25.1483C29.8472 24.8499 29.6915 24.5681 29.6227 24.3105C29.5489 24.0347 29.5416 23.7018 29.5338 23.3494C29.5213 22.782 29.5071 22.1388 29.1863 21.5844C28.8609 21.0221 28.307 20.6875 27.8183 20.3924C27.5203 20.2125 27.2388 20.0425 27.0428 19.8464C26.8139 19.6176 26.4429 19.6176 26.2142 19.8464C25.9853 20.0753 25.9853 20.4463 26.2142 20.675C26.511 20.9719 26.8677 21.1873 27.2126 21.3956C27.6163 21.6393 27.9974 21.8695 28.172 22.1713C28.3423 22.4655 28.352 22.9074 28.3624 23.3753C28.3713 23.7814 28.3806 24.2013 28.4907 24.6131C28.5966 25.0092 28.7948 25.368 28.9863 25.7149C29.2168 26.1321 29.4345 26.5262 29.4345 26.8889C29.4345 27.2515 29.2168 27.6456 28.9863 28.0628C28.7947 28.4097 28.5966 28.7685 28.4906 29.1647C28.3806 29.5765 28.3713 29.9964 28.3623 30.4026C28.352 30.8705 28.3422 31.3124 28.1719 31.6067C27.9973 31.9084 27.616 32.1386 27.2124 32.3824C26.8674 32.5907 26.5108 32.806 26.2139 33.1029C25.917 33.3998 25.7016 33.7565 25.4933 34.1014C25.2495 34.5051 25.0194 34.8863 24.7177 35.0608C24.4235 35.231 23.9816 35.2408 23.5137 35.2511C23.1076 35.2601 22.6877 35.2693 22.2759 35.3795C21.8797 35.4853 21.521 35.6835 21.1741 35.8751C20.7569 36.1056 20.3628 36.3232 20.0001 36.3232C19.6374 36.3232 19.2432 36.1056 18.826 35.8751C18.4792 35.6835 18.1204 35.4853 17.7242 35.3795C17.3124 35.2694 16.8925 35.2601 16.4863 35.2511C16.0184 35.2408 15.5765 35.231 15.2822 35.0608C15.0022 34.8988 14.6437 34.9944 14.4816 35.2746C14.3195 35.5546 14.4152 35.9131 14.6953 36.0752C15.2499 36.396 15.893 36.4103 16.4604 36.4228C16.8128 36.4306 17.1457 36.4379 17.4216 36.5117C17.6792 36.5805 17.961 36.7362 18.2594 36.901C18.7637 37.1795 19.3352 37.4952 20 37.4952C20.6649 37.4952 21.2363 37.1795 21.7406 36.901C22.0389 36.7363 22.3207 36.5806 22.5784 36.5117C22.8542 36.4381 23.187 36.4307 23.5394 36.4229C24.1068 36.4103 24.7499 36.3962 25.3044 36.0754C25.8667 35.75 26.2012 35.1962 26.4963 34.7075C26.6763 34.4094 26.8463 34.1279 27.0424 33.9318C27.2385 33.7357 27.5199 33.5658 27.8179 33.3858C28.3067 33.0907 28.8606 32.7562 29.186 32.1939C29.5069 31.6393 29.5211 30.9962 29.5337 30.4288C29.5415 30.0764 29.5488 29.7435 29.6226 29.4677C29.6915 29.21 29.8471 28.9282 30.0119 28.6299C30.2904 28.1256 30.6061 27.554 30.6061 26.8892C30.6061 26.2245 30.2905 25.6526 30.012 25.1483V25.1483Z" fill="white"/>
<path d="M26.9731 24.8589C26.8457 24.4668 26.4832 24.2035 26.0711 24.2035H22.1223L20.9021 20.448C20.7747 20.056 20.4122 19.7926 20 19.7926C19.5879 19.7926 19.2254 20.056 19.098 20.448L17.8778 24.2035H13.929C13.5168 24.2035 13.1543 24.4668 13.027 24.8589C12.8997 25.2509 13.0382 25.6771 13.3716 25.9192L16.5662 28.2403L15.346 31.9957C15.2186 32.3878 15.3571 32.8138 15.6905 33.0561C15.8572 33.1773 16.0526 33.2378 16.248 33.2378C16.4434 33.2378 16.6388 33.1773 16.8055 33.0561L20 30.7352L23.1947 33.0562C23.5282 33.2985 23.9762 33.2985 24.3097 33.0562C24.6432 32.8139 24.7816 32.3878 24.6542 31.9958L23.4339 28.2403L26.6286 25.9193C26.962 25.6771 27.1004 25.2509 26.9731 24.8589V24.8589ZM22.4007 27.5424C22.1954 27.6917 22.1094 27.9561 22.1879 28.1976L23.3272 31.704L20.3444 29.537C20.1391 29.3878 19.861 29.3878 19.6557 29.537L16.6729 31.704L17.8122 28.1976C17.8907 27.9562 17.8047 27.6917 17.5993 27.5424L14.6166 25.3754H18.3035C18.5573 25.3754 18.7823 25.212 18.8607 24.9705L20 21.4641L21.1393 24.9705C21.2178 25.2119 21.4428 25.3754 21.6966 25.3754H25.3835L22.4007 27.5424Z" fill="white"/>
</g>
<defs>
<clipPath id="clip0_12_143">
<rect width="40" height="40" fill="white"/>
</clipPath>
</defs>
</svg>
