<svg width="40" height="40" viewBox="0 0 40 40" fill="none" xmlns="http://www.w3.org/2000/svg">
<g clip-path="url(#clip0_12_149)">
<path d="M11.6405 28.0399H5.75523C5.43164 28.0399 5.1693 28.3022 5.1693 28.6259C5.1693 28.9495 5.43164 29.2118 5.75523 29.2118H11.6405C11.9818 29.2118 12.2595 29.4897 12.2595 29.8312V35.7387C12.2595 36.0803 11.9818 36.3582 11.6405 36.3582H3.83594C3.70789 36.3582 3.58336 36.4002 3.48141 36.4777L1.17188 38.2329V29.8312C1.17188 29.4897 1.44953 29.2118 1.79086 29.2118H3.05953C3.38312 29.2118 3.64547 28.9495 3.64547 28.6259C3.64547 28.3022 3.38312 28.0399 3.05953 28.0399H1.79086C0.803359 28.0399 0 28.8436 0 29.8312V39.4141C0 39.6368 0.126172 39.8402 0.325547 39.9391C0.408047 39.9799 0.497187 40.0001 0.585859 40.0001C0.711641 40.0001 0.836563 39.9596 0.940469 39.8807L4.03328 37.5301H11.6405C12.628 37.5301 13.4313 36.7265 13.4313 35.7387V29.8312C13.4313 28.8436 12.628 28.0399 11.6405 28.0399Z" fill="white"/>
<path d="M10.4254 31.4126C10.4254 31.0889 10.163 30.8267 9.83942 30.8267H3.59192C3.26833 30.8267 3.00598 31.0889 3.00598 31.4126C3.00598 31.7363 3.26833 31.9985 3.59192 31.9985H9.83942C10.163 31.9985 10.4254 31.7363 10.4254 31.4126Z" fill="white"/>
<path d="M3.59192 33.4829C3.26833 33.4829 3.00598 33.7452 3.00598 34.0688C3.00598 34.3925 3.26833 34.6548 3.59192 34.6548H9.05848C9.38208 34.6548 9.64442 34.3925 9.64442 34.0688C9.64442 33.7452 9.38208 33.4829 9.05848 33.4829H3.59192Z" fill="white"/>
<path d="M38.2092 25.1132H36.9406C36.6169 25.1132 36.3547 25.3754 36.3547 25.6991C36.3547 26.0228 36.6169 26.285 36.9406 26.285H38.2092C38.5505 26.285 38.8282 26.5629 38.8282 26.9045V35.3061L36.5186 33.5509C36.4167 33.4735 36.2922 33.4315 36.1641 33.4315H28.3596C28.0183 33.4315 27.7406 33.1536 27.7406 32.8121V26.9045C27.7406 26.5629 28.0183 26.285 28.3596 26.285H34.2447C34.5684 26.285 34.8307 26.0228 34.8307 25.6991C34.8307 25.3754 34.5684 25.1132 34.2447 25.1132H28.3596C27.3721 25.1132 26.5687 25.9168 26.5687 26.9045V32.8121C26.5687 33.7998 27.3721 34.6034 28.3596 34.6034H35.9668L39.0596 36.9539C39.1635 37.0329 39.2885 37.0733 39.4142 37.0733C39.5029 37.0733 39.592 37.0532 39.6745 37.0123C39.874 36.9134 40 36.71 40 36.4874V26.9045C40 25.9168 39.1966 25.1132 38.2092 25.1132Z" fill="white"/>
<path d="M36.4081 27.9H30.1605C29.8369 27.9 29.5746 28.1623 29.5746 28.486C29.5746 28.8096 29.8369 29.0719 30.1605 29.0719H36.4081C36.7318 29.0719 36.994 28.8096 36.994 28.486C36.994 28.1623 36.7318 27.9 36.4081 27.9Z" fill="white"/>
<path d="M36.408 30.5563H30.9414C30.6177 30.5563 30.3555 30.8185 30.3555 31.1422C30.3555 31.4659 30.6177 31.7281 30.9414 31.7281H36.408C36.7317 31.7281 36.994 31.4659 36.994 31.1422C36.994 30.8185 36.7317 30.5563 36.408 30.5563Z" fill="white"/>
<path d="M31.5768 3.35938H37.2155C37.5392 3.35938 37.8015 3.09711 37.8015 2.77344C37.8015 2.44977 37.5392 2.1875 37.2155 2.1875H31.5768C31.2531 2.1875 30.9908 2.44977 30.9908 2.77344C30.9908 3.09711 31.2532 3.35938 31.5768 3.35938Z" fill="white"/>
<path d="M37.2155 4.92188H34.7057C34.382 4.92188 34.1198 5.18414 34.1198 5.50781C34.1198 5.83148 34.382 6.09375 34.7057 6.09375H37.2155C37.5391 6.09375 37.8014 5.83148 37.8014 5.50781C37.8014 5.18414 37.539 4.92188 37.2155 4.92188Z" fill="white"/>
<path d="M2.78455 25.7213H8.13033C8.45392 25.7213 8.71626 25.459 8.71626 25.1354C8.71626 24.8117 8.45392 24.5494 8.13033 24.5494H2.78455C2.46095 24.5494 2.19861 24.8117 2.19861 25.1354C2.19861 25.459 2.46095 25.7213 2.78455 25.7213Z" fill="white"/>
<path d="M2.78455 22.9869H5.29439C5.61799 22.9869 5.88033 22.7247 5.88033 22.401C5.88033 22.0773 5.61799 21.8151 5.29439 21.8151H2.78455C2.46095 21.8151 2.19861 22.0773 2.19861 22.401C2.19861 22.7247 2.46095 22.9869 2.78455 22.9869Z" fill="white"/>
<path d="M15.1451 10.322C14.8459 10.1989 14.5034 10.3414 14.3801 10.6405L13.5547 12.6436L12.7293 10.6405C12.6388 10.421 12.4249 10.2778 12.1875 10.2778C11.9501 10.2778 11.7362 10.421 11.6457 10.6405L10.8203 12.6436L9.99492 10.6405C9.87156 10.3413 9.52907 10.1989 9.22992 10.322C8.93071 10.4453 8.78813 10.7878 8.91141 11.087L10.2786 14.4048C10.3691 14.6243 10.583 14.7675 10.8204 14.7675C11.0578 14.7675 11.2717 14.6243 11.3622 14.4048L12.1875 12.4017L13.0129 14.4048C13.1034 14.6243 13.3173 14.7675 13.5547 14.7675C13.7921 14.7675 14.006 14.6243 14.0965 14.4048L15.4637 11.087C15.587 10.7878 15.4443 10.4453 15.1451 10.322Z" fill="white"/>
<path d="M16.7239 11.087L18.0911 14.4048C18.1816 14.6243 18.3955 14.7675 18.6329 14.7675C18.8703 14.7675 19.0842 14.6243 19.1747 14.4048L20 12.4017L20.8254 14.4048C20.9159 14.6243 21.1298 14.7675 21.3672 14.7675C21.6046 14.7675 21.8185 14.6243 21.909 14.4048L23.2762 11.087C23.3995 10.7878 23.2569 10.4453 22.9577 10.322C22.6585 10.1989 22.316 10.3413 22.1927 10.6405L21.3673 12.6436L20.5419 10.6405C20.4514 10.421 20.2375 10.2778 20.0001 10.2778C19.7627 10.2778 19.5489 10.421 19.4583 10.6405L18.6328 12.6437L17.8074 10.6405C17.6841 10.3413 17.3417 10.1989 17.0424 10.322C16.7432 10.4453 16.6006 10.7878 16.7239 11.087Z" fill="white"/>
<path d="M26.4454 14.7675C26.6827 14.7675 26.8966 14.6243 26.9872 14.4048L27.8125 12.4017L28.6379 14.4048C28.7284 14.6243 28.9423 14.7675 29.1797 14.7675C29.4172 14.7675 29.631 14.6243 29.7215 14.4048L31.0887 11.087C31.212 10.7878 31.0694 10.4453 30.7702 10.322C30.4711 10.1989 30.1286 10.3413 30.0052 10.6405L29.1798 12.6436L28.3544 10.6405C28.264 10.421 28.05 10.2778 27.8126 10.2778C27.5752 10.2778 27.3614 10.421 27.2708 10.6405L26.4454 12.6436L25.62 10.6405C25.4968 10.3413 25.1542 10.1989 24.855 10.322C24.5558 10.4453 24.4132 10.7878 24.5365 11.087L25.9037 14.4048C25.9941 14.6243 26.208 14.7675 26.4454 14.7675Z" fill="white"/>
<path d="M7.11049 17.4056H32.9083C33.873 17.4056 34.6578 16.6208 34.6578 15.656V9.38942C34.6578 8.42474 33.873 7.63989 32.9083 7.63989H17.6683C17.3447 7.63989 17.0824 7.90216 17.0824 8.22583C17.0824 8.5495 17.3447 8.81177 17.6683 8.81177H32.9083C33.2268 8.81177 33.486 9.07083 33.486 9.38942V15.656C33.486 15.9745 33.2269 16.2337 32.9083 16.2337H7.11049C6.79198 16.2337 6.53284 15.9746 6.53284 15.656V9.38942C6.53284 9.07091 6.79198 8.81177 7.11049 8.81177H14.9218C15.2454 8.81177 15.5078 8.5495 15.5078 8.22583C15.5078 7.90216 15.2454 7.63989 14.9218 7.63989H7.11049C6.14581 7.63989 5.36096 8.42474 5.36096 9.38942V15.656C5.36096 16.6208 6.14581 17.4056 7.11049 17.4056Z" fill="white"/>
<path d="M9.80761 6.28781C10.0747 6.47039 10.4394 6.40195 10.622 6.13461C12.7457 3.02711 16.2516 1.17188 20 1.17188C23.7483 1.17188 27.2541 3.02711 29.3778 6.13453C29.4914 6.30063 29.6752 6.39 29.8621 6.39C29.976 6.39 30.0911 6.3568 30.1922 6.28773C30.4594 6.10508 30.528 5.74047 30.3454 5.47336C28.0031 2.04617 24.1357 0 20 0C15.8643 0 11.9968 2.04609 9.65449 5.47344C9.47191 5.74055 9.54043 6.10516 9.80761 6.28781Z" fill="white"/>
<path d="M26.4229 6.21461C26.5376 6.33141 26.6892 6.38992 26.8409 6.38992C26.9891 6.38992 27.1375 6.33398 27.2515 6.22203C27.4824 5.99531 27.4857 5.6243 27.259 5.39344C25.3272 3.42688 22.7493 2.34375 20.0001 2.34375C17.2508 2.34375 14.6729 3.4268 12.7411 5.39336C12.5144 5.62422 12.5177 5.99523 12.7486 6.22195C12.9795 6.44875 13.3505 6.44531 13.5772 6.21453C15.2869 4.47414 17.5679 3.51563 20.0001 3.51563C22.4322 3.51563 24.7133 4.47414 26.4229 6.21461Z" fill="white"/>
<path d="M26.2972 18.9563C24.6021 20.6158 22.3657 21.5297 20 21.5297C17.6343 21.5297 15.3979 20.6158 13.7028 18.9563C13.4716 18.7301 13.1006 18.7339 12.8742 18.9651C12.6479 19.1963 12.6518 19.5674 12.8831 19.7937C14.7985 21.6688 17.326 22.7016 20 22.7016C22.6741 22.7016 25.2016 21.6688 27.1171 19.7937C27.3482 19.5674 27.3522 19.1963 27.1258 18.9651C26.8996 18.7341 26.5287 18.7297 26.2972 18.9563Z" fill="white"/>
<path d="M30.2483 19.7123C30.4345 19.4476 30.3709 19.0821 30.1062 18.8959C29.8416 18.7097 29.4762 18.7734 29.2899 19.038C27.3782 21.7551 24.3986 23.4978 21.1148 23.8192C20.8148 23.8485 20.5859 24.1008 20.5859 24.4024V29.3164C20.5859 29.6401 20.8482 29.9023 21.1719 29.9023C21.4955 29.9023 21.7578 29.6401 21.7578 29.3164V24.9223C25.1712 24.4403 28.2431 22.5623 30.2483 19.7123Z" fill="white"/>
<path d="M21.1719 31.4138C20.8482 31.4138 20.5859 31.6761 20.5859 31.9998V38.2422C20.5859 38.5653 20.3231 38.8281 20 38.8281C19.6769 38.8281 19.4141 38.5653 19.4141 38.2422V24.4023C19.4141 24.1008 19.1852 23.8485 18.8851 23.8192C15.6014 23.4978 12.6217 21.7551 10.7101 19.038C10.5239 18.7732 10.1583 18.7096 9.89373 18.8959C9.62905 19.0821 9.56545 19.4476 9.7517 19.7123C11.7569 22.5623 14.8288 24.4404 18.2422 24.9223V38.2422C18.2422 39.2114 19.0308 40 20 40C20.9692 40 21.7578 39.2114 21.7578 38.2422V31.9998C21.7578 31.6761 21.4955 31.4138 21.1719 31.4138Z" fill="white"/>
</g>
<defs>
<clipPath id="clip0_12_149">
<rect width="40" height="40" fill="white"/>
</clipPath>
</defs>
</svg>
