<svg width="39" height="40" viewBox="0 0 39 40" fill="none" xmlns="http://www.w3.org/2000/svg">
<path d="M34.9337 4.24048H31.6826C31.3671 4.24048 31.1113 4.50274 31.1113 4.82642C31.1113 5.15009 31.3671 5.41235 31.6826 5.41235H34.9337C36.5459 5.41235 37.8574 6.76103 37.8574 8.41868V30.7969C37.8574 32.4546 36.5458 33.8032 34.9337 33.8032H4.06628C2.45411 33.8034 1.14258 32.4547 1.14258 30.797V26.6489C1.14258 26.3252 0.886793 26.063 0.571289 26.063C0.255785 26.063 0 26.3252 0 26.6489V30.797C0 33.1009 1.82409 34.9752 4.06628 34.9752H15.6644L14.5141 38.8281H11.9805C11.665 38.8281 11.4092 39.0904 11.4092 39.4141C11.4092 39.7377 11.665 40 11.9805 40H27.0194C27.3349 40 27.5907 39.7377 27.5907 39.4141C27.5907 39.0904 27.3349 38.8281 27.0194 38.8281H24.4858L23.3355 34.9752H34.9336C37.1758 34.9752 38.9998 33.1009 38.9998 30.797V8.41876C39 6.11485 37.1758 4.24048 34.9337 4.24048ZM15.7091 38.8281L16.8594 34.9752H22.1406L23.2909 38.8281H15.7091Z" fill="white"/>
<path d="M0.571289 24.5095C0.886793 24.5095 1.14258 24.2472 1.14258 23.9236V8.41881C1.14258 6.76107 2.45411 5.41248 4.06628 5.41248H5.72523C6.04073 5.41248 6.29652 5.15021 6.29652 4.82654C6.29652 4.50287 6.04073 4.2406 5.72523 4.2406H4.06628C1.82409 4.24052 0 6.1149 0 8.41881V23.9236C0 24.2472 0.255785 24.5095 0.571289 24.5095Z" fill="white"/>
<path d="M36.7207 8.3215C36.7207 7.29845 35.9104 6.46619 34.9144 6.46619H32.8811C32.5656 6.46619 32.3098 6.72845 32.3098 7.05212C32.3098 7.3758 32.5656 7.63806 32.8811 7.63806H34.9144C35.2804 7.63806 35.5781 7.9447 35.5781 8.3215V19.8108C35.5781 20.1345 35.8339 20.3967 36.1494 20.3967C36.4649 20.3967 36.7207 20.1345 36.7207 19.8108V8.3215Z" fill="white"/>
<path d="M36.7207 28.4732V22.5693C36.7207 22.2456 36.4649 21.9834 36.1494 21.9834C35.8339 21.9834 35.5781 22.2456 35.5781 22.5693V28.4732C35.5781 28.8501 35.2803 29.1567 34.9143 29.1567H4.08576C3.71975 29.1567 3.422 28.8501 3.422 28.4732V8.3215C3.422 7.9447 3.71975 7.63806 4.08576 7.63806H5.16169C5.47719 7.63806 5.73298 7.3758 5.73298 7.05212C5.73298 6.72845 5.47719 6.46619 5.16169 6.46619H4.08576C3.08974 6.46619 2.27942 7.29845 2.27942 8.3215V28.4732C2.27942 29.4963 3.08974 30.3286 4.08576 30.3286H34.9143C35.9104 30.3286 36.7207 29.4963 36.7207 28.4732Z" fill="white"/>
<path d="M4.87927 31.4825C4.56377 31.4825 4.30798 31.7448 4.30798 32.0685C4.30798 32.3922 4.56377 32.6544 4.87927 32.6544H7.2131C7.52861 32.6544 7.78439 32.3922 7.78439 32.0685C7.78439 31.7448 7.52861 31.4825 7.2131 31.4825H4.87927Z" fill="white"/>
<path d="M9.44958 31.4825C9.13408 31.4825 8.8783 31.7448 8.8783 32.0685C8.8783 32.3922 9.13408 32.6544 9.44958 32.6544H11.7834C12.0989 32.6544 12.3547 32.3922 12.3547 32.0685C12.3547 31.7448 12.0989 31.4825 11.7834 31.4825H9.44958Z" fill="white"/>
<path d="M19.5329 26.8629C21.8536 26.8629 24.1341 26.233 26.1278 25.0412C28.0621 23.8849 29.6865 22.2293 30.8255 20.2534C30.9861 19.9748 30.8961 19.6155 30.6245 19.4508C30.3528 19.2862 30.0026 19.3784 29.842 19.657C29.1449 20.8663 28.2486 21.9443 27.2014 22.8416C26.7317 22.6248 26.244 22.4295 25.7409 22.2563C26.9597 19.9615 27.6591 17.0796 27.7383 14.0176H31.4836C31.4309 15.1657 31.2235 16.2925 30.8648 17.3752C30.7632 17.6816 30.9231 18.0145 31.2218 18.1186C31.2828 18.1398 31.3447 18.1498 31.4057 18.1498C31.6436 18.1498 31.8657 17.9962 31.9465 17.7523C32.4065 16.3643 32.6396 14.9106 32.6396 13.4316C32.6396 6.02531 26.7599 0 19.5329 0C17.4433 0 15.446 0.489063 13.5964 1.45359C11.9697 2.30188 10.5123 3.51062 9.35694 4.96586C9.17656 4.90758 8.98469 4.87617 8.78572 4.87617C7.73531 4.87617 6.88082 5.75211 6.88082 6.82875C6.88082 7.37242 7.09875 7.86484 7.44967 8.21922C6.77029 9.86867 6.42615 11.6198 6.42615 13.4314C6.42615 20.8376 12.3058 26.8629 19.5329 26.8629ZM7.58228 14.0174H11.3275C11.4067 17.0795 12.1061 19.9613 13.3249 22.2562C12.8236 22.4287 12.3377 22.6233 11.8695 22.8391C9.37918 20.7055 7.74552 17.5553 7.58228 14.0174ZM12.9308 23.651C13.2566 23.5185 13.5907 23.3965 13.9324 23.2852C14.321 23.8774 14.7395 24.4009 15.1826 24.8522C14.3872 24.533 13.6331 24.129 12.9308 23.651ZM18.9616 25.6508C17.5498 25.4516 16.212 24.5166 15.1005 22.9532C16.3214 22.6547 17.6195 22.4829 18.9616 22.4449V25.6508ZM18.9616 21.2727C17.3874 21.3149 15.8666 21.5319 14.4467 21.9134C13.2441 19.7552 12.5512 16.984 12.4705 14.0174H18.9617V15.6239C18.1895 15.8732 17.628 16.6141 17.628 17.4868C17.628 18.3595 18.1895 19.1003 18.9617 19.3496V21.2727H18.9616ZM20.1042 25.6508V22.4449C21.4463 22.4829 22.7444 22.6547 23.9653 22.9532C22.8537 24.5166 21.516 25.4516 20.1042 25.6508ZM26.1404 23.6532C25.9482 23.7841 25.7521 23.9093 25.5524 24.0287C25.0157 24.3495 24.4563 24.6256 23.8799 24.8555C24.3242 24.4035 24.7438 23.8788 25.1333 23.2851C25.4769 23.3971 25.8129 23.5199 26.1404 23.6532ZM26.7857 10.0559C26.3654 10.0559 26.0234 9.7057 26.0234 9.27523C26.0234 8.84477 26.3654 8.49453 26.7857 8.49453C27.2061 8.49453 27.5482 8.84477 27.5482 9.27523C27.5482 9.7057 27.2061 10.0559 26.7857 10.0559ZM31.4834 12.8455H27.7381C27.7222 12.2359 27.6815 11.6292 27.6163 11.0323C28.2518 10.7154 28.6907 10.0469 28.6907 9.27523C28.6907 8.22328 27.875 7.36297 26.8578 7.32406C26.5536 6.34266 26.1781 5.43078 25.7411 4.60672C26.2423 4.43414 26.7282 4.23969 27.1962 4.02391C29.6865 6.15734 31.3202 9.30758 31.4834 12.8455ZM26.1349 3.21187C25.8092 3.34437 25.4751 3.46633 25.1334 3.57773C24.8105 3.08656 24.4624 2.63711 24.0921 2.23461C24.0208 2.15711 23.9488 2.08156 23.8762 2.00789C24.6742 2.3275 25.4307 2.7325 26.1349 3.21187ZM20.1042 1.21312C21.5239 1.41828 22.8678 2.38063 23.9621 3.91047C22.742 4.20852 21.445 4.38 20.1042 4.41797V1.21312ZM20.1042 5.59023C21.678 5.54797 23.1984 5.33109 24.6181 4.94984C25.0604 5.7432 25.4447 6.64359 25.7548 7.63391C25.2293 7.98187 24.8808 8.58758 24.8808 9.27516C24.8808 10.247 25.5772 11.0553 26.4853 11.2034C26.5432 11.7442 26.5799 12.2934 26.5952 12.8455H20.1042V5.59023ZM20.1042 14.0174H26.5952C26.5145 16.9839 25.8216 19.7551 24.6191 21.9134C23.1992 21.532 21.6784 21.3149 20.1042 21.2727V19.3496C20.8763 19.1003 21.4378 18.3595 21.4378 17.4868C21.4378 16.6141 20.8763 15.8733 20.1042 15.6239V14.0174ZM19.5329 16.7061C19.9533 16.7061 20.2952 17.0563 20.2952 17.4868C20.2952 17.9173 19.9532 18.2674 19.5329 18.2674C19.1125 18.2674 18.7705 17.9173 18.7705 17.4868C18.7705 17.0563 19.1125 16.7061 19.5329 16.7061ZM18.9616 1.21234V4.41797C17.6175 4.37992 16.3175 4.20766 15.095 3.90836C16.1867 2.37563 17.5299 1.41547 18.9616 1.21234ZM14.1142 2.49828C14.472 2.31172 14.8358 2.14469 15.2053 1.99719C14.7513 2.45461 14.3253 2.98391 13.9337 3.5782C13.59 3.46625 13.2538 3.34344 12.9262 3.21008C13.3088 2.9493 13.7056 2.71133 14.1142 2.49828ZM8.78565 6.04805C9.20604 6.04805 9.54805 6.39828 9.54805 6.82875C9.54805 7.25922 9.20604 7.60945 8.78565 7.60945C8.36526 7.60945 8.02332 7.25922 8.02332 6.82875C8.02332 6.39828 8.36533 6.04805 8.78565 6.04805ZM8.46984 8.75453C8.5726 8.77219 8.67809 8.78141 8.78565 8.78141C9.83606 8.78141 10.6906 7.90547 10.6906 6.82883C10.6906 6.38172 10.5432 5.9693 10.2957 5.63977C10.7685 5.05266 11.2953 4.51039 11.8654 4.02203C12.3349 4.23867 12.8222 4.43375 13.325 4.60687C12.768 5.65547 12.3059 6.85695 11.9642 8.18375C11.8836 8.49664 12.0657 8.81719 12.3707 8.89984C12.4196 8.91313 12.4686 8.91945 12.5169 8.91945C12.77 8.91945 13.0012 8.7457 13.0689 8.48297C13.4116 7.15195 13.8796 5.96211 14.4417 4.94836C15.8631 5.33063 17.3855 5.54805 18.9615 5.59031V12.8456H12.4705C12.4873 12.2369 12.5302 11.6312 12.5986 11.0383C12.6357 10.717 12.4118 10.4255 12.0984 10.3875C11.7858 10.3503 11.5011 10.5792 11.4639 10.9005C11.3902 11.5387 11.3445 12.1908 11.3274 12.8455H7.5819C7.64612 11.4288 7.94387 10.0571 8.46984 8.75453Z" fill="white"/>
<path d="M8.31189 23.335H5.86365C5.54814 23.335 5.29236 23.5972 5.29236 23.9209C5.29236 24.2446 5.54814 24.5068 5.86365 24.5068H8.31189C8.62739 24.5068 8.88317 24.2446 8.88317 23.9209C8.88317 23.5972 8.62739 23.335 8.31189 23.335Z" fill="white"/>
<path d="M5.29236 26.6553C5.29236 26.9789 5.54814 27.2412 5.86365 27.2412H9.83296C10.1485 27.2412 10.4043 26.9789 10.4043 26.6553C10.4043 26.3316 10.1485 26.0693 9.83296 26.0693H5.86365C5.54814 26.0693 5.29236 26.3316 5.29236 26.6553Z" fill="white"/>
</svg>
