<svg width="70" height="70" viewBox="0 0 70 70" fill="none" xmlns="http://www.w3.org/2000/svg">
<circle cx="35" cy="35" r="35" fill="url(#paint0_linear_12_174)"/>
<g clip-path="url(#clip0_12_174)">
<path d="M39.9698 29.757V28.1111C39.9698 27.4243 39.591 26.8247 39.0316 26.5091L45.5202 15.8915C45.6307 15.7106 45.635 15.4841 45.5313 15.2993C45.4276 15.1145 45.2322 15 45.0202 15H38.7575C38.5534 15 38.364 15.1062 38.2576 15.2804L33.4344 23.173L29.156 16.1719H30.914L33.0215 19.6205C33.1901 19.8966 33.5507 19.9837 33.8269 19.8149C34.1031 19.6462 34.1901 19.2855 34.0214 19.0094L31.7425 15.2804C31.636 15.1062 31.4466 15 31.2425 15H24.9798C24.7679 15 24.5725 15.1145 24.4687 15.2993C24.365 15.4841 24.3693 15.7106 24.4798 15.8915L30.9684 26.5091C30.409 26.8247 30.0302 27.4243 30.0302 28.1111V29.757C25.2579 31.7191 21.8888 36.4175 21.8888 41.8889C21.8889 49.1184 27.7705 55 35 55C42.2296 55 48.1112 49.1184 48.1112 41.8889C48.1112 36.4176 44.742 31.7191 39.9698 29.757ZM37.8028 26.2727H36.0448L42.2175 16.1719H43.9754L37.8028 26.2727ZM39.0862 16.1719H40.8442L34.6715 26.2727H32.9136L39.0862 16.1719ZM27.7826 16.1719L32.7478 24.2966L31.8688 25.735L26.0247 16.1719H27.7826ZM31.2022 28.1111C31.2022 27.7437 31.501 27.4448 31.8684 27.4445H31.8693C31.8697 27.4445 31.8701 27.4445 31.8705 27.4445H38.1297C38.13 27.4445 38.1304 27.4445 38.1308 27.4445H38.1318C38.4992 27.4447 38.798 27.7437 38.798 28.1111V29.3393C37.5953 28.9746 36.3204 28.7777 35.0001 28.7777C33.6799 28.7777 32.405 28.9746 31.2022 29.3393V28.1111H31.2022ZM35 53.8281C28.4167 53.8281 23.0607 48.4722 23.0607 41.8889C23.0607 35.3055 28.4167 29.9496 35 29.9496C41.5834 29.9496 46.9393 35.3055 46.9393 41.8889C46.9393 48.4722 41.5834 53.8281 35 53.8281Z" fill="white"/>
<path d="M27.7876 47.3821C27.3839 47.1383 27.0027 46.9081 26.8281 46.6064C26.6579 46.3122 26.6481 45.8703 26.6378 45.4024C26.6288 44.9964 26.6196 44.5764 26.5094 44.1646C26.4036 43.7685 26.2054 43.4097 26.0138 43.0628C25.7833 42.6456 25.5657 42.2515 25.5657 41.8889C25.5657 41.526 25.7833 41.132 26.0138 40.7148C26.2054 40.3679 26.4036 40.0092 26.5094 39.613C26.6195 39.2012 26.6288 38.7812 26.6378 38.3751C26.6481 37.9072 26.6579 37.4653 26.8282 37.171C27.0028 36.8692 27.384 36.639 27.7877 36.3953C28.1326 36.187 28.4893 35.9717 28.7862 35.6747C29.0831 35.3778 29.2985 35.0212 29.5068 34.6763C29.7505 34.2727 29.9807 33.8914 30.2824 33.7169C30.5766 33.5467 31.0185 33.537 31.4864 33.5266C31.8925 33.5177 32.3124 33.5084 32.7242 33.3983C33.1203 33.2924 33.479 33.0942 33.826 32.9027C34.2432 32.6722 34.6372 32.4546 35 32.4546C35.3627 32.4546 35.7569 32.6722 36.174 32.9027C36.521 33.0943 36.8797 33.2924 37.2758 33.3984C37.6876 33.5085 38.1076 33.5178 38.5137 33.5267C38.9817 33.5371 39.4236 33.5469 39.7179 33.7171C39.9979 33.8792 40.3564 33.7835 40.5185 33.5035C40.6805 33.2234 40.5849 32.8649 40.3047 32.7028C39.7502 32.3821 39.1071 32.3678 38.5397 32.3553C38.1873 32.3474 37.8544 32.3401 37.5786 32.2664C37.3209 32.1974 37.0391 32.0418 36.7408 31.8771C36.2365 31.5985 35.665 31.2828 35.0001 31.2828C34.3353 31.2828 33.7638 31.5985 33.2595 31.8771C32.9612 32.0418 32.6794 32.1975 32.4218 32.2664C32.146 32.3401 31.8131 32.3474 31.4608 32.3552C30.8933 32.3677 30.2502 32.3819 29.6958 32.7027C29.1334 33.0281 28.799 33.5819 28.5038 34.0706C28.3239 34.3686 28.1539 34.6502 27.9578 34.8463C27.7617 35.0424 27.4802 35.2124 27.1822 35.3923C26.6934 35.6874 26.1395 36.0219 25.8141 36.5842C25.4933 37.1388 25.479 37.7819 25.4665 38.3493C25.4587 38.7017 25.4513 39.0346 25.3776 39.3105C25.3087 39.5682 25.153 39.8499 24.9883 40.1483C24.7097 40.6526 24.394 41.2241 24.394 41.889C24.394 42.5538 24.7097 43.1253 24.9882 43.6295C25.1529 43.9278 25.3087 44.2096 25.3775 44.4674C25.4512 44.7431 25.4586 45.076 25.4663 45.4284C25.4788 45.9958 25.493 46.6389 25.8139 47.1934C26.1393 47.7557 26.6932 48.0903 27.1819 48.3853C27.4798 48.5653 27.7613 48.7353 27.9574 48.9314C28.0718 49.0457 28.2218 49.103 28.3717 49.103C28.5216 49.103 28.6716 49.0458 28.786 48.9314C29.0148 48.7026 29.0148 48.3316 28.786 48.1028C28.489 47.8057 28.1324 47.5903 27.7876 47.3821Z" fill="white"/>
<path d="M45.012 40.1483C44.8472 39.8499 44.6915 39.5681 44.6227 39.3105C44.5489 39.0347 44.5416 38.7018 44.5338 38.3494C44.5213 37.782 44.5071 37.1388 44.1863 36.5844C43.8609 36.0221 43.307 35.6875 42.8183 35.3924C42.5203 35.2125 42.2388 35.0425 42.0428 34.8464C41.8139 34.6176 41.4429 34.6176 41.2142 34.8464C40.9853 35.0753 40.9853 35.4463 41.2142 35.675C41.511 35.9719 41.8677 36.1873 42.2126 36.3956C42.6163 36.6393 42.9974 36.8695 43.172 37.1713C43.3423 37.4655 43.352 37.9074 43.3624 38.3753C43.3713 38.7814 43.3806 39.2013 43.4907 39.6131C43.5966 40.0092 43.7948 40.368 43.9863 40.7149C44.2168 41.1321 44.4345 41.5262 44.4345 41.8889C44.4345 42.2515 44.2168 42.6456 43.9863 43.0628C43.7947 43.4097 43.5966 43.7685 43.4906 44.1647C43.3806 44.5765 43.3713 44.9964 43.3623 45.4026C43.352 45.8705 43.3422 46.3124 43.1719 46.6067C42.9973 46.9084 42.616 47.1386 42.2124 47.3824C41.8674 47.5907 41.5108 47.806 41.2139 48.1029C40.917 48.3998 40.7016 48.7565 40.4933 49.1014C40.2495 49.5051 40.0194 49.8863 39.7177 50.0608C39.4235 50.231 38.9816 50.2408 38.5137 50.2511C38.1076 50.2601 37.6877 50.2693 37.2759 50.3795C36.8797 50.4853 36.521 50.6835 36.1741 50.8751C35.7569 51.1056 35.3628 51.3232 35.0001 51.3232C34.6374 51.3232 34.2432 51.1056 33.826 50.8751C33.4792 50.6835 33.1204 50.4853 32.7242 50.3795C32.3124 50.2694 31.8925 50.2601 31.4863 50.2511C31.0184 50.2408 30.5765 50.231 30.2822 50.0608C30.0022 49.8988 29.6437 49.9944 29.4816 50.2746C29.3195 50.5546 29.4152 50.9131 29.6953 51.0752C30.2499 51.396 30.893 51.4103 31.4604 51.4228C31.8128 51.4306 32.1457 51.4379 32.4216 51.5117C32.6792 51.5805 32.961 51.7362 33.2594 51.901C33.7637 52.1795 34.3352 52.4952 35 52.4952C35.6649 52.4952 36.2363 52.1795 36.7406 51.901C37.0389 51.7363 37.3207 51.5806 37.5784 51.5117C37.8542 51.4381 38.187 51.4307 38.5394 51.4229C39.1068 51.4103 39.7499 51.3962 40.3044 51.0754C40.8667 50.75 41.2012 50.1962 41.4963 49.7075C41.6763 49.4094 41.8463 49.1279 42.0424 48.9318C42.2385 48.7357 42.5199 48.5658 42.8179 48.3858C43.3067 48.0907 43.8606 47.7562 44.186 47.1939C44.5069 46.6393 44.5211 45.9962 44.5337 45.4288C44.5415 45.0764 44.5488 44.7435 44.6226 44.4677C44.6915 44.21 44.8471 43.9282 45.0119 43.6299C45.2904 43.1256 45.6061 42.554 45.6061 41.8892C45.6061 41.2245 45.2905 40.6526 45.012 40.1483Z" fill="white"/>
<path d="M41.9731 39.8589C41.8457 39.4668 41.4832 39.2035 41.0711 39.2035H37.1223L35.9021 35.448C35.7747 35.056 35.4122 34.7926 35 34.7926C34.5879 34.7926 34.2254 35.056 34.098 35.448L32.8778 39.2035H28.929C28.5168 39.2035 28.1543 39.4668 28.027 39.8589C27.8997 40.2509 28.0382 40.6771 28.3716 40.9192L31.5662 43.2403L30.346 46.9957C30.2186 47.3878 30.3571 47.8138 30.6905 48.0561C30.8572 48.1773 31.0526 48.2378 31.248 48.2378C31.4434 48.2378 31.6388 48.1773 31.8055 48.0561L35 45.7352L38.1947 48.0562C38.5282 48.2985 38.9762 48.2985 39.3097 48.0562C39.6432 47.8139 39.7816 47.3878 39.6542 46.9958L38.4339 43.2403L41.6286 40.9193C41.962 40.6771 42.1004 40.2509 41.9731 39.8589ZM37.4007 42.5424C37.1954 42.6917 37.1094 42.9561 37.1879 43.1976L38.3272 46.704L35.3444 44.537C35.1391 44.3878 34.861 44.3878 34.6557 44.537L31.6729 46.704L32.8122 43.1976C32.8907 42.9562 32.8047 42.6917 32.5993 42.5424L29.6166 40.3754H33.3035C33.5573 40.3754 33.7823 40.212 33.8607 39.9705L35 36.4641L36.1393 39.9705C36.2178 40.2119 36.4428 40.3754 36.6966 40.3754H40.3835L37.4007 42.5424Z" fill="white"/>
</g>
<defs>
<linearGradient id="paint0_linear_12_174" x1="15.5" y1="10" x2="50.5" y2="58.5" gradientUnits="userSpaceOnUse">
<stop stop-color="#6FD0B7"/>
<stop offset="1" stop-color="#1AC095"/>
</linearGradient>
<clipPath id="clip0_12_174">
<rect width="40" height="40" fill="white" transform="translate(15 15)"/>
</clipPath>
</defs>
</svg>
