<svg width="70" height="70" viewBox="0 0 70 70" fill="none" xmlns="http://www.w3.org/2000/svg">
<circle cx="35" cy="35" r="35" fill="url(#paint0_linear_12_190)"/>
<g clip-path="url(#clip0_12_190)">
<path d="M26.6405 43.0399H20.7552C20.4316 43.0399 20.1693 43.3022 20.1693 43.6259C20.1693 43.9495 20.4316 44.2118 20.7552 44.2118H26.6405C26.9818 44.2118 27.2595 44.4897 27.2595 44.8312V50.7387C27.2595 51.0803 26.9818 51.3582 26.6405 51.3582H18.8359C18.7079 51.3582 18.5834 51.4002 18.4814 51.4777L16.1719 53.2329V44.8312C16.1719 44.4897 16.4495 44.2118 16.7909 44.2118H18.0595C18.3831 44.2118 18.6455 43.9495 18.6455 43.6259C18.6455 43.3022 18.3831 43.0399 18.0595 43.0399H16.7909C15.8034 43.0399 15 43.8436 15 44.8312V54.4141C15 54.6368 15.1262 54.8402 15.3255 54.9391C15.408 54.9799 15.4972 55.0001 15.5859 55.0001C15.7116 55.0001 15.8366 54.9596 15.9405 54.8807L19.0333 52.5301H26.6405C27.628 52.5301 28.4313 51.7265 28.4313 50.7387V44.8312C28.4313 43.8436 27.628 43.0399 26.6405 43.0399Z" fill="white"/>
<path d="M25.4254 46.4126C25.4254 46.0889 25.163 45.8267 24.8394 45.8267H18.5919C18.2683 45.8267 18.006 46.0889 18.006 46.4126C18.006 46.7363 18.2683 46.9985 18.5919 46.9985H24.8394C25.163 46.9985 25.4254 46.7363 25.4254 46.4126Z" fill="white"/>
<path d="M18.5919 48.4829C18.2683 48.4829 18.006 48.7452 18.006 49.0688C18.006 49.3925 18.2683 49.6548 18.5919 49.6548H24.0585C24.3821 49.6548 24.6444 49.3925 24.6444 49.0688C24.6444 48.7452 24.3821 48.4829 24.0585 48.4829H18.5919Z" fill="white"/>
<path d="M53.2092 40.1132H51.9406C51.6169 40.1132 51.3547 40.3754 51.3547 40.6991C51.3547 41.0228 51.6169 41.285 51.9406 41.285H53.2092C53.5505 41.285 53.8282 41.5629 53.8282 41.9045V50.3061L51.5186 48.5509C51.4167 48.4735 51.2922 48.4315 51.1641 48.4315H43.3596C43.0183 48.4315 42.7406 48.1536 42.7406 47.8121V41.9045C42.7406 41.5629 43.0183 41.285 43.3596 41.285H49.2447C49.5684 41.285 49.8307 41.0228 49.8307 40.6991C49.8307 40.3754 49.5684 40.1132 49.2447 40.1132H43.3596C42.3721 40.1132 41.5687 40.9168 41.5687 41.9045V47.8121C41.5687 48.7998 42.3721 49.6034 43.3596 49.6034H50.9668L54.0596 51.9539C54.1635 52.0329 54.2885 52.0733 54.4142 52.0733C54.5029 52.0733 54.592 52.0532 54.6745 52.0123C54.874 51.9134 55 51.71 55 51.4874V41.9045C55 40.9168 54.1966 40.1132 53.2092 40.1132Z" fill="white"/>
<path d="M51.4081 42.9H45.1605C44.8369 42.9 44.5746 43.1623 44.5746 43.486C44.5746 43.8096 44.8369 44.0719 45.1605 44.0719H51.4081C51.7318 44.0719 51.994 43.8096 51.994 43.486C51.994 43.1623 51.7318 42.9 51.4081 42.9Z" fill="white"/>
<path d="M51.408 45.5563H45.9414C45.6177 45.5563 45.3555 45.8185 45.3555 46.1422C45.3555 46.4659 45.6177 46.7281 45.9414 46.7281H51.408C51.7317 46.7281 51.994 46.4659 51.994 46.1422C51.994 45.8185 51.7317 45.5563 51.408 45.5563Z" fill="white"/>
<path d="M46.5768 18.3594H52.2155C52.5392 18.3594 52.8015 18.0971 52.8015 17.7734C52.8015 17.4498 52.5392 17.1875 52.2155 17.1875H46.5768C46.2531 17.1875 45.9908 17.4498 45.9908 17.7734C45.9908 18.0971 46.2532 18.3594 46.5768 18.3594Z" fill="white"/>
<path d="M52.2155 19.9219H49.7057C49.382 19.9219 49.1198 20.1841 49.1198 20.5078C49.1198 20.8315 49.382 21.0938 49.7057 21.0938H52.2155C52.5391 21.0938 52.8014 20.8315 52.8014 20.5078C52.8014 20.1841 52.539 19.9219 52.2155 19.9219Z" fill="white"/>
<path d="M17.7845 40.7213H23.1303C23.4539 40.7213 23.7163 40.459 23.7163 40.1354C23.7163 39.8117 23.4539 39.5494 23.1303 39.5494H17.7845C17.461 39.5494 17.1986 39.8117 17.1986 40.1354C17.1986 40.459 17.461 40.7213 17.7845 40.7213Z" fill="white"/>
<path d="M17.7845 37.9869H20.2944C20.618 37.9869 20.8803 37.7247 20.8803 37.401C20.8803 37.0773 20.618 36.8151 20.2944 36.8151H17.7845C17.461 36.8151 17.1986 37.0773 17.1986 37.401C17.1986 37.7247 17.461 37.9869 17.7845 37.9869Z" fill="white"/>
<path d="M30.1451 25.322C29.8459 25.1989 29.5034 25.3414 29.3801 25.6405L28.5547 27.6436L27.7293 25.6405C27.6388 25.421 27.4249 25.2778 27.1875 25.2778C26.9501 25.2778 26.7362 25.421 26.6457 25.6405L25.8203 27.6436L24.9949 25.6405C24.8716 25.3413 24.5291 25.1989 24.2299 25.322C23.9307 25.4453 23.7881 25.7878 23.9114 26.087L25.2786 29.4048C25.3691 29.6243 25.583 29.7675 25.8204 29.7675C26.0578 29.7675 26.2717 29.6243 26.3622 29.4048L27.1875 27.4017L28.0129 29.4048C28.1034 29.6243 28.3173 29.7675 28.5547 29.7675C28.7921 29.7675 29.006 29.6243 29.0965 29.4048L30.4637 26.087C30.587 25.7878 30.4443 25.4453 30.1451 25.322Z" fill="white"/>
<path d="M31.7239 26.087L33.0911 29.4048C33.1816 29.6243 33.3955 29.7675 33.6329 29.7675C33.8703 29.7675 34.0842 29.6243 34.1747 29.4048L35 27.4017L35.8254 29.4048C35.9159 29.6243 36.1298 29.7675 36.3672 29.7675C36.6046 29.7675 36.8185 29.6243 36.909 29.4048L38.2762 26.087C38.3995 25.7878 38.2569 25.4453 37.9577 25.322C37.6585 25.1989 37.316 25.3413 37.1927 25.6405L36.3673 27.6436L35.5419 25.6405C35.4514 25.421 35.2375 25.2778 35.0001 25.2778C34.7627 25.2778 34.5489 25.421 34.4583 25.6405L33.6328 27.6437L32.8074 25.6405C32.6841 25.3413 32.3417 25.1989 32.0424 25.322C31.7432 25.4453 31.6006 25.7878 31.7239 26.087Z" fill="white"/>
<path d="M41.4454 29.7675C41.6827 29.7675 41.8966 29.6243 41.9872 29.4048L42.8125 27.4017L43.6379 29.4048C43.7284 29.6243 43.9423 29.7675 44.1797 29.7675C44.4172 29.7675 44.631 29.6243 44.7215 29.4048L46.0887 26.087C46.212 25.7878 46.0694 25.4453 45.7702 25.322C45.4711 25.1989 45.1286 25.3413 45.0052 25.6405L44.1798 27.6436L43.3544 25.6405C43.264 25.421 43.05 25.2778 42.8126 25.2778C42.5752 25.2778 42.3614 25.421 42.2708 25.6405L41.4454 27.6436L40.62 25.6405C40.4968 25.3413 40.1542 25.1989 39.855 25.322C39.5558 25.4453 39.4132 25.7878 39.5365 26.087L40.9037 29.4048C40.9941 29.6243 41.208 29.7675 41.4454 29.7675Z" fill="white"/>
<path d="M22.1105 32.4056H47.9083C48.873 32.4056 49.6578 31.6208 49.6578 30.656V24.3894C49.6578 23.4247 48.873 22.6399 47.9083 22.6399H32.6683C32.3447 22.6399 32.0824 22.9022 32.0824 23.2258C32.0824 23.5495 32.3447 23.8118 32.6683 23.8118H47.9083C48.2268 23.8118 48.486 24.0708 48.486 24.3894V30.656C48.486 30.9745 48.2269 31.2337 47.9083 31.2337H22.1105C21.792 31.2337 21.5328 30.9746 21.5328 30.656V24.3894C21.5328 24.0709 21.792 23.8118 22.1105 23.8118H29.9218C30.2454 23.8118 30.5078 23.5495 30.5078 23.2258C30.5078 22.9022 30.2454 22.6399 29.9218 22.6399H22.1105C21.1458 22.6399 20.361 23.4247 20.361 24.3894V30.656C20.361 31.6208 21.1458 32.4056 22.1105 32.4056Z" fill="white"/>
<path d="M24.8076 21.2878C25.0747 21.4704 25.4394 21.402 25.622 21.1346C27.7457 18.0271 31.2516 16.1719 35 16.1719C38.7483 16.1719 42.2541 18.0271 44.3778 21.1345C44.4914 21.3006 44.6752 21.39 44.8621 21.39C44.976 21.39 45.0911 21.3568 45.1922 21.2877C45.4594 21.1051 45.528 20.7405 45.3454 20.4734C43.0031 17.0462 39.1357 15 35 15C30.8643 15 26.9968 17.0461 24.6545 20.4734C24.4719 20.7405 24.5404 21.1052 24.8076 21.2878Z" fill="white"/>
<path d="M41.4229 21.2146C41.5376 21.3314 41.6892 21.3899 41.8409 21.3899C41.9891 21.3899 42.1375 21.334 42.2515 21.222C42.4824 20.9953 42.4857 20.6243 42.259 20.3934C40.3272 18.4269 37.7493 17.3438 35.0001 17.3438C32.2508 17.3438 29.6729 18.4268 27.7411 20.3934C27.5144 20.6242 27.5177 20.9952 27.7486 21.222C27.9795 21.4488 28.3505 21.4453 28.5772 21.2145C30.2869 19.4741 32.5679 18.5156 35.0001 18.5156C37.4322 18.5156 39.7133 19.4741 41.4229 21.2146Z" fill="white"/>
<path d="M41.2972 33.9563C39.6021 35.6158 37.3657 36.5297 35 36.5297C32.6343 36.5297 30.3979 35.6158 28.7028 33.9563C28.4716 33.7301 28.1006 33.7339 27.8742 33.9651C27.6479 34.1963 27.6518 34.5674 27.8831 34.7937C29.7985 36.6688 32.326 37.7016 35 37.7016C37.6741 37.7016 40.2016 36.6688 42.1171 34.7937C42.3482 34.5674 42.3522 34.1963 42.1258 33.9651C41.8996 33.7341 41.5287 33.7297 41.2972 33.9563Z" fill="white"/>
<path d="M45.2483 34.7123C45.4345 34.4476 45.3709 34.0821 45.1062 33.8959C44.8416 33.7097 44.4762 33.7734 44.2899 34.038C42.3782 36.7551 39.3986 38.4978 36.1148 38.8192C35.8148 38.8485 35.5859 39.1008 35.5859 39.4024V44.3164C35.5859 44.6401 35.8482 44.9023 36.1719 44.9023C36.4955 44.9023 36.7578 44.6401 36.7578 44.3164V39.9223C40.1712 39.4403 43.2431 37.5623 45.2483 34.7123Z" fill="white"/>
<path d="M36.1719 46.4138C35.8482 46.4138 35.5859 46.6761 35.5859 46.9998V53.2422C35.5859 53.5653 35.3231 53.8281 35 53.8281C34.6769 53.8281 34.4141 53.5653 34.4141 53.2422V39.4023C34.4141 39.1008 34.1852 38.8485 33.8851 38.8192C30.6014 38.4978 27.6217 36.7551 25.7101 34.038C25.5239 33.7732 25.1583 33.7096 24.8937 33.8959C24.629 34.0821 24.5655 34.4476 24.7517 34.7123C26.7569 37.5623 29.8288 39.4404 33.2422 39.9223V53.2422C33.2422 54.2114 34.0308 55 35 55C35.9692 55 36.7578 54.2114 36.7578 53.2422V46.9998C36.7578 46.6761 36.4955 46.4138 36.1719 46.4138Z" fill="white"/>
</g>
<defs>
<linearGradient id="paint0_linear_12_190" x1="15.5" y1="10" x2="50.5" y2="58.5" gradientUnits="userSpaceOnUse">
<stop stop-color="#FD8399"/>
<stop offset="1" stop-color="#FE506F"/>
</linearGradient>
<clipPath id="clip0_12_190">
<rect width="40" height="40" fill="white" transform="translate(15 15)"/>
</clipPath>
</defs>
</svg>
