<svg width="80" height="80" viewBox="0 0 80 80" fill="none" xmlns="http://www.w3.org/2000/svg">
<circle cx="40" cy="40" r="40" fill="#D9DDFF"/>
<path d="M54.1422 25.8578C50.3647 22.0804 45.3421 20 40 20C34.6579 20 29.6353 22.0804 25.8578 25.8578C22.0804 29.6353 20 34.6579 20 40C20 45.3421 22.0804 50.3647 25.8578 54.1422C29.6353 57.9196 34.6579 60 40 60C45.3421 60 50.3647 57.9196 54.1422 54.1422C57.9196 50.3647 60 45.3421 60 40C60 34.6579 57.9196 29.6353 54.1422 25.8578ZM47.9401 34.8099C49.7614 35.137 51.438 35.5786 52.9034 36.1258C55.8795 37.2372 57.6562 38.6856 57.6562 40C57.6562 41.3144 55.8795 42.7628 52.9034 43.8739C51.438 44.4214 49.7614 44.863 47.9401 45.1898C48.1134 43.5187 48.2031 41.7767 48.2031 40C48.2031 38.2233 48.1134 36.4813 47.9401 34.8099ZM52.4847 27.5153C54.7601 29.7903 56.3373 32.5775 57.1103 35.6165C56.1871 34.9942 55.0543 34.4275 53.7234 33.9304C51.9351 33.2626 49.866 32.7408 47.6199 32.3804C47.2592 30.134 46.7377 28.0649 46.0696 26.2766C45.5728 24.9457 45.0058 23.8129 44.3835 22.8897C47.4225 23.6627 50.2097 25.2399 52.4847 27.5153ZM45.8594 40C45.8594 41.9122 45.751 43.7766 45.5435 45.5435C43.7766 45.751 41.9122 45.8594 40 45.8594C38.0878 45.8594 36.2234 45.751 34.4565 45.5435C34.249 43.7766 34.1406 41.9122 34.1406 40C34.1406 38.0878 34.249 36.2234 34.4565 34.4565C36.2234 34.249 38.0878 34.1406 40 34.1406C41.9122 34.1406 43.7766 34.249 45.5435 34.4565C45.751 36.2234 45.8594 38.0878 45.8594 40ZM40 22.3438C41.3144 22.3438 42.7628 24.1205 43.8742 27.0966C44.4214 28.562 44.863 30.2386 45.1901 32.0599C43.519 31.8866 41.7767 31.7969 40 31.7969C38.2233 31.7969 36.4813 31.8866 34.8102 32.0599C35.137 30.2386 35.5786 28.562 36.1261 27.0966C37.2372 24.1205 38.6856 22.3438 40 22.3438ZM27.5153 27.5153C29.7903 25.2399 32.5775 23.6627 35.6165 22.8897C34.9942 23.8129 34.4275 24.9457 33.9304 26.2766C33.2626 28.0649 32.7408 30.134 32.3804 32.3804C30.134 32.7408 28.0649 33.2626 26.2766 33.9304C24.9457 34.4275 23.8129 34.9942 22.8897 35.6165C23.6627 32.5775 25.2399 29.7903 27.5153 27.5153ZM27.0966 36.1261C28.562 35.5786 30.2386 35.137 32.0599 34.8102C31.8866 36.4813 31.7969 38.2233 31.7969 40C31.7969 41.7767 31.8866 43.5187 32.0599 45.1898C30.2386 44.863 28.562 44.4214 27.0966 43.8739C24.1205 42.7628 22.3438 41.3144 22.3438 40C22.3438 38.6856 24.1205 37.2372 27.0966 36.1261ZM27.5153 52.4847C25.2399 50.2097 23.6627 47.4225 22.8897 44.3835C23.8129 45.0058 24.9457 45.5725 26.2766 46.0696C28.0649 46.7374 30.134 47.2592 32.3804 47.6196C32.7408 49.866 33.2626 51.9351 33.9304 53.7234C34.4275 55.0543 34.9942 56.1871 35.6165 57.1103C32.5775 56.3373 29.7903 54.7601 27.5153 52.4847ZM40 57.6562C38.6856 57.6562 37.2372 55.8795 36.1261 52.9034C35.5786 51.438 35.137 49.7614 34.8102 47.9401C36.4813 48.1134 38.2233 48.2031 40 48.2031C41.7767 48.2031 43.519 48.1134 45.1901 47.9401C44.863 49.7614 44.4214 51.438 43.8742 52.9034C42.7628 55.8795 41.3144 57.6562 40 57.6562ZM52.4847 52.4847C50.2097 54.7601 47.4225 56.3373 44.3835 57.1103C45.0058 56.1871 45.5728 55.0543 46.0696 53.7234C46.7377 51.9351 47.2592 49.866 47.6199 47.6196C49.866 47.2592 51.9351 46.7374 53.7234 46.0696C55.0543 45.5725 56.1871 45.0058 57.1103 44.3835C56.3373 47.4225 54.7601 50.2097 52.4847 52.4847Z" fill="#6A7AFF"/>
</svg>
