<svg width="80" height="80" viewBox="0 0 80 80" fill="none" xmlns="http://www.w3.org/2000/svg">
<circle cx="40" cy="40" r="40" fill="#FFD7DD"/>
<path d="M46.153 37.3431C48.3557 35.5508 49.7656 32.8201 49.7656 29.7656C49.7656 24.3808 45.3848 20 40 20C34.6152 20 30.2344 24.3808 30.2344 29.7656C30.2344 32.8201 31.6443 35.5508 33.847 37.3431C27.8293 38.3408 23.2031 44.0219 23.2031 50.8594V58.8281C23.2031 59.4754 23.7277 60 24.375 60H55.625C56.2723 60 56.7969 59.4754 56.7969 58.8281V50.8594C56.7969 44.0219 52.1707 38.3408 46.153 37.3431ZM41.1719 39.5312V41.875H38.8281V39.5312H41.1719ZM38.6169 44.2188H41.3831L42.6212 50.4086L40 52.6102L37.3788 50.4086L38.6169 44.2188ZM32.5781 29.7656C32.5781 25.6732 35.9076 22.3438 40 22.3438C44.0924 22.3438 47.4219 25.6732 47.4219 29.7656C47.4219 33.858 44.0924 37.1875 40 37.1875C35.9076 37.1875 32.5781 33.858 32.5781 29.7656ZM54.4531 57.6562H25.5469V50.8594C25.5469 44.613 30.1187 39.5312 35.7385 39.5312H36.4844V42.9309L34.9448 50.6296C34.8608 51.0492 35.0122 51.4813 35.34 51.7566L39.2462 55.0378C39.4641 55.2209 39.7321 55.3125 40 55.3125C40.2679 55.3125 40.5359 55.2209 40.7538 55.0378L44.66 51.7566C44.9878 51.4813 45.1395 51.0492 45.0555 50.6296L43.5156 42.9309V39.5312H44.2615C49.8813 39.5312 54.4531 44.613 54.4531 50.8594V57.6562Z" fill="#FD7B92"/>
</svg>
