<svg width="80" height="80" viewBox="0 0 80 80" fill="none" xmlns="http://www.w3.org/2000/svg">
<circle cx="40" cy="40" r="40" fill="#C6F1E7"/>
<path d="M55.625 20H25.9375C23.999 20 22.4219 21.5771 22.4219 23.5156V56.4844C22.4219 58.4229 23.999 60 25.9375 60H56.4062C57.0535 60 57.5781 59.4754 57.5781 58.8281V21.9531C57.5781 20.8762 56.702 20 55.625 20ZM55.2344 22.3438V28.3572L53.5406 27.2281C53.3438 27.0969 53.1171 27.0312 52.8906 27.0312C52.6642 27.0312 52.4374 27.0969 52.2406 27.2281L50.5469 28.3572V22.3438H55.2344ZM25.9375 22.3438H48.2031V30.5469C48.2031 30.979 48.4412 31.376 48.822 31.5802C49.2032 31.7841 49.6655 31.7618 50.025 31.5219L52.8906 29.6115L55.2344 31.174V52.9688H25.9375C25.5267 52.9688 25.1324 53.0402 24.7656 53.1702V23.5156C24.7656 22.8696 25.2914 22.3438 25.9375 22.3438ZM55.2344 57.6562H25.9375C25.2914 57.6562 24.7656 57.1304 24.7656 56.4844C24.7656 55.8383 25.2914 55.3125 25.9375 55.3125H55.2344V57.6562Z" fill="#14C798"/>
</svg>
