<svg width="40" height="40" viewBox="0 0 40 40" fill="none" xmlns="http://www.w3.org/2000/svg">
<path d="M34.1422 5.85785C30.3647 2.08038 25.3421 0 20 0C14.6579 0 9.63531 2.08038 5.85785 5.85785C2.08038 9.63531 0 14.6579 0 20C0 25.3421 2.08038 30.3647 5.85785 34.1422C9.63531 37.9196 14.6579 40 20 40C25.3421 40 30.3647 37.9196 34.1422 34.1422C37.9196 30.3647 40 25.3421 40 20C40 14.6579 37.9196 9.63531 34.1422 5.85785ZM27.9401 14.8099C29.7614 15.137 31.438 15.5786 32.9034 16.1258C35.8795 17.2372 37.6562 18.6856 37.6562 20C37.6562 21.3144 35.8795 22.7628 32.9034 23.8739C31.438 24.4214 29.7614 24.863 27.9401 25.1898C28.1134 23.5187 28.2031 21.7767 28.2031 20C28.2031 18.2233 28.1134 16.4813 27.9401 14.8099ZM32.4847 7.51526C34.7601 9.79034 36.3373 12.5775 37.1103 15.6165C36.1871 14.9942 35.0543 14.4275 33.7234 13.9304C31.9351 13.2626 29.866 12.7408 27.6199 12.3804C27.2592 10.134 26.7377 8.06488 26.0696 6.27655C25.5728 4.94568 25.0058 3.81287 24.3835 2.88971C27.4225 3.66272 30.2097 5.23987 32.4847 7.51526ZM25.8594 20C25.8594 21.9122 25.751 23.7766 25.5435 25.5435C23.7766 25.751 21.9122 25.8594 20 25.8594C18.0878 25.8594 16.2234 25.751 14.4565 25.5435C14.249 23.7766 14.1406 21.9122 14.1406 20C14.1406 18.0878 14.249 16.2234 14.4565 14.4565C16.2234 14.249 18.0878 14.1406 20 14.1406C21.9122 14.1406 23.7766 14.249 25.5435 14.4565C25.751 16.2234 25.8594 18.0878 25.8594 20ZM20 2.34375C21.3144 2.34375 22.7628 4.12048 23.8742 7.09656C24.4214 8.56201 24.863 10.2386 25.1901 12.0599C23.519 11.8866 21.7767 11.7969 20 11.7969C18.2233 11.7969 16.4813 11.8866 14.8102 12.0599C15.137 10.2386 15.5786 8.56201 16.1261 7.09656C17.2372 4.12048 18.6856 2.34375 20 2.34375ZM7.51526 7.51526C9.79034 5.23987 12.5775 3.66272 15.6165 2.88971C14.9942 3.81287 14.4275 4.94568 13.9304 6.27655C13.2626 8.06488 12.7408 10.134 12.3804 12.3804C10.134 12.7408 8.06488 13.2626 6.27655 13.9304C4.94568 14.4275 3.81287 14.9942 2.88971 15.6165C3.66272 12.5775 5.23987 9.79034 7.51526 7.51526ZM7.09656 16.1261C8.56201 15.5786 10.2386 15.137 12.0599 14.8102C11.8866 16.4813 11.7969 18.2233 11.7969 20C11.7969 21.7767 11.8866 23.5187 12.0599 25.1898C10.2386 24.863 8.56201 24.4214 7.09656 23.8739C4.12048 22.7628 2.34375 21.3144 2.34375 20C2.34375 18.6856 4.12048 17.2372 7.09656 16.1261ZM7.51526 32.4847C5.23987 30.2097 3.66272 27.4225 2.88971 24.3835C3.81287 25.0058 4.94568 25.5725 6.27655 26.0696C8.06488 26.7374 10.134 27.2592 12.3804 27.6196C12.7408 29.866 13.2626 31.9351 13.9304 33.7234C14.4275 35.0543 14.9942 36.1871 15.6165 37.1103C12.5775 36.3373 9.79034 34.7601 7.51526 32.4847ZM20 37.6562C18.6856 37.6562 17.2372 35.8795 16.1261 32.9034C15.5786 31.438 15.137 29.7614 14.8102 27.9401C16.4813 28.1134 18.2233 28.2031 20 28.2031C21.7767 28.2031 23.519 28.1134 25.1901 27.9401C24.863 29.7614 24.4214 31.438 23.8742 32.9034C22.7628 35.8795 21.3144 37.6562 20 37.6562ZM32.4847 32.4847C30.2097 34.7601 27.4225 36.3373 24.3835 37.1103C25.0058 36.1871 25.5728 35.0543 26.0696 33.7234C26.7377 31.9351 27.2592 29.866 27.6199 27.6196C29.866 27.2592 31.9351 26.7374 33.7234 26.0696C35.0543 25.5725 36.1871 25.0058 37.1103 24.3835C36.3373 27.4225 34.7601 30.2097 32.4847 32.4847Z" fill="#6A7AFF"/>
</svg>
