<svg width="34" height="40" viewBox="0 0 34 40" fill="none" xmlns="http://www.w3.org/2000/svg">
<path d="M23.153 17.3431C25.3557 15.5508 26.7656 12.8201 26.7656 9.76562C26.7656 4.3808 22.3848 0 17 0C11.6152 0 7.23438 4.3808 7.23438 9.76562C7.23438 12.8201 8.64429 15.5508 10.847 17.3431C4.82928 18.3408 0.203125 24.0219 0.203125 30.8594V38.8281C0.203125 39.4754 0.727722 40 1.375 40H32.625C33.2723 40 33.7969 39.4754 33.7969 38.8281V30.8594C33.7969 24.0219 29.1707 18.3408 23.153 17.3431ZM18.1719 19.5312V21.875H15.8281V19.5312H18.1719ZM15.6169 24.2188H18.3831L19.6212 30.4086L17 32.6102L14.3788 30.4086L15.6169 24.2188ZM9.57812 9.76562C9.57812 5.67322 12.9076 2.34375 17 2.34375C21.0924 2.34375 24.4219 5.67322 24.4219 9.76562C24.4219 13.858 21.0924 17.1875 17 17.1875C12.9076 17.1875 9.57812 13.858 9.57812 9.76562ZM31.4531 37.6562H2.54688V30.8594C2.54688 24.613 7.11871 19.5312 12.7385 19.5312H13.4844V22.9309L11.9448 30.6296C11.8608 31.0492 12.0122 31.4813 12.34 31.7566L16.2462 35.0378C16.4641 35.2209 16.7321 35.3125 17 35.3125C17.2679 35.3125 17.5359 35.2209 17.7538 35.0378L21.66 31.7566C21.9878 31.4813 22.1395 31.0492 22.0555 30.6296L20.5156 22.9309V19.5312H21.2615C26.8813 19.5312 31.4531 24.613 31.4531 30.8594V37.6562Z" fill="#FD7B92"/>
</svg>
