<svg width="36" height="40" viewBox="0 0 36 40" fill="none" xmlns="http://www.w3.org/2000/svg">
<path d="M33.625 0H3.9375C1.99902 0 0.421875 1.57715 0.421875 3.51562V36.4844C0.421875 38.4229 1.99902 40 3.9375 40H34.4062C35.0535 40 35.5781 39.4754 35.5781 38.8281V1.95312C35.5781 0.87616 34.702 0 33.625 0ZM33.2344 2.34375V8.35724L31.5406 7.22809C31.3438 7.09686 31.1171 7.03125 30.8906 7.03125C30.6642 7.03125 30.4374 7.09686 30.2406 7.22809L28.5469 8.35724V2.34375H33.2344ZM3.9375 2.34375H26.2031V10.5469C26.2031 10.979 26.4412 11.376 26.822 11.5802C27.2032 11.7841 27.6655 11.7618 28.025 11.5219L30.8906 9.61151L33.2344 11.174V32.9688H3.9375C3.52673 32.9688 3.13245 33.0402 2.76562 33.1702V3.51562C2.76562 2.86957 3.29144 2.34375 3.9375 2.34375ZM33.2344 37.6562H3.9375C3.29144 37.6562 2.76562 37.1304 2.76562 36.4844C2.76562 35.8383 3.29144 35.3125 3.9375 35.3125H33.2344V37.6562Z" fill="#14C798"/>
</svg>
