<svg width="378" height="209" viewBox="0 0 378 209" fill="none" xmlns="http://www.w3.org/2000/svg">
<g clip-path="url(#clip0_18_530)">
<path opacity="0.1" d="M378 136.592C378.021 147.45 375.035 158.106 369.37 167.394C369.37 178.753 364.037 189.048 355.386 196.552C353.221 198.428 350.89 200.105 348.421 201.565C348.322 201.628 348.219 201.687 348.117 201.746C347.932 201.854 347.747 201.962 347.559 202.074L347.383 202.176C346.594 202.619 345.788 203.045 344.965 203.445C337.383 207.147 329.042 209.056 320.593 209.023H71.7573C69.7748 209.023 67.8099 208.944 65.8626 208.787C58.9425 208.246 52.1425 206.682 45.6872 204.148C44.4272 203.653 43.1914 203.122 41.9799 202.553C41.4028 202.284 40.8311 202.007 40.265 201.723C39.9115 201.546 39.5579 201.362 39.2077 201.178C37.0825 200.056 35.0239 198.814 33.042 197.458C31.2308 196.227 29.488 194.899 27.8214 193.481C16.5772 183.9 9.62189 170.642 9.62189 156.012C3.31932 146.375 -0.0237838 135.126 6.5684e-05 123.635C6.5684e-05 91.1071 26.1825 64.7376 58.4843 64.7376C59.4756 64.7376 60.4669 64.7672 61.4581 64.8197C61.6002 64.8197 61.739 64.8197 61.8811 64.8394C67.3264 55.623 74.6055 47.1547 83.3583 39.7003C107.228 19.3909 142.114 6.58838 180.974 6.58838C213.626 6.58838 243.473 15.6275 266.335 30.5627C274.998 25.6999 284.783 23.1507 294.734 23.164C327.03 23.164 353.219 49.5335 353.219 82.0613C353.214 84.1195 353.104 86.1761 352.888 88.2231C360.673 93.6952 367.018 100.946 371.389 109.364C375.759 117.782 378.027 127.121 378 136.592Z" fill="#6C63FF"/>
<path opacity="0.1" d="M300.91 89.8898V86.3693C303.683 85.2513 305.978 83.2108 307.403 80.5972C308.828 77.9836 309.293 74.9595 308.72 72.0427C308.146 69.1258 306.569 66.4977 304.259 64.6083C301.949 62.7189 299.049 61.6858 296.056 61.6858C293.063 61.6858 290.163 62.7189 287.853 64.6083C285.543 66.4977 283.966 69.1258 283.392 72.0427C282.819 74.9595 283.284 77.9836 284.709 80.5972C286.134 83.2108 288.429 85.2513 291.202 86.3693V89.8898C287.969 90.7821 285.048 92.5457 282.763 94.9852C280.343 91.3793 276.698 88.7571 272.494 87.5964V84.0726C275.267 82.9546 277.562 80.9141 278.987 78.3005C280.412 75.6869 280.877 72.6628 280.304 69.746C279.73 66.8291 278.153 64.201 275.843 62.3116C273.533 60.4222 270.633 59.3891 267.64 59.3891C264.647 59.3891 261.747 60.4222 259.437 62.3116C257.127 64.201 255.55 66.8291 254.976 69.746C254.403 72.6628 254.868 75.6869 256.293 78.3005C257.717 80.9141 260.013 82.9546 262.786 84.0726V87.5931C259.911 88.3855 257.278 89.8684 255.117 91.9109C252.706 88.6971 249.287 86.3703 245.399 85.2964V81.7759C248.172 80.6579 250.468 78.6174 251.893 76.0038C253.317 73.3902 253.783 70.3661 253.209 67.4493C252.636 64.5324 251.059 61.9043 248.748 60.0149C246.438 58.1255 243.538 57.0924 240.545 57.0924C237.552 57.0924 234.653 58.1255 232.342 60.0149C230.032 61.9043 228.455 64.5324 227.882 67.4493C227.308 70.3661 227.774 73.3902 229.198 76.0038C230.623 78.6174 232.918 80.6579 235.692 81.7759V85.2964C232.384 86.2117 229.405 88.0387 227.101 90.5657C226.073 87.95 224.446 85.6079 222.349 83.7252C220.252 81.8424 217.741 80.4706 215.017 79.7187V76.1982C217.79 75.0802 220.086 73.0397 221.51 70.4261C222.935 67.8125 223.401 64.7884 222.827 61.8716C222.253 58.9547 220.677 56.3266 218.366 54.4372C216.056 52.5478 213.156 51.5146 210.163 51.5146C207.17 51.5146 204.271 52.5478 201.96 54.4372C199.65 56.3266 198.073 58.9547 197.5 61.8716C196.926 64.7884 197.391 67.8125 198.816 70.4261C200.241 73.0397 202.536 75.0802 205.309 76.1982V79.7187C201.769 80.6976 198.61 82.7196 196.25 85.5178C193.891 88.316 192.441 91.7588 192.093 95.392C190.425 94.2425 188.574 93.3807 186.618 92.8427V89.3222C189.391 88.2042 191.686 86.1637 193.111 83.5501C194.536 80.9365 195.001 77.9124 194.427 74.9956C193.854 72.0787 192.277 69.4506 189.967 67.5612C187.657 65.6718 184.757 64.6387 181.764 64.6387C178.771 64.6387 175.871 65.6718 173.561 67.5612C171.251 69.4506 169.674 72.0787 169.1 74.9956C168.526 77.9124 168.992 80.9365 170.417 83.5501C171.841 86.1637 174.137 88.2042 176.91 89.3222V92.8427C174.442 93.5252 172.146 94.7165 170.173 96.339C168.2 97.9615 166.593 99.9787 165.458 102.259C163.927 101.282 162.256 100.541 160.501 100.061V96.5404C163.274 95.4224 165.57 93.3819 166.995 90.7683C168.419 88.1547 168.885 85.1306 168.311 82.2138C167.738 79.2969 166.161 76.6688 163.85 74.7794C161.54 72.89 158.64 71.8569 155.647 71.8569C152.654 71.8569 149.755 72.89 147.444 74.7794C145.134 76.6688 143.557 79.2969 142.984 82.2138C142.41 85.1306 142.876 88.1547 144.3 90.7683C145.725 93.3819 148.02 95.4224 150.794 96.5404V100.061C149.138 100.514 147.557 101.202 146.098 102.102C144.955 99.8587 143.353 97.8768 141.396 96.2826C139.438 94.6885 137.168 93.5169 134.729 92.8427V89.3222C137.502 88.2042 139.797 86.1637 141.222 83.5501C142.647 80.9365 143.112 77.9124 142.538 74.9956C141.965 72.0787 140.388 69.4506 138.078 67.5612C135.767 65.6718 132.868 64.6387 129.875 64.6387C126.882 64.6387 123.982 65.6718 121.672 67.5612C119.361 69.4506 117.785 72.0787 117.211 74.9956C116.637 77.9124 117.103 80.9365 118.528 83.5501C119.952 86.1637 122.248 88.2042 125.021 89.3222V92.8427C122.396 93.5678 119.968 94.8687 117.917 96.6495C115.866 98.4303 114.243 100.646 113.169 103.132C111.321 101.723 109.218 100.681 106.973 100.061V96.5404C109.746 95.4224 112.042 93.3819 113.467 90.7683C114.891 88.1547 115.357 85.1306 114.783 82.2138C114.21 79.2969 112.633 76.6688 110.322 74.7794C108.012 72.89 105.112 71.8569 102.119 71.8569C99.1265 71.8569 96.2267 72.89 93.9164 74.7794C91.6062 76.6688 90.0293 79.2969 89.4557 82.2138C88.8821 85.1306 89.3476 88.1547 90.7723 90.7683C92.197 93.3819 94.4925 95.4224 97.2656 96.5404V100.061C93.4362 101.115 90.0602 103.386 87.6547 106.527C85.2491 109.667 83.9465 113.504 83.9464 117.45V198.819H120.273V191.601H137.454V198.819H173.801V191.601H199.904V178.477H222.372V184.055H249.467V186.351H277.883V188.648H314.229V107.279C314.229 103.333 312.926 99.4962 310.521 96.3555C308.115 93.2149 304.739 90.9437 300.91 89.8898Z" fill="#6C63FF"/>
<path d="M162.163 55.4492H192.374C199.763 55.4488 207.079 56.8936 213.906 59.701C220.732 62.5085 226.935 66.6237 232.16 71.8117C237.385 76.9996 241.53 83.1587 244.358 89.9373C247.185 96.7158 248.641 103.981 248.641 111.318V187.018H105.899V111.318C105.899 96.5008 111.827 82.2903 122.379 71.8129C132.93 61.3354 147.241 55.4492 162.163 55.4492Z" fill="#2F2E41"/>
<path opacity="0.2" d="M165.468 58.4937H189.069C196.458 58.4932 203.775 59.938 210.602 62.7455C217.428 65.553 223.631 69.6682 228.856 74.8561C234.081 80.0441 238.226 86.2032 241.053 92.9817C243.881 99.7603 245.337 107.026 245.337 114.363V183.969H109.204V114.363C109.204 99.5452 115.131 85.3347 125.683 74.8573C136.235 64.3798 150.545 58.4937 165.468 58.4937Z" fill="black"/>
<path d="M344.958 197.71V203.439C337.376 207.141 329.035 209.05 320.586 209.017H71.7572C69.7747 209.017 67.8098 208.938 65.8625 208.78C58.9424 208.239 52.1424 206.675 45.6871 204.141C44.4271 203.647 43.1913 203.115 41.9798 202.546C41.4027 202.277 40.8311 202.001 40.2649 201.716C39.9114 201.539 39.5578 201.355 39.2076 201.172C37.0826 200.052 35.024 198.812 33.042 197.458V181.899C33.042 179.384 34.048 176.972 35.8388 175.194C37.6296 173.416 40.0585 172.417 42.5911 172.417H317.246C319.556 172.421 321.787 173.257 323.524 174.769L341.697 190.584C342.72 191.472 343.541 192.568 344.103 193.797C344.666 195.026 344.957 196.36 344.958 197.71Z" fill="#2F2E41"/>
<path d="M159.484 74.0883C152.278 74.5607 145.1 75.3263 137.95 76.385C135.918 76.6868 133.856 77.0215 132.003 77.9139C130.562 78.663 129.234 79.6083 128.057 80.7225C122.75 85.4443 118.476 91.1991 115.501 97.6295C113.661 101.616 112.339 105.832 110.605 109.851C104.429 124.206 93.2278 135.945 86.7086 150.149C85.2977 153.223 84.1082 156.432 83.6357 159.775C83.1467 163.233 83.7018 167.269 86.5632 169.29C87.8849 170.218 89.4907 170.602 91.0635 170.93C110.863 175.284 130.892 178.532 151.058 180.659C148.874 178.565 148.144 175.32 148.431 172.322C148.718 169.323 149.905 166.488 151.074 163.709C139.662 161.209 128.278 158.584 116.922 155.835C115.227 155.424 113.192 154.653 112.984 152.934C112.878 152.058 113.314 151.215 113.744 150.444C118.587 141.736 124.394 133.592 131.058 126.164C131.058 135.371 130.598 145.768 130.598 154.978H237.687C236.399 149.723 235.642 144.354 235.427 138.95C234.928 121.312 240.909 103.808 239.356 86.205C239.211 84.5809 238.986 82.9076 238.13 81.5165C236.653 79.1148 233.706 78.1206 230.996 77.3004C220.608 74.1637 210.001 70.991 199.144 71.2371C195.916 71.3125 192.701 71.6866 189.492 72.0639C179.715 73.209 169.307 73.4419 159.484 74.0883Z" fill="#6C63FF"/>
<path d="M109.329 179.904L117.127 204.685C117.177 204.842 117.276 204.98 117.41 205.077C117.543 205.174 117.705 205.227 117.871 205.227H151.332L143.402 176.354L110.01 178.903C109.894 178.913 109.781 178.948 109.68 179.007C109.579 179.065 109.493 179.146 109.428 179.242C109.363 179.338 109.32 179.447 109.303 179.562C109.286 179.676 109.295 179.793 109.329 179.904Z" fill="#656478"/>
<path d="M166.531 84.7452C165.078 85.5753 163.382 85.8739 161.73 86.1594L151.068 87.9967C148.993 88.3544 146.809 88.7612 145.209 90.1228C141.938 92.9018 142.645 98.0169 143.637 102.177L145.619 110.524C147.113 116.797 148.639 123.146 151.702 128.829C157.052 138.747 166.865 145.89 177.657 149.332C181.513 150.562 185.587 151.363 189.611 150.923C197.495 150.063 204.239 144.482 208.396 137.773C212.552 131.063 214.531 123.281 216.345 115.61C218.087 108.267 219.742 100.819 219.63 93.2726C219.597 90.9234 219.359 88.4692 218.097 86.4776C215.331 82.104 209.063 81.7759 203.925 82.5831C203.125 82.711 202.296 82.8488 201.526 82.6093C199.213 81.894 199.16 78.741 198.169 76.5526C196.296 72.4251 190.738 71.6934 186.195 72.0674C181.651 72.4415 174.577 72.9238 170.619 75.4797C166.812 77.924 170.995 82.1893 166.531 84.7452Z" fill="#FBBEBE"/>
<path opacity="0.1" d="M166.531 84.7452C165.078 85.5753 163.382 85.8739 161.73 86.1594L151.068 87.9967C148.993 88.3544 146.809 88.7612 145.209 90.1228C141.938 92.9018 142.645 98.0169 143.637 102.177L145.619 110.524C147.113 116.797 148.639 123.146 151.702 128.829C157.052 138.747 166.865 145.89 177.657 149.332C181.513 150.562 185.587 151.363 189.611 150.923C197.495 150.063 204.239 144.482 208.396 137.773C212.552 131.063 214.531 123.281 216.345 115.61C218.087 108.267 219.742 100.819 219.63 93.2726C219.597 90.9234 219.359 88.4692 218.097 86.4776C215.331 82.104 209.063 81.7759 203.925 82.5831C203.125 82.711 202.296 82.8488 201.526 82.6093C199.213 81.894 199.16 78.741 198.169 76.5526C196.296 72.4251 190.738 71.6934 186.195 72.0674C181.651 72.4415 174.577 72.9238 170.619 75.4797C166.812 77.924 170.995 82.1893 166.531 84.7452Z" fill="black"/>
<path d="M157.706 94.1486C159.318 97.5083 160.528 101.071 162.477 104.251C164.027 106.777 166.013 109.005 167.988 111.22C173.107 116.968 178.291 122.762 184.625 127.139C187.248 113.758 193.585 101.371 202.92 91.3761C205.65 88.4659 209.066 85.5983 213.071 85.7066C215.556 85.7755 217.849 86.9993 219.917 88.3609C222.23 89.88 224.417 91.6419 226.079 93.8303C228.706 97.3148 229.84 101.728 230.045 106.075C230.249 110.422 229.569 114.76 228.895 119.058L225.425 141.274C225.224 142.56 224.943 143.98 223.886 144.752C223.285 145.129 222.608 145.371 221.903 145.46C209.291 147.898 196.292 146.317 183.442 146.192C169.234 146.057 154.633 147.665 141.175 143.177C140.471 142.94 139.741 142.668 139.265 142.107C138.953 141.684 138.728 141.203 138.604 140.693C135.469 130.614 137.983 119.783 139.843 109.399C141.316 101.169 142.365 92.8708 142.986 84.5352C143.042 83.7839 151.355 85.4441 152.284 85.9756C154.811 87.4619 156.49 91.6157 157.706 94.1486Z" fill="#6C63FF"/>
<g opacity="0.2">
<path opacity="0.2" d="M55.137 176.121C55.137 176.272 55.1205 176.42 55.104 176.564C53.844 176.07 52.6082 175.538 51.3967 174.97C50.7495 174.885 50.1475 174.594 49.6818 174.14C49.3282 173.962 48.9747 173.779 48.6245 173.595C48.7038 173.43 48.7931 173.27 48.8921 173.116C49.5728 172.046 50.607 171.377 51.7469 171.413C52.8869 171.449 53.8748 172.181 54.4861 173.286C54.9536 174.157 55.1783 175.136 55.137 176.121Z" fill="#3F3D56"/>
<path opacity="0.2" d="M55.3155 170.504C55.2929 171.488 55.0066 172.449 54.4861 173.286C53.8054 174.353 52.7712 175.022 51.6313 174.986L51.3967 174.97C50.7495 174.885 50.1475 174.594 49.6818 174.139C49.366 173.842 49.0995 173.496 48.8921 173.116C48.4361 172.242 48.2131 171.267 48.2443 170.284C48.2756 169.301 48.56 168.342 49.0705 167.499C49.7512 166.429 50.7854 165.76 51.9253 165.796C53.0653 165.832 54.0533 166.564 54.6645 167.669C55.132 168.54 55.3568 169.518 55.3155 170.504Z" fill="#3F3D56"/>
<path opacity="0.2" d="M55.4939 164.895C55.5747 162.358 54.0581 160.251 52.1064 160.19C50.1548 160.129 48.5072 162.136 48.4265 164.674C48.3457 167.211 49.8624 169.318 51.814 169.379C53.7656 169.44 55.4132 167.433 55.4939 164.895Z" fill="#3F3D56"/>
<path opacity="0.2" d="M55.674 159.278C55.7548 156.741 54.2381 154.634 52.2865 154.573C50.3349 154.512 48.6873 156.519 48.6066 159.056C48.5258 161.594 50.0425 163.701 51.9941 163.762C53.9457 163.823 55.5933 161.816 55.674 159.278Z" fill="#3F3D56"/>
<path opacity="0.2" d="M55.8509 153.661C55.9317 151.124 54.4151 149.017 52.4634 148.956C50.5118 148.895 48.8643 150.902 48.7835 153.439C48.7028 155.977 50.2194 158.083 52.171 158.145C54.1226 158.206 55.7702 156.198 55.8509 153.661Z" fill="#3F3D56"/>
<path opacity="0.2" d="M40.3119 114.688C39.8466 114.062 39.427 113.404 39.0563 112.719L48.394 111.495L38.3294 111.259C37.4324 109.146 36.9789 106.874 36.9965 104.582C37.0141 102.289 37.5025 100.024 38.4318 97.925L51.6883 105.288L39.5453 95.8252C40.7703 93.8578 42.3906 92.1624 44.3051 90.8448C46.2196 89.5272 48.3871 88.6158 50.6723 88.1673C52.9574 87.7189 55.3112 87.7432 57.5864 88.2386C59.8617 88.7341 62.0097 89.6901 63.8962 91.0468C65.7827 92.4036 67.3672 94.1321 68.5508 96.1243C69.7344 98.1164 70.4915 100.33 70.775 102.625C71.0586 104.921 70.8623 107.25 70.1985 109.467C69.5348 111.685 68.4178 113.742 66.9173 115.511C67.6403 116.485 68.2552 117.533 68.7511 118.638L56.5025 124.491L69.4979 120.61C70.3166 123.29 70.4492 126.131 69.8838 128.875C69.3184 131.619 68.0728 134.18 66.2598 136.326C68.1471 138.868 69.2756 141.887 69.5163 145.036C69.757 148.185 69.1002 151.338 67.6209 154.134C66.1415 156.93 63.8995 159.256 61.1513 160.846C58.4031 162.437 55.2596 163.226 52.0805 163.126C48.9015 163.025 45.8151 162.038 43.1746 160.277C40.5341 158.516 38.446 156.053 37.1492 153.169C35.8525 150.285 35.3994 147.097 35.8418 143.969C36.2843 140.841 37.6044 137.9 39.6511 135.483C37.397 132.445 36.2366 128.743 36.3565 124.972C36.4763 121.2 37.8694 117.578 40.3119 114.688Z" fill="#6C63FF"/>
<path opacity="0.1" d="M70.2141 126.03C70.0977 129.805 68.7005 133.429 66.2491 136.316C68.139 138.858 69.2702 141.876 69.5133 145.026C69.7563 148.176 69.1014 151.33 67.6235 154.127C66.1455 156.925 63.9043 159.253 61.1562 160.844C58.4082 162.436 55.2644 163.227 52.0845 163.128C48.9047 163.028 45.8173 162.042 43.1758 160.281C40.5343 158.52 38.4453 156.057 37.1479 153.172C35.8505 150.288 35.3971 147.099 35.8397 143.971C36.2823 140.842 37.6028 137.901 39.6503 135.483C37.4596 132.55 70.2736 124.144 70.2141 126.03Z" fill="black"/>
</g>
<path opacity="0.1" d="M22.475 53.4182C26.4222 53.4182 29.622 50.2409 29.622 46.3214C29.622 42.402 26.4222 39.2246 22.475 39.2246C18.5279 39.2246 15.3281 42.402 15.3281 46.3214C15.3281 50.2409 18.5279 53.4182 22.475 53.4182Z" fill="#6C63FF"/>
<path opacity="0.1" d="M52.2624 14.1936C56.2096 14.1936 59.4094 11.0163 59.4094 7.09681C59.4094 3.17735 56.2096 0 52.2624 0C48.3153 0 45.1154 3.17735 45.1154 7.09681C45.1154 11.0163 48.3153 14.1936 52.2624 14.1936Z" fill="#6C63FF"/>
<path opacity="0.1" d="M49.8406 45.9377C56.4557 45.9377 61.8183 40.6127 61.8183 34.044C61.8183 27.4754 56.4557 22.1504 49.8406 22.1504C43.2255 22.1504 37.8629 27.4754 37.8629 34.044C37.8629 40.6127 43.2255 45.9377 49.8406 45.9377Z" fill="#6C63FF"/>
<path d="M179.418 88.4231C194.747 88.4231 207.173 76.0839 207.173 60.8627C207.173 45.6415 194.747 33.3022 179.418 33.3022C164.089 33.3022 151.663 45.6415 151.663 60.8627C151.663 76.0839 164.089 88.4231 179.418 88.4231Z" fill="#FBBEBE"/>
<path d="M168.144 6.78183C160.739 7.71364 152.746 8.94402 147.512 14.2264C144.585 17.1793 142.87 21.1165 141.459 25.0144C139.272 31.0842 137.643 37.4822 138.155 43.9228C138.611 49.6842 140.759 55.5769 139.021 61.0956C138.221 63.6351 136.652 65.853 135.432 68.2186C133.172 72.6119 132.108 77.5367 131.718 82.4549C131.447 85.8376 131.5 89.3188 132.62 92.5243C133.813 95.9366 136.139 98.8403 137.613 102.141C139.794 107.017 140.012 112.502 140.18 117.834C140.349 123.166 140.491 128.461 140.617 133.773C140.696 137.113 140.702 140.689 138.842 143.475C145.712 140.742 152.677 137.953 158.555 133.491C164.433 129.029 169.191 122.595 169.951 115.285C170.566 109.359 168.55 103.519 166.812 97.8166C162.517 83.7083 159.741 68.6681 162.867 54.2612C163.994 49.074 166.733 43.283 171.99 42.3282C175.198 41.7475 178.4 43.201 181.291 44.7037C188.124 48.2537 195.169 52.8471 197.713 60.0752C200.026 66.611 198.08 73.8915 195.07 80.132C192.06 86.3724 187.962 92.1109 185.623 98.6336C182.031 108.641 183.042 120.357 189.01 129.173C194.977 137.989 206.003 143.413 216.606 141.989C215.777 138.432 213.177 135.558 211.782 132.179C209.248 126.04 210.956 118.979 213.682 112.922C216.408 106.866 220.129 101.219 221.834 94.7882C223.036 90.2604 223.182 85.5292 223.175 80.8472C223.175 73.4781 222.808 66.1057 222.095 58.7693C221.381 51.433 220.291 44.0048 217.938 36.9474C216.048 31.2877 213.296 25.8149 209.179 21.4742C204.797 16.8512 199.094 13.7179 193.494 10.6469C190.143 8.81606 186.72 6.96229 182.96 6.27656C179.986 5.7352 176.86 4.96416 173.827 4.91494C171.765 4.88541 169.598 5.32835 168.144 6.78183Z" fill="#434175"/>
<path d="M220.383 42.3543L202.527 38.9141C202.007 38.814 201.504 39.1511 201.403 39.667L192.848 83.4525C192.747 83.9683 193.087 84.4677 193.606 84.5678L211.463 88.0079C211.983 88.108 212.485 87.771 212.586 87.2551L221.141 43.4696C221.242 42.9537 220.903 42.4544 220.383 42.3543Z" fill="#656478"/>
<path d="M221.733 42.6141L203.877 39.1739C203.357 39.0738 202.854 39.4109 202.753 39.9267L194.198 83.7122C194.097 84.2281 194.437 84.7274 194.956 84.8275L212.813 88.2677C213.332 88.3678 213.835 88.0307 213.936 87.5149L222.491 43.7294C222.592 43.2135 222.253 42.7142 221.733 42.6141Z" fill="#3F3D56"/>
<path d="M212.197 51.0375C212.547 49.2497 212.227 47.6843 211.484 47.5411C210.74 47.3979 209.854 48.731 209.505 50.5188C209.156 52.3066 209.475 53.872 210.219 54.0152C210.962 54.1584 211.848 52.8253 212.197 51.0375Z" fill="#6C63FF"/>
<path d="M216.425 65.9484C215.553 64.4161 214.621 62.8314 213.15 61.8504C212.305 61.3356 211.397 60.9309 210.448 60.6463C207.246 59.534 203.991 58.4119 200.604 58.2347C200.053 58.2085 199.421 58.2347 199.061 58.6547C198.321 59.5176 199.494 60.6922 200.509 61.2139L208.577 65.3643L201.14 64.5835C200.059 64.4686 198.519 64.7606 198.599 65.8368C198.652 66.5422 199.431 66.9261 200.105 67.1492C204.88 68.7897 210.398 70.0759 213.012 74.3674C209.529 74.0393 205.97 73.7112 202.557 74.4724C201.622 74.6824 200.654 75.0072 200.043 75.7389C199.431 76.4705 199.362 77.7075 200.132 78.2882C200.608 78.6393 201.249 78.6491 201.843 78.6163C204.265 78.5015 206.75 78.0225 209.076 78.7082C211.402 79.3939 213.468 81.8153 212.665 84.0858C214.727 84.2695 217.165 84.0858 219.072 83.2032C221.173 82.2189 221.123 80.3684 220.995 78.1373C220.72 73.767 218.536 69.6887 216.425 65.9484Z" fill="#FBBEBE"/>
<path opacity="0.1" d="M214.34 137.471C212.491 124.559 209.954 111.754 206.74 99.1093C205.088 92.5473 203.211 85.8737 203.684 79.1214C210.51 79.9843 216.626 80.6241 222.917 77.855C223.02 81.4017 225.61 84.417 226.552 87.8456C227.183 90.1423 226.945 92.5736 227.193 94.9392C227.441 97.3048 228.184 99.5982 228.822 101.898C231.986 113.295 232.732 125.221 231.013 136.92C225.174 137.609 220.165 138.367 214.34 137.471Z" fill="black"/>
<path d="M213.348 137.471C211.499 124.559 208.963 111.754 205.749 99.1093C204.097 92.5473 202.22 85.8737 202.692 79.1214C209.519 79.9843 215.635 80.6241 221.926 77.855C222.029 81.4017 224.619 84.417 225.561 87.8456C226.192 90.1423 225.954 92.5736 226.202 94.9392C226.45 97.3048 227.193 99.5982 227.831 101.898C230.995 113.295 231.741 125.221 230.021 136.92C224.183 137.609 219.174 138.367 213.348 137.471Z" fill="#6C63FF"/>
<path d="M117.838 201.378L121.072 121.693C121.124 120.426 121.67 119.229 122.595 118.356C123.521 117.482 124.752 117.001 126.029 117.014L253.742 118.228C254.419 118.235 255.087 118.381 255.704 118.656C256.322 118.931 256.875 119.331 257.33 119.829C257.784 120.326 258.13 120.912 258.346 121.549C258.562 122.186 258.642 122.861 258.583 123.53L251.836 199.869C251.73 201.07 251.18 202.189 250.292 203.01C249.404 203.832 248.242 204.298 247.028 204.318L122.83 206.451C122.162 206.462 121.498 206.338 120.879 206.085C120.261 205.833 119.701 205.458 119.233 204.983C118.766 204.508 118.401 203.943 118.161 203.324C117.921 202.704 117.811 202.042 117.838 201.378Z" fill="#3F3D56"/>
<path d="M189.165 159.785C192.268 159.785 194.782 156.847 194.782 153.223C194.782 149.599 192.268 146.661 189.165 146.661C186.063 146.661 183.548 149.599 183.548 153.223C183.548 156.847 186.063 159.785 189.165 159.785Z" fill="#6C63FF"/>
<path d="M309.273 148.715L309.008 150.966L304.713 187.339C293.515 195.092 284.805 187.641 284.729 187.339L279.317 150.795L279.009 148.715H309.273Z" fill="#3F3D56"/>
<path opacity="0.1" d="M309.273 148.715L309.008 150.966C296.393 158.249 282.935 152.58 279.317 150.795L279.009 148.715H309.273Z" fill="black"/>
<path d="M278.378 146.739V150.02C278.378 150.02 295.065 159.653 310.099 150.02V146.739H278.378Z" fill="#6C63FF"/>
<path d="M280.318 142.405C280.318 142.405 279.832 144.62 278.378 144.814V147.606H310.099V145.102C310.099 145.102 308.159 144.62 308.447 142.405H280.318Z" fill="#6C63FF"/>
<path d="M294.143 146.74C302.044 146.74 308.45 144.906 308.45 142.645C308.45 140.384 302.044 138.55 294.143 138.55C286.241 138.55 279.836 140.384 279.836 142.645C279.836 144.906 286.241 146.74 294.143 146.74Z" fill="#6C63FF"/>
<path opacity="0.1" d="M294.143 146.74C302.044 146.74 308.45 144.906 308.45 142.645C308.45 140.384 302.044 138.55 294.143 138.55C286.241 138.55 279.836 140.384 279.836 142.645C279.836 144.906 286.241 146.74 294.143 146.74Z" fill="black"/>
<path opacity="0.1" d="M306.702 142.405C306.702 144.046 301.277 145.391 294.579 145.391H294.222C289.725 145.358 285.839 144.735 283.857 143.803C282.961 143.383 282.453 142.907 282.453 142.405C282.453 141.572 283.84 140.817 286.087 140.276C288.879 139.67 291.731 139.383 294.589 139.42C301.276 139.42 306.702 140.755 306.702 142.405Z" fill="black"/>
<path opacity="0.1" d="M294.222 145.391C289.725 145.359 285.839 144.735 283.857 143.803L286.077 140.263L294.222 145.391Z" fill="black"/>
<path opacity="0.1" d="M281.55 142.635C281.379 142.599 281.151 142.658 281.118 142.829C281.113 142.916 281.136 143.002 281.184 143.075C281.562 143.67 282.113 144.137 282.763 144.417C282.874 144.479 282.997 144.518 283.123 144.532C283.189 144.539 283.256 144.527 283.315 144.497C283.374 144.466 283.422 144.419 283.454 144.361C283.472 144.311 283.479 144.259 283.475 144.206C283.471 144.153 283.456 144.102 283.43 144.056C283.329 143.878 283.189 143.726 283.021 143.61C282.578 143.265 282.125 142.73 281.55 142.635Z" fill="black"/>
<path d="M294.625 177.706C299.339 177.706 303.16 173.912 303.16 169.231C303.16 164.551 299.339 160.756 294.625 160.756C289.912 160.756 286.091 164.551 286.091 169.231C286.091 173.912 289.912 177.706 294.625 177.706Z" fill="#6C63FF"/>
<path d="M62.2279 169.25H66.2293C68.4201 169.25 70.5212 170.115 72.0703 171.653C73.6195 173.191 74.4898 175.278 74.4898 177.453V189.642H53.9674V177.453C53.9674 175.278 54.8377 173.191 56.3868 171.653C57.936 170.115 60.0371 169.25 62.2279 169.25Z" fill="#3F3D56"/>
<path opacity="0.1" d="M62.2279 169.25H66.2293C68.4201 169.25 70.5212 170.115 72.0703 171.653C73.6195 173.191 74.4898 175.278 74.4898 177.453V189.642H53.9674V177.453C53.9674 175.278 54.8377 173.191 56.3868 171.653C57.936 170.115 60.0371 169.25 62.2279 169.25Z" fill="black"/>
<path d="M63.4074 173.736C64.3143 173.736 65.0496 173.006 65.0496 172.105C65.0496 171.205 64.3143 170.475 63.4074 170.475C62.5004 170.475 61.7652 171.205 61.7652 172.105C61.7652 173.006 62.5004 173.736 63.4074 173.736Z" fill="#3F3D56"/>
<path d="M63.4074 171.698C64.3143 171.698 65.0496 170.968 65.0496 170.068C65.0496 169.167 64.3143 168.437 63.4074 168.437C62.5004 168.437 61.7652 169.167 61.7652 170.068C61.7652 170.968 62.5004 171.698 63.4074 171.698Z" fill="#3F3D56"/>
<path d="M63.4074 169.657C64.3143 169.657 65.0496 168.927 65.0496 168.027C65.0496 167.126 64.3143 166.396 63.4074 166.396C62.5004 166.396 61.7652 167.126 61.7652 168.027C61.7652 168.927 62.5004 169.657 63.4074 169.657Z" fill="#3F3D56"/>
<path d="M63.4074 167.62C64.3143 167.62 65.0496 166.89 65.0496 165.99C65.0496 165.089 64.3143 164.359 63.4074 164.359C62.5004 164.359 61.7652 165.089 61.7652 165.99C61.7652 166.89 62.5004 167.62 63.4074 167.62Z" fill="#3F3D56"/>
<path d="M63.4074 165.583C64.3143 165.583 65.0496 164.853 65.0496 163.952C65.0496 163.051 64.3143 162.321 63.4074 162.321C62.5004 162.321 61.7652 163.051 61.7652 163.952C61.7652 164.853 62.5004 165.583 63.4074 165.583Z" fill="#3F3D56"/>
<path d="M63.4074 163.545C64.3143 163.545 65.0496 162.815 65.0496 161.914C65.0496 161.014 64.3143 160.284 63.4074 160.284C62.5004 160.284 61.7652 161.014 61.7652 161.914C61.7652 162.815 62.5004 163.545 63.4074 163.545Z" fill="#3F3D56"/>
<path d="M63.4074 161.507C64.3143 161.507 65.0496 160.777 65.0496 159.877C65.0496 158.976 64.3143 158.246 63.4074 158.246C62.5004 158.246 61.7652 158.976 61.7652 159.877C61.7652 160.777 62.5004 161.507 63.4074 161.507Z" fill="#3F3D56"/>
<path d="M65.8723 162.321C66.7793 162.321 67.5145 161.591 67.5145 160.69C67.5145 159.79 66.7793 159.06 65.8723 159.06C64.9654 159.06 64.2302 159.79 64.2302 160.69C64.2302 161.591 64.9654 162.321 65.8723 162.321Z" fill="#3F3D56"/>
<path d="M67.5147 161.507C68.4217 161.507 69.1569 160.777 69.1569 159.877C69.1569 158.976 68.4217 158.246 67.5147 158.246C66.6078 158.246 65.8726 158.976 65.8726 159.877C65.8726 160.777 66.6078 161.507 67.5147 161.507Z" fill="#3F3D56"/>
<path d="M69.1568 160.691C70.0637 160.691 70.799 159.96 70.799 159.06C70.799 158.159 70.0637 157.429 69.1568 157.429C68.2498 157.429 67.5146 158.159 67.5146 159.06C67.5146 159.96 68.2498 160.691 69.1568 160.691Z" fill="#3F3D56"/>
<path d="M63.4074 159.47C64.3143 159.47 65.0496 158.74 65.0496 157.839C65.0496 156.939 64.3143 156.208 63.4074 156.208C62.5004 156.208 61.7652 156.939 61.7652 157.839C61.7652 158.74 62.5004 159.47 63.4074 159.47Z" fill="#3F3D56"/>
<path d="M63.4074 157.432C64.3143 157.432 65.0496 156.702 65.0496 155.802C65.0496 154.901 64.3143 154.171 63.4074 154.171C62.5004 154.171 61.7652 154.901 61.7652 155.802C61.7652 156.702 62.5004 157.432 63.4074 157.432Z" fill="#3F3D56"/>
<path d="M63.4074 155.392C64.3143 155.392 65.0496 154.662 65.0496 153.761C65.0496 152.86 64.3143 152.13 63.4074 152.13C62.5004 152.13 61.7652 152.86 61.7652 153.761C61.7652 154.662 62.5004 155.392 63.4074 155.392Z" fill="#3F3D56"/>
<path d="M63.4074 153.354C64.3143 153.354 65.0496 152.624 65.0496 151.723C65.0496 150.823 64.3143 150.093 63.4074 150.093C62.5004 150.093 61.7652 150.823 61.7652 151.723C61.7652 152.624 62.5004 153.354 63.4074 153.354Z" fill="#3F3D56"/>
<path d="M70.2141 146.467C69.8077 146.526 69.398 146.569 68.9883 146.595C69.3706 146.263 69.7253 145.901 70.0489 145.513C69.8203 144.828 69.4859 144.183 69.0577 143.6C68.6506 143.827 68.2006 143.968 67.736 144.013C67.3296 144.072 66.9198 144.115 66.5101 144.144C67.0487 143.708 67.5509 143.052 68.0796 142.504C66.8578 141.404 65.2827 140.77 63.6344 140.714C61.986 140.659 60.3714 141.186 59.0775 142.202C57.7836 143.217 56.8944 144.655 56.568 146.261C56.2417 147.866 56.4992 149.534 57.295 150.969C58.0907 152.403 59.373 153.511 60.9139 154.095C62.4547 154.679 64.1542 154.701 65.7101 154.158C67.266 153.615 68.5775 152.541 69.4112 151.128C70.245 149.715 70.5471 148.054 70.2637 146.441L70.2141 146.467Z" fill="#6C63FF"/>
<path d="M75.7026 154.568C75.2836 154.823 74.811 154.98 74.3214 155.024C73.915 155.083 73.5053 155.129 73.0956 155.155C73.531 154.768 73.9374 154.349 74.3115 153.902C73.3214 153.646 72.2706 153.765 71.3646 154.237C70.4585 154.709 69.7624 155.5 69.4122 156.455C69.0621 157.41 69.0831 158.46 69.4712 159.4C69.8593 160.34 70.5865 161.102 71.5107 161.538C72.4349 161.974 73.4897 162.052 74.4687 161.757C75.4478 161.462 76.2808 160.815 76.8048 159.942C77.3289 159.069 77.5063 158.034 77.3025 157.038C77.0987 156.043 76.5282 155.158 75.7026 154.558V154.568Z" fill="#6C63FF"/>
<path d="M60.9459 162.321C61.8528 162.321 62.5881 161.591 62.5881 160.69C62.5881 159.79 61.8528 159.06 60.9459 159.06C60.0389 159.06 59.3037 159.79 59.3037 160.69C59.3037 161.591 60.0389 162.321 60.9459 162.321Z" fill="#3F3D56"/>
<path d="M59.3039 161.507C60.2108 161.507 60.9461 160.777 60.9461 159.877C60.9461 158.976 60.2108 158.246 59.3039 158.246C58.3969 158.246 57.6617 158.976 57.6617 159.877C57.6617 160.777 58.3969 161.507 59.3039 161.507Z" fill="#3F3D56"/>
<path d="M57.6615 160.691C58.5684 160.691 59.3037 159.96 59.3037 159.06C59.3037 158.159 58.5684 157.429 57.6615 157.429C56.7545 157.429 56.0193 158.159 56.0193 159.06C56.0193 159.96 56.7545 160.691 57.6615 160.691Z" fill="#3F3D56"/>
<path d="M51.116 154.568C51.5347 154.824 52.0075 154.98 52.4971 155.024C52.9035 155.083 53.3133 155.129 53.723 155.155C53.2867 154.768 52.8802 154.349 52.507 153.902C53.4971 153.646 54.5479 153.765 55.454 154.237C56.36 154.709 57.0561 155.5 57.4063 156.455C57.7565 157.41 57.7354 158.46 57.3474 159.4C56.9593 160.34 56.2321 161.102 55.3078 161.538C54.3836 161.974 53.3289 162.052 52.3498 161.757C51.3708 161.462 50.5378 160.815 50.0137 159.942C49.4896 159.069 49.3122 158.034 49.516 157.038C49.7199 156.043 50.2904 155.158 51.116 154.558V154.568Z" fill="#6C63FF"/>
<path d="M62.2279 170.475H66.2293C68.4201 170.475 70.5212 171.339 72.0703 172.877C73.6195 174.415 74.4898 176.502 74.4898 178.677V189.462C74.4898 189.831 74.3421 190.185 74.0794 190.445C73.8167 190.706 73.4603 190.853 73.0888 190.853H55.3684C54.9968 190.853 54.6404 190.706 54.3777 190.445C54.115 190.185 53.9674 189.831 53.9674 189.462V178.677C53.9674 176.502 54.8377 174.415 56.3868 172.877C57.936 171.339 60.0371 170.475 62.2279 170.475Z" fill="#3F3D56"/>
<g opacity="0.1">
<path opacity="0.1" d="M70.3395 146.914C70.1733 147.09 69.9967 147.256 69.8109 147.412C69.9992 147.412 70.1842 147.383 70.3726 147.363C70.3792 147.212 70.356 147.061 70.3395 146.914Z" fill="black"/>
<path opacity="0.1" d="M67.3459 144.965C67.7589 144.939 68.1653 144.896 68.5751 144.837C68.9426 144.791 69.3019 144.693 69.6423 144.548C69.4759 144.22 69.2837 143.905 69.0674 143.606C68.8619 143.731 68.6393 143.825 68.4065 143.885C68.0825 144.273 67.7278 144.634 67.3459 144.965Z" fill="black"/>
<path opacity="0.1" d="M57.2517 148.465C57.2493 147.221 57.5847 146 58.2227 144.929C58.8607 143.859 59.7776 142.979 60.8769 142.383C61.9762 141.786 63.2171 141.495 64.469 141.54C65.7209 141.585 66.9374 141.964 67.9904 142.638L68.0961 142.527C67.4089 141.92 66.6075 141.453 65.7381 141.155C64.8687 140.857 63.9484 140.733 63.0303 140.789C62.1123 140.846 61.2145 141.082 60.3889 141.485C59.5632 141.887 58.8259 142.448 58.2195 143.135C57.6131 143.822 57.1495 144.621 56.8556 145.486C56.5616 146.352 56.443 147.266 56.5066 148.178C56.5702 149.089 56.8148 149.978 57.2262 150.795C57.6376 151.612 58.2078 152.34 58.9038 152.937C57.8352 151.689 57.2495 150.104 57.2517 148.465Z" fill="black"/>
</g>
<g opacity="0.1">
<path opacity="0.1" d="M73.0956 155.969C73.5054 155.943 73.9151 155.9 74.3215 155.841C74.8113 155.795 75.2839 155.638 75.7027 155.382C76.1666 155.721 76.5534 156.153 76.8381 156.651C77.1227 157.148 77.2987 157.699 77.3547 158.269C77.3708 158.126 77.3785 157.983 77.3779 157.839C77.381 157.202 77.2331 156.573 76.9461 156.003C76.6591 155.433 76.241 154.938 75.7258 154.558C75.3068 154.814 74.8342 154.97 74.3446 155.014L74.0142 155.057C73.7322 155.384 73.4251 155.689 73.0956 155.969Z" fill="black"/>
<path opacity="0.1" d="M73.2608 154.578C73.3978 154.579 73.5346 154.589 73.6705 154.607C73.8853 154.381 74.0967 154.138 74.3115 153.902C73.704 153.741 73.0674 153.721 72.4509 153.843C71.8343 153.966 71.2544 154.227 70.756 154.608C70.2577 154.989 69.8542 155.478 69.5769 156.038C69.2996 156.599 69.1559 157.215 69.157 157.839C69.157 157.977 69.157 158.111 69.1768 158.246C69.2784 157.241 69.7525 156.309 70.5072 155.631C71.2618 154.953 72.2432 154.578 73.2608 154.578Z" fill="black"/>
</g>
<g opacity="0.1">
<path opacity="0.1" d="M53.7229 155.969C53.3132 155.943 52.9034 155.9 52.497 155.841C52.0071 155.796 51.5344 155.639 51.1159 155.382C50.652 155.721 50.2651 156.153 49.9805 156.651C49.6959 157.148 49.5198 157.699 49.4638 158.269C49.4478 158.126 49.44 157.983 49.4407 157.839C49.4375 157.202 49.5855 156.573 49.8725 156.003C50.1595 155.433 50.5775 154.938 51.0928 154.558C51.5115 154.814 51.9842 154.97 52.4739 155.014L52.8043 155.057C53.0845 155.386 53.3917 155.691 53.7229 155.969Z" fill="black"/>
<path opacity="0.1" d="M53.5576 154.578C53.4194 154.579 53.2815 154.589 53.1446 154.607C52.9331 154.381 52.7216 154.138 52.5069 153.902C53.1143 153.741 53.751 153.721 54.3675 153.843C54.9841 153.966 55.564 154.227 56.0623 154.608C56.5607 154.989 56.9641 155.478 57.2414 156.038C57.5187 156.599 57.6624 157.215 57.6614 157.839C57.6614 157.977 57.6614 158.111 57.6416 158.246C57.54 157.241 57.0659 156.309 56.3112 155.631C55.5565 154.953 54.5752 154.578 53.5576 154.578Z" fill="black"/>
</g>
</g>
<defs>
<clipPath id="clip0_18_530">
<rect width="378" height="209" fill="white"/>
</clipPath>
</defs>
</svg>
