<svg width="279" height="228" viewBox="0 0 279 228" fill="none" xmlns="http://www.w3.org/2000/svg">
<g clip-path="url(#clip0_18_362)">
<path opacity="0.1" d="M272.216 132.171C272.216 132.345 272.216 132.518 272.216 132.688C272.186 135.675 272.009 138.654 271.685 141.626C271.687 141.644 271.687 141.662 271.685 141.68C271.66 141.927 271.631 142.171 271.603 142.418C271.555 142.836 271.503 143.25 271.447 143.667C270.785 148.748 269.69 153.762 268.174 158.656C266.143 165.269 263.271 171.593 259.63 177.474C258.509 179.273 257.316 181.013 256.05 182.696C255.375 183.587 254.685 184.459 253.972 185.316C253.473 185.916 252.964 186.507 252.445 187.088L252.122 187.446C249.393 190.442 246.453 193.237 243.322 195.81C238.213 200.046 232.712 203.732 227.122 207.15C226.805 207.346 226.484 207.539 226.163 207.718C226.141 207.734 226.117 207.749 226.092 207.761C218.496 212.354 210.619 216.5 202.504 219.819C193.619 223.462 184.445 226.111 175.032 227.269C161.912 228.882 148.633 227.57 135.593 225.316C124.747 223.452 114.033 220.891 103.517 217.65L101.785 217.107C100.888 216.822 99.9924 216.53 99.0973 216.233C93.6908 214.444 88.3448 212.457 83.0594 210.27C69.7849 204.802 57.1035 197.991 45.2128 189.944C43.6989 188.926 42.2067 187.885 40.7364 186.821C38.6812 185.341 36.6507 183.817 34.6448 182.25L33.4072 181.29C28.1577 177.179 23.2394 172.661 18.6977 167.778C12.5891 161.129 7.369 153.628 3.93717 145.064C3.39595 143.719 2.90015 142.347 2.44976 140.95L2.40719 140.811C2.1801 140.101 1.97005 139.392 1.77702 138.653C1.49317 137.597 1.24432 136.528 1.03048 135.445C0.985064 135.238 0.945324 135.03 0.908422 134.82C0.229972 131.177 -0.0696738 127.473 0.014273 123.767C0.085267 120.521 0.465462 117.288 1.1497 114.114C1.85004 110.823 2.92927 107.625 4.3658 104.582C5.66399 101.847 7.31807 99.295 9.28504 96.9931C10.6672 95.3838 12.2216 93.9308 13.9204 92.6604C17.0003 90.3663 20.4151 88.7678 23.9548 87.5043C25.6182 86.9081 27.3043 86.3857 28.9989 85.9002C30.1996 85.5538 31.406 85.2244 32.6067 84.9007L36.1492 83.9439C38.4201 83.325 40.691 82.689 42.9277 82.0019C49.025 80.1393 55.0002 77.885 60.5269 74.5233C61.4011 73.9924 62.2925 73.4103 63.1838 72.7857C64.3192 71.9964 65.4376 71.1389 66.5446 70.2133C67.663 69.2764 68.7587 68.2741 69.8033 67.2122C69.9651 67.0476 70.1241 66.8829 70.283 66.7154C71.1346 65.8182 71.9606 64.8784 72.727 63.9017C73.1017 63.4247 73.4651 62.9392 73.8114 62.4451C74.2911 61.7609 74.7453 61.0653 75.1654 60.3498C77.2716 56.7723 78.5716 52.8258 78.4184 48.6663C78.396 47.9809 78.3344 47.2975 78.2339 46.6192C77.8648 44.1121 77.51 41.6647 77.2489 39.2712C76.1532 29.3708 76.6159 20.3931 84.0444 11.9577C93.2811 1.47233 107.778 -0.665624 120.974 0.171954C159.127 2.58531 193.86 24.3737 224.383 50.313C227.023 52.5541 229.631 54.8256 232.206 57.1272C232.855 57.7064 233.505 58.2894 234.156 58.8762C238.982 63.2231 243.734 67.7318 248.159 72.5614C248.517 72.9532 248.874 73.345 249.226 73.7397C249.442 73.9838 249.661 74.2252 249.874 74.4722C251.253 76.0338 252.592 77.6332 253.89 79.2705C257.368 83.6172 260.439 88.2742 263.064 93.1828C267.085 100.886 269.807 109.201 271.12 117.791C271.614 120.91 271.939 124.054 272.094 127.208C272.142 128.137 272.173 129.068 272.19 129.996C272.19 130.295 272.19 130.59 272.19 130.888C272.219 131.32 272.219 131.74 272.216 132.171Z" fill="#6C63FF"/>
<path d="M111.834 127.408L107.292 208.267L111.834 208.327L115.524 126.272L111.834 127.408Z" fill="#3F3D56"/>
<path d="M95.0863 168.375H38.8827V180.584H95.0863V168.375Z" fill="#6C63FF"/>
<path d="M98.7765 179.162V186.828H40.7193C38.6641 185.348 36.6336 183.824 34.6277 182.257V179.162H98.7765Z" fill="#3F3D56"/>
<path d="M110.369 161.715C110.21 162.45 110.003 163.177 109.784 163.901C109.14 165.994 108.365 168.058 108.215 170.233C108.013 173.106 108.782 176.448 106.795 178.534C106.284 179.074 105.617 179.477 105.16 180.053C105.09 180.144 105.026 180.239 104.967 180.337C104.559 181.013 104.51 181.837 104.505 182.609C104.509 184.256 104.617 185.901 104.825 187.535C105.498 193.157 106.827 198.79 105.081 204.096C104.765 205.017 104.396 205.918 103.977 206.796C103.125 208.67 102.197 210.519 101.919 212.549C101.714 214.053 101.777 215.604 101.765 217.134C100.869 216.848 99.9725 216.557 99.0774 216.26C93.6708 214.471 88.3249 212.483 83.0395 210.297C83.0536 210.22 83.0678 210.141 83.0792 210.064C83.4851 207.537 82.9288 204.954 82.2532 202.489C80.8339 197.268 78.8242 192.098 77.6348 186.839C77.1558 184.785 76.8417 182.697 76.6953 180.593C76.6612 180.122 76.6413 179.647 76.6385 179.173C76.6243 178.554 76.6385 177.935 76.664 177.311C76.7236 176.064 76.7776 174.585 75.7812 173.827C75.2334 173.415 74.5096 173.344 73.8709 173.094C72.6389 172.615 71.7959 171.502 70.8194 170.61C70.3536 170.158 69.7849 169.826 69.1623 169.643C68.5397 169.46 67.8819 169.432 67.2457 169.56C60.8646 171.022 56.1752 176.436 50.237 179.173C50.007 179.281 49.7771 179.383 49.5444 179.48C48.7762 179.761 48.0451 180.135 47.3672 180.593C46.8908 180.924 46.5453 181.411 46.3907 181.97C46.2403 182.572 46.3708 183.202 46.4446 183.821C46.5641 184.828 46.521 185.847 46.3169 186.839C46.2399 187.224 46.1385 187.603 46.0132 187.975C45.7861 188.648 45.4824 189.307 45.1928 189.962C43.6789 188.944 42.1868 187.903 40.7164 186.839C38.6613 185.359 36.6308 183.835 34.6248 182.268L33.4071 181.289C28.1576 177.177 23.2393 172.659 18.6976 167.777C19.3022 166.073 20.1765 164.489 20.5966 162.743C20.8351 161.74 20.9231 160.698 21.2523 159.724C21.6321 158.715 22.1602 157.767 22.8192 156.914C25.233 153.547 28.1804 150.597 31.545 148.18C35.062 145.659 39.124 143.637 42.289 140.775C43.5734 139.651 44.6806 138.338 45.5732 136.883C45.6271 136.795 45.6782 136.701 45.7236 136.599C45.9707 136.085 46.1418 135.538 46.2317 134.975C46.4588 133.703 46.4248 132.306 46.5383 131.085C50.3939 131.753 54.3245 131.871 58.2133 131.437C62.7409 130.929 67.169 129.671 71.6965 129.183C72.0372 129.143 72.3806 129.112 72.7241 129.083C74.1746 128.967 75.6279 128.941 77.0841 128.958C78.3019 128.958 79.5196 129.012 80.7374 129.052L94.1439 129.506C95.6285 129.557 97.1443 129.614 98.5267 130.157C100.167 130.801 101.482 132.084 102.535 133.496C102.668 133.677 102.802 133.859 102.926 134.046C103.793 135.311 104.488 136.685 104.993 138.132C105.047 138.28 105.098 138.416 105.146 138.578C105.274 138.972 105.385 139.37 105.484 139.773C105.561 140.088 105.629 140.403 105.691 140.721C106.003 142.294 106.188 143.901 106.682 145.42C106.716 145.531 106.753 145.642 106.793 145.75C107.386 147.413 108.371 148.904 109.115 150.503C109.651 151.66 110.06 152.872 110.335 154.117C110.891 156.618 110.903 159.209 110.369 161.715Z" fill="#35323E"/>
<path d="M69.6187 60.1066C68.4209 59.1526 66.6837 59.851 65.2814 60.4671C64.1057 60.9865 62.8955 61.4239 61.6594 61.776C61.4064 61.8734 61.1322 61.9018 60.8646 61.8584C60.2969 61.7221 60.0585 61.0492 59.6355 60.6403C58.9003 59.9334 57.6968 60.1009 56.7487 60.4842C55.8006 60.8675 54.8639 61.4211 53.8477 61.3359C52.7633 61.2508 51.8209 60.4501 50.7252 60.4246C48.795 60.3791 47.1742 62.7584 45.349 62.1281C44.2363 61.7448 43.362 60.2968 42.2663 60.7085C41.4147 61.0322 41.3381 62.2104 40.8243 62.9799C40.2197 63.8771 39.0417 64.1298 38.034 64.5273C34.8576 65.7822 32.7543 69.3228 33.1687 72.7128C33.3986 74.5839 34.3041 76.2988 34.9031 78.0847C36.68 83.2776 36.0697 89.135 38.3093 94.1434C38.5932 93.8766 38.7522 93.7772 39.0275 93.5131C38.3194 94.9822 38.1828 96.6621 38.6443 98.2263C38.8799 99.0128 39.2631 99.7453 39.5526 100.515C39.8534 101.378 40.0962 102.26 40.2793 103.155L42.7489 114.052C43.714 118.311 44.6819 122.57 44.8494 126.931C44.9537 129.767 44.7366 132.605 44.2022 135.392C48.6758 134.651 52.769 132.666 57.3022 132.692C58.9656 132.692 60.6148 132.976 62.264 133.203C67.0723 133.876 71.9225 134.205 76.7776 134.188C77.5327 134.231 78.2889 134.125 79.0031 133.876C79.6275 133.609 80.1385 133.135 80.7289 132.791C81.8842 132.11 83.2836 131.939 84.6149 131.939C90.6866 131.829 96.5369 134.052 102.569 134.836C104.95 129.836 105.092 123.845 103.264 118.618C102.722 117.065 101.993 115.551 101.777 113.919C101.69 112.915 101.668 111.907 101.709 110.901C101.699 108.324 101.235 105.769 100.338 103.354C99.9857 102.408 99.5628 101.446 99.5997 100.438C99.6366 99.4301 100.133 98.4903 100.622 97.5988C101.612 95.7817 102.609 93.9475 104.008 92.4143C105.441 90.83 107.235 89.6234 109.01 88.4394L113.389 85.4979C112.791 81.7132 112.018 77.7269 110.415 74.246C108.811 70.7651 106.412 67.5653 103.168 65.5295C102.074 64.8713 100.929 64.3016 99.7445 63.826C98.0867 63.1275 96.3609 62.5114 94.5641 62.4063C92.5203 62.2899 90.5078 62.8379 88.4895 63.1786C82.1368 64.249 74.66 64.1184 69.6187 60.1066Z" fill="#6C63FF"/>
<path d="M117.511 125.784L115.427 128.416L111.499 133.376L106.957 139.109L105.688 140.71H103.227L42.2861 140.781L4.12158 140.824H2.41844C2.19136 140.114 1.9813 139.404 1.78828 138.666C1.50442 137.61 1.25558 136.54 1.04174 135.457C0.996319 135.25 0.956579 135.043 0.919678 134.833L14.7662 125.779L19.9721 125.75L35.8965 125.659L44.7897 125.608H46.4134H47.4324L53.3594 125.577L98.5323 125.319L100.843 125.304H101.845L104.499 125.29L114.374 125.233L116.271 124.512L116.41 124.66L117.511 125.784Z" fill="#3F3D56"/>
<path d="M116.659 124.365L116.424 124.649L114.874 126.474L111.683 130.242L104.993 138.132L45.7236 136.619L1.03036 135.483C0.984941 135.276 0.945201 135.069 0.9083 134.859C0.22985 131.215 -0.0697959 127.511 0.0141509 123.805L4.97029 121.267L6.10572 120.682L14.9422 116.139L22.6971 112.165L42.9248 114.794L47.404 115.376L49.4308 115.637L52.3971 116.023L52.6469 116.057L99.1625 122.091L104.303 122.758L107.321 123.15L116.62 124.359L116.659 124.365Z" fill="#504F60"/>
<path d="M107.008 137.993L106.96 139.109L106.676 145.409L105.149 180.048L104.825 187.535L103.974 206.797L103.494 217.677L101.763 217.134C100.866 216.848 99.9696 216.557 99.0745 216.26L103.227 140.736L103.315 139.152L105.143 138.584L107.008 137.993Z" fill="#3F3D56"/>
<path d="M4.25221 137.911L4.12447 140.827L3.93713 145.085C3.39591 143.74 2.9001 142.368 2.44972 140.971L2.40714 140.832C2.18005 140.122 1.97 139.413 1.77698 138.674L4.25221 137.911Z" fill="#3F3D56"/>
<path d="M78.4807 94.9815C85.6922 94.9815 91.5382 87.1003 91.5382 77.3782C91.5382 67.6562 85.6922 59.7749 78.4807 59.7749C71.2693 59.7749 65.4233 67.6562 65.4233 77.3782C65.4233 87.1003 71.2693 94.9815 78.4807 94.9815Z" fill="#A1616A"/>
<path opacity="0.1" d="M78.4807 94.9815C85.6922 94.9815 91.5382 87.1003 91.5382 77.3782C91.5382 67.6562 85.6922 59.7749 78.4807 59.7749C71.2693 59.7749 65.4233 67.6562 65.4233 77.3782C65.4233 87.1003 71.2693 94.9815 78.4807 94.9815Z" fill="black"/>
<path d="M80.3258 84.9019C90.359 84.9019 98.4926 76.7664 98.4926 66.7307C98.4926 56.6951 90.359 48.5596 80.3258 48.5596C70.2925 48.5596 62.1589 56.6951 62.1589 66.7307C62.1589 76.7664 70.2925 84.9019 80.3258 84.9019Z" fill="#A1616A"/>
<path d="M80.6863 38.7242C79.5772 38.8127 78.4758 38.9806 77.3907 39.2268C74.5181 39.9252 72.0344 41.4754 69.6159 42.9973C68.5316 43.6815 67.416 44.3942 66.7433 45.3993C65.534 47.2022 66.0024 49.4963 65.324 51.498C64.972 52.5258 64.3248 53.4485 63.777 54.4054C62.2697 57.0288 61.4806 59.9107 60.7056 62.7641C60.5467 63.3547 60.5013 64.1553 61.1456 64.3825C61.5167 64.4596 61.9026 64.4158 62.247 64.2576C64.2822 63.5847 66.8682 63.3916 68.3783 64.7573C69.8884 66.1229 69.7607 68.5448 71.5575 69.584C73.6154 70.785 76.8287 69.3341 78.6965 70.7509C79.497 71.3585 79.7865 72.3324 80.4422 73.0649C81.9693 74.7684 84.9073 74.6861 87.3513 74.3426C88.7535 74.1438 90.4737 74.0104 91.3253 74.9956C91.734 75.4612 91.8504 76.1 92.3244 76.5203C93.176 77.2812 94.7344 76.895 95.5661 76.1142C96.3978 75.3335 96.7952 74.2773 97.4878 73.3999C98.8361 71.6964 101.206 70.7679 102.597 69.0843C103.761 67.6646 104.113 65.8873 104.431 64.1724L105.615 57.8153C106.094 55.2373 106.531 52.4207 105.081 50.1493C104.564 49.3316 103.823 48.6275 103.378 47.7814C103.08 47.2136 102.912 46.6145 102.566 46.0779C102.155 45.5188 101.665 45.0233 101.11 44.6071L98.3081 42.2875C97.3502 41.4488 96.3259 40.6892 95.2453 40.0161C91.2458 37.685 85.2564 38.2983 80.6863 38.7242Z" fill="#464353"/>
<path d="M20.8493 85.5321C20.1766 86.2476 19.5549 87.0199 18.8339 87.6899C18.1997 88.2541 17.5364 88.7848 16.8469 89.2799C15.7342 90.1128 14.6461 90.975 13.5826 91.8665C12.473 92.7439 11.469 93.7472 10.5907 94.8562C9.07491 96.8919 8.35676 99.4245 6.93747 101.528C5.68283 103.394 3.9144 104.867 2.63988 106.719C2.08075 107.497 1.66544 108.369 1.41362 109.294C1.22565 110.189 1.14089 111.102 1.16099 112.017C1.13544 113.516 1.11273 115.032 1.4193 116.5C1.72586 117.968 2.3986 119.41 3.55106 120.372C4.6212 121.267 6.00358 121.679 7.35758 122.019C8.05587 122.192 8.81093 122.354 9.47515 122.079C9.96119 121.833 10.3831 121.477 10.7071 121.04L14.1616 117.065C16.4722 114.396 18.8737 111.67 22.0443 110.109C23.0378 109.623 24.0853 109.257 25.0816 108.786C29.3054 106.75 32.2916 102.582 33.4497 98.039C33.7336 96.9289 33.9152 95.796 34.0997 94.6631L34.5993 91.557C34.6377 91.4013 34.6377 91.2386 34.5993 91.0828C34.5211 90.9077 34.3952 90.7582 34.236 90.6513C31.8298 88.7076 29.5768 86.5813 27.4972 84.2914C27.0033 83.7462 26.5406 82.9995 25.9701 82.5424C25.2548 81.9745 25.3087 82.0171 24.4486 82.5424C23.1255 83.3803 21.9158 84.3852 20.8493 85.5321Z" fill="#A1616A"/>
<path d="M44.4804 106.202C44.4516 106.136 44.4099 106.077 44.3576 106.027C44.3053 105.978 44.2436 105.939 44.1762 105.914C44.1087 105.89 44.0369 105.878 43.9651 105.882C43.8932 105.885 43.8229 105.903 43.7582 105.935C43.6935 105.966 43.6358 106.01 43.5886 106.065C43.5414 106.119 43.5056 106.182 43.4834 106.251C43.4613 106.319 43.4532 106.391 43.4596 106.463C43.4661 106.535 43.4869 106.604 43.5209 106.668L43.2371 106.807L51.7017 124.16L53.2317 123.413L44.7671 106.049L44.4804 106.202Z" fill="#3F3D56"/>
<path opacity="0.04" d="M20.8493 85.5321C20.1766 86.2476 19.5549 87.0199 18.8339 87.6899C18.1997 88.2541 17.5364 88.7848 16.8469 89.2799C15.7342 90.1128 14.6461 90.975 13.5826 91.8665C12.473 92.7439 11.469 93.7472 10.5907 94.8562C9.07491 96.8919 8.35676 99.4245 6.93747 101.528C5.68283 103.394 3.9144 104.867 2.63988 106.719C2.08075 107.497 1.66544 108.369 1.41362 109.294C1.22565 110.189 1.14089 111.102 1.16099 112.017C1.13544 113.516 1.11273 115.032 1.4193 116.5C1.72586 117.968 2.3986 119.41 3.55106 120.372C4.6212 121.267 6.00358 121.679 7.35758 122.019C8.05587 122.192 8.81093 122.354 9.47515 122.079C9.96119 121.833 10.3831 121.477 10.7071 121.04L14.1616 117.065C16.4722 114.396 18.8737 111.67 22.0443 110.109C23.0378 109.623 24.0853 109.257 25.0816 108.786C29.3054 106.75 32.2916 102.582 33.4497 98.039C33.7336 96.9289 33.9152 95.796 34.0997 94.6631L34.5993 91.557C34.6377 91.4013 34.6377 91.2386 34.5993 91.0828C34.5211 90.9077 34.3952 90.7582 34.236 90.6513C31.8298 88.7076 29.5768 86.5813 27.4972 84.2914C27.0033 83.7462 26.5406 82.9995 25.9701 82.5424C25.2548 81.9745 25.3087 82.0171 24.4486 82.5424C23.1255 83.3803 21.9158 84.3852 20.8493 85.5321Z" fill="black"/>
<path d="M118.706 117.513C118.678 119.325 118.607 121.19 117.854 122.843C117.531 123.558 117.028 124.262 116.276 124.498C115.821 124.603 115.35 124.62 114.888 124.549C109.319 124.059 103.707 124.505 98.2853 125.866C99.733 122.97 98.9013 119.498 99.3015 116.284C99.4122 115.407 99.6138 114.543 99.6904 113.663C99.9743 110.54 98.6373 107.508 98.0242 104.424C97.4919 101.755 97.4919 99.0073 98.0242 96.3382C98.1286 95.6511 98.3647 94.9907 98.7196 94.3933C99.1354 93.812 99.6818 93.3364 100.315 93.0049C102.614 91.696 105.325 91.5455 107.908 91.7187C109.648 91.8351 113.137 91.6705 114.587 92.7408C116.174 93.9135 116.676 97.8515 117.105 99.6714C117.747 102.463 118.183 105.297 118.411 108.152C118.689 111.264 118.749 114.39 118.706 117.513Z" fill="#A1616A"/>
<path d="M17.0258 123.8L27.2446 130.614L73.2294 128.91L42.8567 123.8H17.0258Z" fill="white"/>
<path d="M30.5004 69.6583C28.8228 71.1376 27.4007 72.8809 25.8111 74.4566C23.6311 76.6202 21.153 78.46 18.6863 80.2913C19.5707 80.5386 20.3758 81.0113 21.0226 81.6633C21.6695 82.3153 22.136 83.1242 22.3764 84.0107C22.4843 84.4281 22.5382 84.8625 22.6603 85.2713C22.9441 86.2395 23.5686 87.0743 24.2385 87.8267C27.1168 91.0719 31.1447 93.4739 32.8422 97.4801C32.8976 97.675 33.0177 97.8453 33.1828 97.9628C33.321 98.0239 33.4744 98.0418 33.6228 98.0139C35.1585 97.852 36.3336 96.6141 37.313 95.4103C39.3567 92.855 41.1308 90.0327 42.1385 86.9153C43.1462 83.7978 43.308 80.3509 42.2095 77.2618C41.6616 75.7229 40.8157 74.309 39.9755 72.9093C39.2394 71.6846 38.5051 70.4618 37.7728 69.2409C37.3896 68.5964 36.9014 67.2875 36.1491 66.9695C34.5255 66.2711 31.5421 68.6163 30.5004 69.6583Z" fill="#6C63FF"/>
<path d="M114.108 88.008L116.523 93.6865C113.894 92.7674 111.083 92.4876 108.324 92.8703C105.565 93.2529 102.936 94.2869 100.656 95.8869C99.2789 96.8721 98.0158 98.11 97.3941 99.6829C97.0873 99.7413 96.7702 99.7117 96.4795 99.5977C96.1887 99.4837 95.936 99.2898 95.7506 99.0384C95.3873 98.5287 95.1766 97.926 95.1431 97.3008C94.9189 95.1203 95.7449 92.9823 96.5624 90.9437C96.9428 89.9898 97.3345 89.0159 98.0101 88.2408C98.6857 87.4657 99.5827 86.9546 100.48 86.4719C103.341 84.8889 106.338 83.5644 109.435 82.514C110.741 82.091 112.109 82.0995 112.842 83.3204C113.69 84.7769 113.443 86.4577 114.108 88.008Z" fill="#6C63FF"/>
<path d="M17.0853 105.046C17.6899 105.529 18.2208 106.099 18.8424 106.559C19.4998 107.016 20.1994 107.409 20.9316 107.732L23.7304 109.078C24.5977 109.529 25.5053 109.898 26.4412 110.179C27.6391 110.5 28.8966 110.532 30.1002 110.83C31.6188 111.204 33.0069 111.985 34.5028 112.437C35.9987 112.888 37.7501 112.962 38.9991 112.022C39.7797 111.434 40.3701 110.463 41.3381 110.319C41.9625 110.236 42.5643 110.537 43.1207 110.83L50.4044 114.66C51.3866 115.177 52.4255 115.75 52.9393 116.735C53.4531 117.721 53.1068 119.217 52.0253 119.472C51.6483 119.516 51.2692 119.537 50.8898 119.538C50.5151 119.583 50.1064 119.805 50.0553 120.182C50.0534 120.417 50.1152 120.647 50.2341 120.849C50.5606 121.599 50.6571 122.496 50.2767 123.223C49.8963 123.95 48.9624 124.401 48.2159 124.075C48.3436 125.174 47.1486 125.943 46.0841 126.235C43.3988 126.971 40.5518 126.519 37.8069 126.054C36.7282 125.872 35.6325 125.685 34.6504 125.202C34.1792 124.972 33.742 124.677 33.2652 124.464C31.9566 123.882 30.4692 123.958 29.0385 123.984C22.4218 124.1 15.8619 122.874 9.3559 121.653C8.14951 121.426 6.90906 121.184 5.87866 120.517C3.89166 119.223 3.15363 116.565 3.48007 114.214C3.8065 111.863 4.9987 109.734 6.17103 107.667L7.68966 104.989C7.88819 104.579 8.16605 104.212 8.50717 103.91C10.7411 102.204 15.1721 103.507 17.0853 105.046Z" fill="#A1616A"/>
<path opacity="0.04" d="M17.0853 105.046C17.6899 105.529 18.2208 106.099 18.8424 106.559C19.4998 107.016 20.1994 107.409 20.9316 107.732L23.7304 109.078C24.5977 109.529 25.5053 109.898 26.4412 110.179C27.6391 110.5 28.8966 110.532 30.1002 110.83C31.6188 111.204 33.0069 111.985 34.5028 112.437C35.9987 112.888 37.7501 112.962 38.9991 112.022C39.7797 111.434 40.3701 110.463 41.3381 110.319C41.9625 110.236 42.5643 110.537 43.1207 110.83L50.4044 114.66C51.3866 115.177 52.4255 115.75 52.9393 116.735C53.4531 117.721 53.1068 119.217 52.0253 119.472C51.6483 119.516 51.2692 119.537 50.8898 119.538C50.5151 119.583 50.1064 119.805 50.0553 120.182C50.0534 120.417 50.1152 120.647 50.2341 120.849C50.5606 121.599 50.6571 122.496 50.2767 123.223C49.8963 123.95 48.9624 124.401 48.2159 124.075C48.3436 125.174 47.1486 125.943 46.0841 126.235C43.3988 126.971 40.5518 126.519 37.8069 126.054C36.7282 125.872 35.6325 125.685 34.6504 125.202C34.1792 124.972 33.742 124.677 33.2652 124.464C31.9566 123.882 30.4692 123.958 29.0385 123.984C22.4218 124.1 15.8619 122.874 9.3559 121.653C8.14951 121.426 6.90906 121.184 5.87866 120.517C3.89166 119.223 3.15363 116.565 3.48007 114.214C3.8065 111.863 4.9987 109.734 6.17103 107.667L7.68966 104.989C7.88819 104.579 8.16605 104.212 8.50717 103.91C10.7411 102.204 15.1721 103.507 17.0853 105.046Z" fill="black"/>
<path d="M103.735 109.953C102.257 110.651 100.559 110.719 99.015 111.256C97.4708 111.793 96.1594 112.758 94.7429 113.544C91.0528 115.606 86.7949 116.384 82.6137 117.125C80.0789 117.579 77.5043 118.033 74.9496 117.925C71.4922 117.778 68.1711 116.625 64.8216 115.756C61.4721 114.887 57.8983 114.302 54.58 115.279C52.8472 115.807 51.2632 116.736 49.9562 117.99C48.6493 119.244 47.6563 120.789 47.0578 122.499C46.3623 124.541 46.2658 126.741 46.3993 128.893C47.0975 129.407 48.074 128.695 48.4544 127.914C48.8347 127.133 49.042 126.176 49.78 125.722C51.0602 126.156 51.3724 127.863 52.4284 128.706C53.0869 129.234 53.9669 129.373 54.8043 129.492L59.1189 130.106C60.1578 130.253 61.3642 130.353 62.1164 129.62C62.4826 129.265 62.6841 128.768 63.0191 128.388C63.706 127.627 64.8528 127.496 65.8747 127.599C69.0652 127.917 72.0571 129.986 75.2249 129.495C76.3149 129.328 77.3283 128.862 78.3672 128.496C84.5241 126.321 91.365 127.644 97.7717 126.398C100.216 125.923 102.569 125.083 104.894 124.197C106.157 123.717 107.434 123.215 108.513 122.403C109.535 121.617 110.341 120.584 110.855 119.402C111.369 118.22 111.575 116.926 111.454 115.643C111.216 113.686 110.24 111.895 108.726 110.634C108.226 110.208 107.57 109.393 106.971 109.126C105.828 108.624 104.706 109.496 103.735 109.953Z" fill="#A1616A"/>
<g opacity="0.1">
<path opacity="0.1" d="M95.4412 73.6813C94.9672 73.2611 94.8508 72.6223 94.4421 72.1566C93.5905 71.1714 91.8703 71.3048 90.4681 71.5036C88.0241 71.8471 85.0748 71.9266 83.559 70.2259C82.9033 69.4934 82.6137 68.5224 81.8133 67.9119C79.9455 66.4923 76.7322 67.946 74.6743 66.745C72.8775 65.6973 72.9938 63.2669 71.4951 61.9183C69.9963 60.5696 67.399 60.7457 65.3638 61.4186C65.0194 61.5768 64.6334 61.6206 64.2624 61.5435C63.618 61.3164 63.6635 60.5157 63.8224 59.9251C64.5974 57.0717 65.3865 54.1899 66.8938 51.5664C67.4416 50.6096 68.0888 49.6868 68.4408 48.659C69.0567 46.8589 68.7417 44.8232 69.5507 43.1196C68.6821 43.6875 67.8475 44.3064 67.311 45.1071C66.1018 46.91 66.5702 49.2041 65.8917 51.2058C65.5398 52.2336 64.8926 53.1564 64.3447 54.1132C62.8374 56.7367 62.0483 59.6185 61.2734 62.4719C61.1144 63.0625 61.069 63.8632 61.7134 64.0903C62.0844 64.1674 62.4704 64.1236 62.8147 63.9654C64.85 63.2925 67.4359 63.0994 68.946 64.4651C70.4562 65.8308 70.3284 68.2527 72.1252 69.2918C74.1832 70.4928 77.3965 69.042 79.2642 70.4587C80.0647 71.0663 80.3542 72.0402 81.01 72.7727C82.5371 74.4763 85.475 74.3939 87.919 74.0504C89.3213 73.8516 91.0415 73.7182 91.893 74.7034C92.3018 75.1691 92.4182 75.8079 92.8922 76.2281C93.7438 76.989 95.3022 76.6029 96.1339 75.8221C96.6671 75.2666 97.1235 74.6421 97.4907 73.9652C96.7527 74.1895 95.9664 74.1554 95.4412 73.6813Z" fill="black"/>
<path opacity="0.1" d="M100.613 70.558C100.43 70.7935 100.261 71.039 100.105 71.2934C101.195 70.5154 102.35 69.7886 103.165 68.7977C103.376 68.5412 103.566 68.2677 103.733 67.98C102.6 68.792 101.419 69.5387 100.613 70.558Z" fill="black"/>
</g>
<path d="M157.961 126.781L158.812 208.267L162.786 207.699L161.935 126.781H157.961Z" fill="#3F3D56"/>
<path d="M181.805 141.545L182.656 223.031L186.63 222.463L185.779 141.545H181.805Z" fill="#3F3D56"/>
<path d="M256.042 182.709L256.025 181.144V180.213L255.874 165.88L255.639 143.473L255.599 141.54H251.625L251.645 143.402L251.77 155.404L251.824 160.599L251.869 164.807L251.943 172.081L251.988 176.371V176.826L252.048 182.464L252.099 187.436L252.423 187.078C252.943 186.497 253.452 185.907 253.95 185.307L256.042 182.709Z" fill="#3F3D56"/>
<path d="M177.405 154.747L175.134 158.143L177.405 173.614L196.707 178.898H227.931L246.666 180.031L255.59 173.92L254.046 163.427L247.234 154.747H177.405Z" fill="#6C63FF"/>
<path d="M175.134 158.143L173.999 167.575C173.999 167.575 168.038 186.067 216.009 184.934C263.981 183.801 255.749 180.028 255.749 180.028L255.466 169.086C255.466 169.086 257.137 174.264 232.757 173.563C208.377 172.862 185.637 170.596 185.637 170.596C185.637 170.596 177.121 172.104 175.134 158.143Z" fill="#3F3D56"/>
<path d="M215.101 73.6019C212.365 74.8483 210.292 77.2645 208.904 79.9362C207.516 82.608 206.736 85.5409 205.966 88.454C205.155 91.526 204.34 94.6066 203.92 97.7553C203.17 103.354 203.732 109.24 206.304 114.268C208.876 119.297 213.628 123.354 219.191 124.322C221.34 124.7 223.548 124.623 225.72 124.399C229.645 123.983 233.511 123.131 237.247 121.858C241.15 120.537 245.212 118.505 246.95 114.76C247.957 112.588 248.042 110.112 247.994 107.721C247.86 101.205 246.876 94.7349 245.068 88.4738C244.543 86.6567 243.932 84.8254 242.82 83.2951C241.707 81.7647 240.185 80.6432 238.633 79.604C231.993 75.1322 223.267 69.8881 215.101 73.6019Z" fill="#FBBEBE"/>
<path opacity="0.05" d="M215.101 73.6019C212.365 74.8483 210.292 77.2645 208.904 79.9362C207.516 82.608 206.736 85.5409 205.966 88.454C205.155 91.526 204.34 94.6066 203.92 97.7553C203.17 103.354 203.732 109.24 206.304 114.268C208.876 119.297 213.628 123.354 219.191 124.322C221.34 124.7 223.548 124.623 225.72 124.399C229.645 123.983 233.511 123.131 237.247 121.858C241.15 120.537 245.212 118.505 246.95 114.76C247.957 112.588 248.042 110.112 247.994 107.721C247.86 101.205 246.876 94.7349 245.068 88.4738C244.543 86.6567 243.932 84.8254 242.82 83.2951C241.707 81.7647 240.185 80.6432 238.633 79.604C231.993 75.1322 223.267 69.8881 215.101 73.6019Z" fill="black"/>
<path d="M212.027 109.339C212.819 110.428 213.777 111.386 214.865 112.179C217.568 114.047 221.036 114.299 224.318 114.402C226.952 114.481 229.972 114.331 231.624 112.275C232.368 111.35 232.703 110.168 233.004 109.018C234.861 101.958 236.18 94.7659 236.949 87.5055L244.466 87.5311C247.719 101.463 247.452 115.946 247.168 130.253L246.757 151.116L241.914 150.602C230.415 149.384 218.899 148.166 207.337 147.956C200.563 147.831 193.787 148.055 187.036 148.626L197.581 117.264C198.949 113.187 200.332 109.055 200.653 104.771C201.115 98.5559 199.372 91.9944 201.788 86.2449C201.981 85.7821 202.225 85.3023 202.665 85.0609C203.105 84.8196 203.661 84.8792 204.167 84.9445C205.121 85.0723 208.036 84.9445 208.728 85.555C209.75 86.4408 209.075 86.5742 208.714 88.0024C208.07 90.5577 207.459 92.9228 207.468 95.586C207.477 100.421 208.975 105.526 212.027 109.339Z" fill="#6C63FF"/>
<path d="M256.042 182.708C257.308 181.027 258.501 179.287 259.621 177.487C259.053 176.272 258.429 175.085 257.932 173.844C257.171 171.942 256.734 169.926 256.303 167.924C256.155 167.243 256.009 166.561 255.863 165.88C254.273 158.467 252.78 150.948 252.471 143.433C252.442 142.808 252.424 142.184 252.417 141.559C252.417 141.468 252.417 141.38 252.417 141.275C252.417 140.591 252.417 139.907 252.417 139.225C252.451 137.522 252.559 135.804 252.755 134.095C252.791 133.76 252.834 133.425 252.879 133.09C252.879 133.016 252.897 132.945 252.908 132.871L272.21 132.167L273.834 132.107C274.949 132.067 276.13 132.005 277.05 131.372C278.597 130.31 278.779 128.132 278.753 126.261C278.659 121.532 278.123 116.822 277.152 112.193C276.42 108.712 275.375 105.154 273.03 102.48C271.106 100.282 268.318 98.6836 267.316 95.9494C266.945 94.933 266.851 93.8172 266.368 92.8461C265.886 91.8751 265.088 91.1625 264.336 90.4129C261.689 87.789 259.492 84.7461 257.836 81.4068C256.686 79.09 255.44 76.5347 253.938 74.9333C253.864 74.851 253.791 74.7743 253.714 74.7005C252.437 73.437 250.975 72.8834 249.243 73.7437C248.932 73.9 248.635 74.0843 248.358 74.2945C247.741 74.7661 247.176 75.303 246.674 75.8958C244.925 77.9074 243.391 80.096 242.096 82.4261C241.185 84.0666 240.403 85.7753 239.757 87.5367C239.247 88.9284 238.825 90.3508 238.494 91.7956C238.249 92.866 238.056 93.9478 237.903 95.0324C237.335 99.1095 237.335 103.266 237.415 107.394C237.5 111.188 237.668 114.989 238.011 118.768C238.096 119.683 238.191 120.596 238.295 121.508C238.503 123.312 238.76 125.11 239.067 126.903C239.189 127.587 239.314 128.271 239.453 128.953C239.487 129.135 239.524 129.316 239.561 129.495L239.578 129.572C239.953 131.156 240.244 132.758 240.449 134.373C240.472 134.575 240.489 134.777 240.5 134.978C240.548 135.906 240.541 136.836 240.478 137.763C240.412 138.859 240.31 139.952 240.259 141.048C240.259 141.241 240.259 141.431 240.239 141.616C240.225 142.17 240.239 142.723 240.239 143.277C240.297 144.601 240.454 145.92 240.711 147.221C241.189 149.64 242.016 151.978 243.166 154.16C243.274 154.364 243.384 154.566 243.495 154.764C244.934 157.337 246.751 159.696 248.082 162.328C249.231 164.697 250.088 167.195 250.637 169.77C250.826 170.62 251.006 171.471 251.176 172.325C251.44 173.688 251.676 175.062 251.917 176.436C251.94 176.573 251.965 176.72 251.991 176.845C252.312 178.668 252.65 180.482 253.084 182.263C253.336 183.299 253.62 184.321 253.952 185.326L256.042 182.708Z" fill="#464353"/>
<path d="M252.249 160.329C252.249 160.585 252.232 160.84 252.221 161.099C252.17 162.345 252.056 163.587 251.878 164.821C251.642 166.505 251.23 168.16 250.648 169.758C250.263 170.809 249.772 171.819 249.184 172.771C248.662 173.617 248.051 174.404 247.361 175.119C245.658 176.891 243.206 177.456 240.833 178.202C239.741 178.519 238.686 178.95 237.685 179.489C237.506 179.588 237.33 179.696 237.16 179.809L234.19 181.777C233.265 182.387 232.32 183.021 231.684 183.926C231.58 184.08 231.485 184.241 231.4 184.406C230.998 185.24 230.705 186.121 230.526 187.03C228.982 193.463 227.435 199.903 226.376 206.433C226.305 206.865 226.237 207.299 226.163 207.733L226.137 207.87C226.125 207.837 226.109 207.806 226.092 207.776C218.496 212.37 210.619 216.515 202.504 219.834L200.741 205.07C200.557 203.87 200.496 202.654 200.559 201.442C200.727 199.531 201.504 197.719 201.714 195.814C201.913 193.949 201.561 192.067 200.701 190.4C200.366 189.752 199.946 189.116 199.869 188.392C199.793 187.668 200.21 187.007 200.937 186.933C201.504 186.303 201.55 185.442 201.382 184.591C201.293 184.146 201.16 183.711 200.985 183.293C200.502 182.106 199.892 180.814 200.306 179.602C200.416 179.382 200.465 179.137 200.448 178.892C200.451 178.877 200.451 178.862 200.448 178.847C200.352 178.529 199.974 178.39 199.778 178.12C199.409 177.617 199.778 176.933 200.006 176.354C200.226 175.732 200.355 175.08 200.386 174.42C200.417 174.054 200.44 173.685 200.48 173.322C200.535 172.83 200.623 172.342 200.744 171.862C201.433 169.142 203.092 166.768 205.407 165.184C206.512 164.441 207.741 163.898 208.868 163.197C210.022 162.419 211.124 161.565 212.166 160.642C214.666 158.56 217.265 156.597 219.964 154.753C222.865 152.771 225.871 150.945 228.967 149.285C229.63 148.927 230.292 148.579 230.954 148.24C231.675 147.861 232.401 147.503 233.132 147.164C235.471 146.048 238.125 146.465 240.711 147.209C241.795 147.519 242.865 147.888 243.898 148.223C244.907 148.551 245.878 148.987 246.794 149.523C249.084 150.869 250.978 152.856 251.764 155.366C251.765 155.382 251.765 155.399 251.764 155.415C252.264 156.988 252.295 158.674 252.249 160.329Z" fill="#F86D70"/>
<path opacity="0.1" d="M252.249 160.329C252.249 160.585 252.232 160.84 252.221 161.099C252.17 162.345 252.056 163.587 251.878 164.821C251.642 166.505 251.23 168.16 250.648 169.758C250.263 170.809 249.772 171.819 249.184 172.771C248.662 173.617 248.051 174.404 247.361 175.119C245.658 176.891 243.206 177.456 240.833 178.202C239.741 178.519 238.686 178.95 237.685 179.489C237.506 179.588 237.33 179.696 237.16 179.809L234.19 181.777C233.265 182.387 232.32 183.021 231.684 183.926C231.58 184.08 231.485 184.241 231.4 184.406C230.998 185.24 230.705 186.121 230.526 187.03C228.982 193.463 227.435 199.903 226.376 206.433C226.305 206.865 226.237 207.299 226.163 207.733L226.137 207.87C226.125 207.837 226.109 207.806 226.092 207.776C218.496 212.37 210.619 216.515 202.504 219.834L200.741 205.07C200.557 203.87 200.496 202.654 200.559 201.442C200.727 199.531 201.504 197.719 201.714 195.814C201.913 193.949 201.561 192.067 200.701 190.4C200.366 189.752 199.946 189.116 199.869 188.392C199.793 187.668 200.21 187.007 200.937 186.933C201.504 186.303 201.55 185.442 201.382 184.591C201.293 184.146 201.16 183.711 200.985 183.293C200.502 182.106 199.892 180.814 200.306 179.602C200.416 179.382 200.465 179.137 200.448 178.892C200.451 178.877 200.451 178.862 200.448 178.847C200.352 178.529 199.974 178.39 199.778 178.12C199.409 177.617 199.778 176.933 200.006 176.354C200.226 175.732 200.355 175.08 200.386 174.42C200.417 174.054 200.44 173.685 200.48 173.322C200.535 172.83 200.623 172.342 200.744 171.862C201.433 169.142 203.092 166.768 205.407 165.184C206.512 164.441 207.741 163.898 208.868 163.197C210.022 162.419 211.124 161.565 212.166 160.642C214.666 158.56 217.265 156.597 219.964 154.753C222.865 152.771 225.871 150.945 228.967 149.285C229.63 148.927 230.292 148.579 230.954 148.24C231.675 147.861 232.401 147.503 233.132 147.164C235.471 146.048 238.125 146.465 240.711 147.209C241.795 147.519 242.865 147.888 243.898 148.223C244.907 148.551 245.878 148.987 246.794 149.523C249.084 150.869 250.978 152.856 251.764 155.366C251.765 155.382 251.765 155.399 251.764 155.415C252.264 156.988 252.295 158.674 252.249 160.329Z" fill="black"/>
<path d="M225.297 113.3C225.268 113.234 225.227 113.175 225.174 113.125C225.122 113.076 225.06 113.038 224.993 113.013C224.925 112.988 224.854 112.977 224.782 112.98C224.71 112.984 224.64 113.002 224.575 113.033C224.51 113.064 224.453 113.109 224.405 113.163C224.358 113.217 224.322 113.28 224.3 113.349C224.278 113.417 224.27 113.489 224.276 113.561C224.283 113.633 224.304 113.702 224.338 113.766L224.054 113.905L232.518 131.258L234.048 130.512L225.584 113.147L225.297 113.3Z" fill="#3F3D56"/>
<path d="M235.879 95.1236C245.913 95.1236 254.046 86.9881 254.046 76.9524C254.046 66.9168 245.913 58.7812 235.879 58.7812C225.846 58.7812 217.713 66.9168 217.713 76.9524C217.713 86.9881 225.846 95.1236 235.879 95.1236Z" fill="#FBBEBE"/>
<path d="M259.857 65.7031C259.772 64.2586 259.557 62.8247 259.215 61.4187C258.148 56.8276 256.198 52.3075 252.84 49.0112C252.633 48.2052 252.386 47.4102 252.099 46.629C252.094 46.6097 252.087 46.5907 252.079 46.5723C251.077 43.8204 249.629 41.2525 247.793 38.9716C246.728 37.6485 245.349 36.3424 243.651 36.2913C243.174 36.2743 242.669 36.3566 242.232 36.138C241.911 35.9301 241.64 35.6526 241.44 35.326C240.6 34.2635 239.485 33.4509 238.216 32.976C236.947 32.5012 235.573 32.3821 234.242 32.6316L234.066 32.6685C233.966 32.6883 233.867 32.711 233.782 32.7366C233.697 32.7622 233.543 32.8047 233.424 32.8417C233.555 33.0574 233.682 33.2761 233.807 33.4975C234.144 34.0976 234.456 34.7108 234.744 35.3374C234.982 35.8598 235.203 36.3907 235.405 36.9302C232.499 37.2624 230.131 39.3265 227.968 41.2913L222.876 45.9136C222.867 45.9213 222.858 45.9299 222.85 45.9391L222.703 46.0811C222.666 46.118 222.629 46.1549 222.595 46.1946C222.581 46.2065 222.569 46.2198 222.558 46.2344C222.515 46.2798 222.476 46.3281 222.436 46.3764C222.365 46.4658 222.301 46.5607 222.246 46.6603C222.218 46.7029 222.193 46.7475 222.172 46.7937C222.164 46.8073 222.157 46.8216 222.152 46.8363C222.134 46.875 222.117 46.9149 222.104 46.9556C222.103 46.9612 222.103 46.967 222.104 46.9726C222.096 46.9959 222.089 47.0196 222.084 47.0436C222.026 47.2434 222.043 47.4575 222.132 47.6455L225.49 47.6824H225.885C225.902 48.131 225.916 48.5824 225.933 49.031C225.4 49.43 224.889 49.8564 224.4 50.3087C223.868 50.8017 223.368 51.3291 222.904 51.8873C219.876 55.5471 218.294 60.2745 218.135 65.033C218.135 65.1807 218.135 65.317 218.135 65.4703C218.135 65.9047 218.135 66.3391 218.135 66.7707C218.135 67.0546 218.161 67.3385 218.184 67.6224C218.185 67.9923 218.283 68.3553 218.468 68.6758C218.492 68.7116 218.518 68.7457 218.547 68.778C218.717 68.9629 218.922 69.1133 219.149 69.2209L219.393 69.3402C219.515 69.3998 219.631 69.4566 219.745 69.5219C220.815 70.1267 221.448 71.2936 222.422 72.0432C222.479 72.0857 222.535 72.1283 222.592 72.1652L222.72 72.2504L222.799 72.3015L222.907 72.364C222.978 72.4067 223.051 72.4455 223.126 72.4804L223.262 72.5485H223.285C223.398 72.5996 223.512 72.6479 223.628 72.6905L223.79 72.7473L223.838 72.7643C223.884 72.7785 223.932 72.7956 223.98 72.8069C224.077 72.8353 224.171 72.8609 224.264 72.8836L224.548 72.946C224.659 72.9659 224.772 72.9858 224.886 73L225.053 73.0227L225.223 73.0397C225.494 73.0643 225.767 73.0785 226.041 73.0823C226.902 73.077 227.762 73.0173 228.615 72.9034L235.86 72.0517C237.503 71.8614 239.181 71.6712 240.801 72.0062C242.175 72.2902 243.441 72.9432 244.775 73.406C245.076 73.511 245.377 73.6076 245.681 73.6899C245.792 73.7211 245.905 73.7552 246.019 73.7836L246.175 73.8234L246.538 73.9114C246.669 73.9426 246.799 73.9738 246.93 73.9994C247.114 74.0391 247.296 74.0732 247.481 74.1073C247.606 74.1328 247.733 74.1527 247.861 74.1754H247.887L248.25 74.2322H248.338L248.608 74.2691C248.738 74.289 248.869 74.306 249.002 74.3202C249.292 74.3562 249.581 74.3874 249.871 74.4139C250.339 74.4593 250.81 74.4934 251.29 74.5218L251.761 74.5502L252.232 74.5729L253.652 74.6354H253.714H253.913C254.503 74.6765 255.096 74.646 255.678 74.5445C255.781 74.5247 255.88 74.5019 255.979 74.4735C256.079 74.4452 256.161 74.4168 256.263 74.3827C257.328 73.9738 258.105 73.034 258.645 72.0289C258.758 71.816 258.863 71.6031 258.96 71.3844C259.056 71.1658 259.144 70.9444 259.224 70.7229C259.323 70.439 259.408 70.1692 259.482 69.8853C259.505 69.8087 259.525 69.732 259.542 69.6525C259.559 69.573 259.598 69.4168 259.621 69.2976C259.692 68.9711 259.746 68.6417 259.786 68.3095C259.786 68.2045 259.811 68.0966 259.823 67.9915C259.848 67.7076 259.868 67.4436 259.879 67.1653C259.879 66.9552 259.879 66.7423 259.879 66.5293C259.877 66.2993 259.857 65.9955 259.857 65.7031ZM252.579 48.7528C252.349 48.537 252.113 48.3298 251.875 48.1338C252.14 48.3013 252.377 48.5103 252.576 48.7528H252.579Z" fill="#464353"/>
<path d="M201.013 75.9527C198.876 75.6886 196.755 74.7517 194.646 75.2116C193.326 75.4955 192.191 76.3161 191.135 77.1593C187.205 80.3097 183.864 84.1306 181.265 88.4453C180.825 89.0905 180.515 89.8159 180.354 90.5805C180.218 91.4663 180.459 92.3663 180.746 93.2153C182.687 98.9534 186.84 103.746 188.731 109.501C190.718 115.554 190.028 122.17 188.563 128.371C186.748 136.026 183.797 143.366 179.809 150.148C179.268 151.156 178.589 152.085 177.794 152.908C176.76 153.901 175.372 154.611 174.759 155.912C174.475 156.479 174.393 157.127 174.192 157.734C173.624 159.438 172.25 160.897 172.117 162.694C172.017 164.066 172.667 165.363 173.062 166.669C173.727 168.913 173.657 171.311 172.86 173.512C171.421 177.459 167.657 181.047 168.75 185.105C171.188 184.403 173.891 183.492 175.04 181.229C175.446 180.428 175.648 179.474 176.332 178.89C177.697 177.728 180.022 178.779 181.472 177.711C182.568 176.899 182.608 175.235 182.12 173.958C181.631 172.68 180.791 171.556 180.417 170.241C179.764 167.87 180.808 165.363 180.615 162.913C180.524 161.777 180.175 160.69 180.15 159.56C180.101 157.365 181.316 155.301 182.932 153.81C184.547 152.32 186.542 151.332 188.506 150.358L195.932 146.667C198.626 145.332 201.578 143.706 202.461 140.832C202.796 139.756 202.799 138.609 202.816 137.485C203.068 120.305 207.372 103.471 211.649 86.8298C212.314 84.2518 212.989 81.6624 213.977 79.1866C214.965 76.7107 216.898 74.7233 217.883 72.4235C212.169 71.7534 206.949 76.6965 201.013 75.9527Z" fill="#464353"/>
<path d="M241.948 183.733C242.604 187.708 243.004 191.768 243.317 195.808C238.207 200.045 232.706 203.73 227.117 207.148C226.799 207.344 226.478 207.537 226.157 207.716L226.132 207.852C226.119 207.82 226.104 207.789 226.086 207.759C225.653 206.822 224.894 206.073 223.952 205.652C221.857 201.251 219.764 196.85 217.673 192.45C216.537 190.073 215.402 187.674 214.834 185.11C214.834 185.056 214.809 184.999 214.8 184.945C214.369 182.958 214.269 180.894 213.983 178.881C213.838 177.728 213.578 176.592 213.208 175.491C212.867 174.511 212.399 173.56 211.984 172.603C211.473 171.422 211.045 170.227 211.025 168.952C211.025 168.546 211.051 168.1 210.852 167.759C210.639 167.466 210.377 167.212 210.077 167.01C209.702 166.678 209.418 166.255 209.251 165.783C209.084 165.311 209.04 164.804 209.123 164.31C207.42 164.398 206.461 166.229 205.776 167.782C205.155 169.301 204.338 170.733 203.347 172.041C202.624 172.976 201.706 173.74 200.656 174.281C200.562 174.327 200.468 174.372 200.372 174.412C198.002 175.457 195.234 175.088 192.665 174.616C190.42 174.205 188.098 173.694 186.293 172.297L186.1 172.143C185.565 171.699 185.088 171.19 184.68 170.627C183.167 168.56 182.497 165.837 182.126 163.245C182.091 163.001 182.057 162.757 182.026 162.513C181.768 160.681 181.697 158.828 181.813 156.982C181.847 156.527 181.896 156.073 181.955 155.622C181.995 155.338 182.038 155.031 182.086 154.736C182.084 154.727 182.084 154.719 182.086 154.71C182.16 154.242 182.239 153.771 182.319 153.291C182.602 151.681 182.886 150.028 183.738 148.643C184.298 147.781 185.005 147.023 185.827 146.406C186.134 146.164 186.449 145.934 186.767 145.713C187.283 145.355 187.814 145.014 188.353 144.693C189.71 143.881 191.135 143.188 192.611 142.621C192.963 142.485 193.321 142.357 193.678 142.235C195.069 141.74 196.565 141.622 198.016 141.891C199.301 142.077 200.6 142.153 201.899 142.118C205.229 142.053 208.572 141.417 211.896 141.005C216.512 140.437 221.471 140.369 225.496 142.709C225.689 142.82 225.876 142.936 226.064 143.058C228.051 144.358 229.652 146.181 230.943 148.217C231.227 148.646 231.474 149.086 231.718 149.532C232.281 150.555 232.79 151.607 233.242 152.683C233.51 153.212 233.655 153.794 233.665 154.387C233.659 154.499 233.644 154.611 233.62 154.722C233.543 155.125 233.39 155.517 233.336 155.926C233.157 157.473 234.472 158.765 234.963 160.238C235.281 161.198 235.246 162.226 235.425 163.237C235.684 164.656 236.379 165.934 237.004 167.212C237.99 169.268 238.834 171.39 239.53 173.563C240.024 175.076 240.447 176.612 240.819 178.162C240.94 178.66 241.054 179.159 241.162 179.659C241.471 181.033 241.724 182.379 241.948 183.733Z" fill="#F86D70"/>
<path d="M272.213 141.687V143.675L271.847 143.669L271.438 143.663L266.874 143.606L255.627 143.459L252.471 143.419L251.653 143.408L246.916 143.348L240.239 143.26L226.075 143.076L201.496 142.758L192.625 142.644L189.066 142.599L185.79 142.556L183.749 142.528L181.816 142.502L167.484 142.317L163.51 142.266L162.644 142.255L162.082 140.804L157.998 130.268L157.251 128.343L157.819 126.071L160.373 127.775L161.946 127.971L187.837 131.19L192.696 131.795L203 133.079L213.094 134.333L217.051 134.825L240.466 137.738L247.009 138.553L252.425 139.226L271.682 141.622L272.213 141.687Z" fill="#3F3D56"/>
<path d="M157.819 126.071L162.928 139.416L272.213 141.687V127.207L157.819 126.071Z" fill="#504F60"/>
<path d="M163.496 140.835L164.347 222.322L168.321 221.754L167.47 140.835H163.496Z" fill="#3F3D56"/>
<path d="M271.847 143.666H271.438C270.776 148.746 269.681 153.76 268.165 158.654L266.874 143.606L266.82 142.964L271.594 142.414L271.753 142.396L271.847 143.666Z" fill="#3F3D56"/>
<path d="M256.317 134.021L214.732 134.873L201.817 130.614L236.447 128.626L256.317 134.021Z" fill="white"/>
<path d="M204.153 117.462C203.712 117.632 203.321 117.91 203.017 118.272C202.78 118.663 202.635 119.104 202.594 119.561L201.896 123.726C201.789 124.107 201.808 124.512 201.95 124.881C202.132 125.231 202.66 125.412 202.923 125.123C202.889 125.938 202.96 126.806 203.434 127.471C203.908 128.135 204.902 128.484 205.572 128.022C205.677 128.193 205.818 128.339 205.985 128.45C206.152 128.562 206.342 128.635 206.54 128.666C206.739 128.697 206.941 128.684 207.135 128.629C207.328 128.573 207.506 128.477 207.658 128.345C207.255 128.482 207.227 129.098 207.513 129.41C207.834 129.693 208.244 129.857 208.672 129.873C213.66 130.576 218.745 129.936 223.404 128.019C223.844 127.837 222.686 122.411 222.569 121.855C222.285 120.546 222.143 118.947 221.039 118.067C218.399 115.96 213.71 115.546 210.494 115.796C208.297 115.962 206.148 116.527 204.153 117.462Z" fill="#FBBEBE"/>
<path opacity="0.1" d="M246.464 118.093C236.197 118.289 225.717 118.456 215.919 115.381C216.855 119.009 216.79 122.823 215.731 126.418L263.737 130.393C265.772 130.56 274.211 131.514 276.196 131.034C278.18 130.554 259.547 124.416 260.3 122.516C262.369 117.284 269.301 114.217 264.308 114.021C258.006 113.772 252.814 117.974 246.464 118.093Z" fill="black"/>
<path d="M246.748 118.661C236.481 118.857 226.001 119.024 216.202 115.949C217.138 119.577 217.074 123.391 216.015 126.986L264.021 130.96C266.056 131.128 274.495 132.096 276.479 131.602C278.464 131.108 277.998 128.675 278.75 126.775C280.82 121.543 269.584 114.785 264.591 114.589C258.29 114.339 253.098 118.542 246.748 118.661Z" fill="#464353"/>
<path d="M230.424 119.45C230.865 119.619 231.255 119.897 231.559 120.259C231.796 120.651 231.942 121.092 231.985 121.548L232.683 125.713C232.788 126.094 232.769 126.499 232.629 126.869C232.447 127.218 231.917 127.4 231.656 127.11C231.687 127.925 231.619 128.794 231.145 129.458C230.671 130.122 229.677 130.472 229.004 130.009C228.899 130.18 228.758 130.326 228.591 130.438C228.424 130.549 228.234 130.623 228.036 130.653C227.838 130.684 227.635 130.671 227.442 130.616C227.249 130.561 227.07 130.464 226.918 130.333C227.321 130.469 227.352 131.085 227.066 131.397C226.743 131.681 226.333 131.844 225.905 131.86C220.917 132.563 215.833 131.923 211.175 130.006C210.735 129.824 211.891 124.399 212.01 123.842C212.294 122.533 212.436 120.935 213.54 120.054C216.177 117.948 220.869 117.533 224.085 117.783C226.281 117.95 228.429 118.514 230.424 119.45Z" fill="#FBBEBE"/>
<path d="M162.582 110.407C161.639 111.622 160.694 112.863 160.087 114.28C158.926 116.983 159.096 120.043 159.289 122.979C159.343 123.831 159.411 124.7 159.857 125.407C160.242 125.941 160.75 126.374 161.338 126.67C163.797 128.067 166.675 128.484 169.485 128.797C173.788 129.274 178.107 129.564 182.44 129.668C193.176 129.93 204.076 129.052 214.533 131.485C213.239 129.518 213.242 126.914 213.966 124.671C214.689 122.428 216.083 120.475 217.448 118.553C212.663 117.037 207.531 119.404 202.518 119.169C197.371 118.927 192.608 115.952 187.456 115.955C186.349 115.955 185.222 116.094 184.146 115.827C183.071 115.56 182.029 114.748 181.929 113.644C183.303 113.953 184.606 112.778 185.174 111.489C185.742 110.2 185.844 108.743 186.395 107.446C187.766 104.217 191.47 102.721 193.775 100.064C194.138 99.6433 194.482 99.1464 194.47 98.59C194.416 98.1186 194.218 97.6753 193.903 97.3208C191.987 94.7655 189.1 93.3459 186.701 91.3584C185.867 90.6656 184.183 88.0535 183.247 87.8122C181.509 87.3664 180.036 89.8763 178.906 91.1C173.203 97.299 167.761 103.735 162.582 110.407Z" fill="#464353"/>
<path opacity="0.07" d="M219.66 109.686C220.379 110.22 221.019 110.854 221.559 111.568C221.828 111.927 222.019 112.338 222.122 112.775C222.224 113.212 222.234 113.666 222.152 114.107C222.064 113.284 222.247 112.455 222.674 111.746C223.101 111.037 223.748 110.487 224.516 110.18L219.66 109.686Z" fill="black"/>
<g opacity="0.1">
<path opacity="0.1" d="M235.402 35.2293C235.069 34.3419 234.684 33.4744 234.25 32.6313C233.97 32.6853 233.693 32.7564 233.421 32.8443C233.908 33.6534 234.347 34.4905 234.735 35.3514C234.954 35.2946 235.175 35.2548 235.402 35.2293Z" fill="black"/>
<path opacity="0.1" d="M251.872 46.4243C251.949 46.4871 252.023 46.5583 252.097 46.6239C252.092 46.6054 252.085 46.5873 252.077 46.5697C252.012 46.5222 251.944 46.4737 251.872 46.4243Z" fill="black"/>
<path opacity="0.1" d="M225.485 47.6738C225.632 47.5574 225.768 47.4353 225.927 47.3218L225.882 45.9731L222.85 45.9419C222.359 46.3933 221.837 47.0407 222.127 47.6454L225.485 47.6738Z" fill="black"/>
<path opacity="0.1" d="M258.628 70.3762C258.088 71.3813 257.311 72.3239 256.246 72.7299C255.426 73.0422 254.523 73.0138 253.646 72.9741C250.654 72.852 247.611 72.7185 244.784 71.7276C243.461 71.262 242.195 70.6118 240.81 70.3251C239.189 69.99 237.512 70.1803 235.868 70.3733L228.624 71.2251C226.486 71.475 224.105 71.6623 222.399 70.3506C221.422 69.601 220.792 68.4341 219.722 67.8322C219.271 67.5767 218.734 67.412 218.442 66.9804C218.257 66.66 218.16 66.2969 218.158 65.9271C218.135 65.629 218.121 65.3308 218.11 65.0327C218.079 65.8989 218.095 66.7662 218.158 67.6306C218.16 68.0005 218.257 68.3635 218.442 68.684C218.726 69.1127 219.271 69.2774 219.722 69.5357C220.792 70.1377 221.425 71.3046 222.399 72.0542C224.102 73.3659 226.486 73.1899 228.624 72.9286L235.868 72.0769C237.512 71.8838 239.189 71.6936 240.81 72.0286C242.184 72.3125 243.45 72.9656 244.784 73.4312C247.623 74.4221 250.654 74.5669 253.646 74.6776C254.523 74.7145 255.426 74.7458 256.246 74.4334C257.311 74.0274 258.088 73.0848 258.628 72.0797C259.672 70.1348 259.965 67.9287 259.854 65.7056C259.793 67.3337 259.374 68.9283 258.628 70.3762Z" fill="black"/>
</g>
<path opacity="0.1" d="M235.32 37.0552L239.294 40.7462C239.294 40.7462 235.888 39.3266 235.32 37.0552Z" fill="black"/>
</g>
<defs>
<clipPath id="clip0_18_362">
<rect width="279" height="228" fill="white"/>
</clipPath>
</defs>
</svg>
