<svg width="328" height="209" viewBox="0 0 328 209" fill="none" xmlns="http://www.w3.org/2000/svg">
<g clip-path="url(#clip0_18_260)">
<path d="M262.704 156.487H14.244V157.369H262.704V156.487Z" fill="#3F3D56"/>
<path d="M284.653 0H0V138.669H284.653V0Z" fill="#3F3D56"/>
<path opacity="0.1" d="M284.653 10.6669V6.85728H275.901V0H272.095V6.85728H12.5582V0H8.75271V6.85728H0V10.6669H8.75271V128.003H0V131.812H8.75271V138.669H12.5582V131.812H272.095V138.669H275.901V131.812H284.653V128.003H275.901V10.6669H284.653ZM272.095 128.003H12.5582V10.6669H272.095L272.095 128.003Z" fill="black"/>
<path d="M170.699 18.2861H125.816V61.0258H170.699V18.2861Z" fill="#D0CDE1"/>
<path d="M165.598 23.3916H130.916V49.9417H165.598V23.3916Z" fill="#F9A826"/>
<path d="M150.707 27.7549H138.548V39.9266H150.707V27.7549Z" fill="#F2F2F2"/>
<path d="M143.203 30.7988V45.5788H157.967V30.7988H143.203ZM157.326 44.9377H143.843V31.4399H157.326V44.9377Z" fill="#3F3D56"/>
<path d="M149.747 52.5771H130.882V53.5711H149.747V52.5771Z" fill="#F2F2F2"/>
<path d="M148.257 22.759C149.354 22.759 150.243 21.869 150.243 20.7711C150.243 19.6732 149.354 18.7832 148.257 18.7832C147.161 18.7832 146.272 19.6732 146.272 20.7711C146.272 21.869 147.161 22.759 148.257 22.759Z" fill="#3F3D56"/>
<path d="M187.626 79.9292H142.743V122.669H187.626V79.9292Z" fill="#D0CDE1"/>
<path d="M182.526 85.0356H147.844V111.586H182.526V85.0356Z" fill="#F9A826"/>
<path d="M166.674 114.718H147.809V115.712H166.674V114.718Z" fill="#F2F2F2"/>
<path d="M166.674 117.699H147.809V118.693H166.674V117.699Z" fill="#F2F2F2"/>
<path d="M154.015 102.293C156.208 102.293 157.986 100.513 157.986 98.3176C157.986 96.1218 156.208 94.3418 154.015 94.3418C151.822 94.3418 150.043 96.1218 150.043 98.3176C150.043 100.513 151.822 102.293 154.015 102.293Z" fill="#3F3D56"/>
<path d="M165.185 102.293C167.378 102.293 169.156 100.513 169.156 98.3176C169.156 96.1218 167.378 94.3418 165.185 94.3418C162.991 94.3418 161.213 96.1218 161.213 98.3176C161.213 100.513 162.991 102.293 165.185 102.293Z" fill="#F2F2F2"/>
<path d="M176.355 102.293C178.548 102.293 180.326 100.513 180.326 98.3176C180.326 96.1218 178.548 94.3418 176.355 94.3418C174.161 94.3418 172.383 96.1218 172.383 98.3176C172.383 100.513 174.161 102.293 176.355 102.293Z" fill="#FF6584"/>
<path d="M165.185 84.4021C166.282 84.4021 167.171 83.512 167.171 82.4142C167.171 81.3163 166.282 80.4263 165.185 80.4263C164.088 80.4263 163.199 81.3163 163.199 82.4142C163.199 83.512 164.088 84.4021 165.185 84.4021Z" fill="#3F3D56"/>
<path d="M118.936 66.5757H74.053V109.315H118.936V66.5757Z" fill="#D0CDE1"/>
<path d="M113.835 71.6816H79.1533V98.2317H113.835V71.6816Z" fill="#F9A826"/>
<path d="M94.185 96.4886C98.8354 96.4886 102.605 92.7146 102.605 88.0592C102.605 83.4038 98.8354 79.6299 94.185 79.6299C89.5346 79.6299 85.7647 83.4038 85.7647 88.0592C85.7647 92.7146 89.5346 96.4886 94.185 96.4886Z" fill="#F2F2F2"/>
<path d="M96.6669 94.5607C94.5789 94.5607 92.5378 93.9408 90.8017 92.7796C89.0656 91.6183 87.7125 89.9677 86.9134 88.0366C86.1144 86.1055 85.9053 83.9805 86.3127 81.9304C86.72 79.8804 87.7255 77.9973 89.2019 76.5192C90.6783 75.0412 92.5594 74.0347 94.6073 73.6269C96.6552 73.2191 98.7779 73.4284 100.707 74.2283C102.636 75.0282 104.285 76.3828 105.445 78.1207C106.605 79.8587 107.224 81.902 107.224 83.9922C107.221 86.7942 106.108 89.4805 104.128 91.4617C102.149 93.443 99.4658 94.5575 96.6669 94.5607ZM96.6669 73.8081C94.6548 73.8081 92.688 74.4054 91.015 75.5245C89.342 76.6435 88.0381 78.234 87.2681 80.095C86.4981 81.9559 86.2966 84.0035 86.6892 85.9791C87.0817 87.9546 88.0506 89.7692 89.4734 91.1935C90.8961 92.6178 92.7088 93.5877 94.6822 93.9807C96.6556 94.3736 98.7011 94.1719 100.56 93.4011C102.419 92.6303 104.008 91.325 105.126 89.6502C106.243 87.9755 106.84 86.0065 106.84 83.9922C106.837 81.2922 105.764 78.7036 103.857 76.7943C101.95 74.8851 99.3641 73.8112 96.6669 73.8081Z" fill="#3F3D56"/>
<path d="M97.9837 103.849H79.1189V104.843H97.9837V103.849Z" fill="#F2F2F2"/>
<path d="M105.43 100.867H79.1189V101.861H105.43V100.867Z" fill="#F2F2F2"/>
<path d="M96.4944 71.0481C97.5911 71.0481 98.4801 70.158 98.4801 69.0602C98.4801 67.9623 97.5911 67.0723 96.4944 67.0723C95.3977 67.0723 94.5086 67.9623 94.5086 69.0602C94.5086 70.158 95.3977 71.0481 96.4944 71.0481Z" fill="#3F3D56"/>
<path d="M69.6049 17.5244H24.722V60.264H69.6049V17.5244Z" fill="#D0CDE1"/>
<path d="M64.5046 22.6299H29.8224V49.1799H64.5046V22.6299Z" fill="#F9A826"/>
<path d="M50.894 43.4146H43.4329V45.6279H50.894V43.4146Z" fill="#3F3D56"/>
<path d="M59.9142 26.1816H34.4128V27.1302H59.9142V26.1816Z" fill="#3F3D56"/>
<path d="M59.9142 29.1855H34.4128V30.1341H59.9142V29.1855Z" fill="#3F3D56"/>
<path d="M59.9142 32.1899H34.4128V33.1385H59.9142V32.1899Z" fill="#3F3D56"/>
<path d="M59.9142 35.1934H34.4128V36.142H59.9142V35.1934Z" fill="#3F3D56"/>
<path d="M59.9142 38.1973H34.4128V39.1459H59.9142V38.1973Z" fill="#3F3D56"/>
<path d="M48.6528 51.8154H29.788V52.8094H48.6528V51.8154Z" fill="#F2F2F2"/>
<path d="M56.0994 54.3003H29.788V55.2942H56.0994V54.3003Z" fill="#F2F2F2"/>
<path d="M47.1634 21.9973C48.2601 21.9973 49.1492 21.1073 49.1492 20.0094C49.1492 18.9115 48.2601 18.0215 47.1634 18.0215C46.0667 18.0215 45.1777 18.9115 45.1777 20.0094C45.1777 21.1073 46.0667 21.9973 47.1634 21.9973Z" fill="#3F3D56"/>
<path d="M207.129 45.4446L239.634 47.8354L248.826 48.5115L248.255 47.9401L249.982 72.938L250.845 85.437C250.88 85.942 250.916 86.447 250.949 86.952C250.978 87.3719 251.093 87.7765 250.596 87.8801C249.608 88.0862 248.58 88.172 247.579 88.2984C245.545 88.5554 243.506 88.7717 241.462 88.9472C233.286 89.6499 225.066 89.7015 216.882 89.1015C214.837 88.9516 212.795 88.7608 210.757 88.5291C210 88.443 209.059 88.4107 208.782 87.5599C208.497 86.6827 208.448 85.6854 208.319 84.7753C207.744 80.7201 207.352 76.6443 207.144 72.5476C206.719 64.3829 207.008 56.1967 208.007 48.0825C208.13 47.0888 208.264 46.0967 208.409 45.106C208.514 44.3866 207.414 44.076 207.308 44.8022C206.081 53.1874 205.609 61.6661 205.898 70.1359C206.045 74.3733 206.384 78.5982 206.914 82.8106C207.048 83.8746 207.194 84.937 207.351 85.9979C207.476 86.842 207.507 87.8375 208.009 88.5629C208.493 89.2628 209.306 89.4873 210.106 89.5939C211.123 89.7297 212.146 89.8269 213.167 89.9267C221.645 90.7541 230.176 90.8805 238.674 90.3044C240.813 90.1593 242.948 89.9699 245.08 89.7362C246.13 89.6209 247.179 89.4949 248.226 89.3581C248.739 89.2912 249.251 89.2219 249.763 89.1504C250.241 89.1164 250.715 89.0339 251.176 88.9041C252.138 88.557 252.138 87.6282 252.078 86.7626L251.856 83.5432L251.411 77.1043L249.619 51.1595L249.397 47.9401C249.393 47.7898 249.331 47.6469 249.225 47.5407C249.119 47.4344 248.976 47.3728 248.826 47.3686L216.321 44.9778L207.129 44.3017C206.396 44.2477 206.399 45.3909 207.129 45.4445V45.4446Z" fill="#D0CDE1"/>
<path d="M221.058 58.9372C221.223 58.501 220.81 59.4406 221.017 59.0249C221.072 58.9144 221.124 58.8027 221.182 58.6938C221.298 58.4773 221.427 58.2677 221.568 58.0662C221.708 57.8654 221.921 57.7879 221.507 58.1373C221.592 58.0493 221.673 57.9562 221.747 57.8583C221.94 57.6461 222.147 57.446 222.364 57.2591C222.521 57.1246 222.817 57.0102 222.287 57.308C222.392 57.2491 222.489 57.1609 222.589 57.0935C222.795 56.9553 223.006 56.8274 223.225 56.7098C223.334 56.651 223.444 56.5949 223.556 56.5414C223.746 56.4506 224.062 56.4193 223.464 56.5724C223.721 56.5067 223.969 56.3852 224.226 56.3123C224.444 56.2503 224.664 56.1982 224.887 56.1558C225.086 56.1183 225.448 56.1466 224.768 56.1623C224.889 56.1595 225.014 56.136 225.135 56.1278C225.381 56.111 225.626 56.1073 225.872 56.1167C225.995 56.1215 226.117 56.1337 226.239 56.141C226.646 56.1653 225.623 56.0278 226.239 56.1453C226.481 56.1912 226.719 56.2515 226.954 56.3257C227.067 56.3746 227.184 56.4156 227.303 56.4486L226.988 56.3123C227.065 56.346 227.142 56.3813 227.218 56.4181C227.444 56.5278 227.664 56.6508 227.876 56.7865C227.981 56.8541 228.082 56.9275 228.186 56.9979C228.511 57.2192 227.75 56.6255 228.211 57.0299C228.367 57.1672 228.517 57.3113 228.661 57.4623C228.747 57.5528 228.831 57.6455 228.912 57.7405C229.049 57.9002 229.154 58.192 228.869 57.6691C229.13 58.1477 229.457 58.5819 229.703 59.0753C229.913 59.4962 229.512 58.5525 229.671 58.9956C229.714 59.1151 229.761 59.2331 229.801 59.3535C229.883 59.5943 229.953 59.8385 230.012 60.0861C230.071 60.3341 230.099 60.5872 230.154 60.8354C230.004 60.1524 230.114 60.5475 230.128 60.733C230.142 60.9019 230.15 61.071 230.153 61.2405C230.156 61.4519 230.151 61.6632 230.137 61.8745C230.129 61.9982 230.102 62.1297 230.103 62.2532C230.095 61.612 230.15 61.9313 230.11 62.1467C230.064 62.3961 230.005 62.6429 229.932 62.886C229.896 63.0078 229.857 63.1285 229.814 63.2481C229.776 63.3542 229.736 63.4595 229.694 63.564C229.817 63.2779 229.827 63.2507 229.723 63.4825C229.093 64.7449 228.307 65.922 227.687 67.1888C226.149 70.3472 225.631 73.907 226.207 77.3734C226.365 77.9483 226.742 78.4385 227.256 78.7395C227.789 79.0454 228.422 79.1282 229.016 78.9699C230.303 78.5529 230.809 77.4281 230.61 76.1581C230.54 75.7108 230.647 76.557 230.601 76.1066C230.582 75.9134 230.562 75.7206 230.548 75.5268C230.521 75.1396 230.51 74.7518 230.515 74.3633C230.519 74.0306 230.535 73.6983 230.563 73.3665C230.564 73.1719 230.584 72.9779 230.623 72.7873C230.623 72.7886 230.549 73.2469 230.599 72.9831C230.62 72.8742 230.634 72.764 230.654 72.6548C230.785 71.9174 230.975 71.1916 231.221 70.4843C231.276 70.3272 231.336 70.1722 231.393 70.0162C231.546 69.6043 231.235 70.3468 231.419 69.9482C231.583 69.5926 231.753 69.2417 231.941 68.8975C232.727 67.452 233.616 66.0975 234.188 64.5427C234.625 63.3231 234.798 62.0245 234.695 60.7331C234.483 58.0672 233.354 55.3623 231.25 53.6362C230.162 52.73 228.876 52.0937 227.497 51.779C226.117 51.4643 224.683 51.4802 223.311 51.8254C221.805 52.1898 220.411 52.9178 219.251 53.9456C218.091 54.9734 217.199 56.2699 216.655 57.7219C216.233 58.8431 217.123 60.2767 218.25 60.5337C219.549 60.8298 220.607 60.1376 221.058 58.9372V58.9372Z" fill="#D0CDE1"/>
<path d="M229.036 86.1701C229.411 86.1701 229.778 86.0587 230.09 85.8499C230.402 85.6411 230.646 85.3444 230.789 84.9972C230.933 84.65 230.97 84.268 230.897 83.8994C230.824 83.5309 230.643 83.1923 230.378 82.9266C230.112 82.6609 229.774 82.4799 229.406 82.4066C229.038 82.3333 228.656 82.3709 228.309 82.5147C227.963 82.6586 227.666 82.9021 227.458 83.2145C227.249 83.527 227.138 83.8943 227.138 84.2701C227.143 84.7723 227.345 85.2523 227.7 85.6075C228.054 85.9626 228.534 86.1645 229.036 86.1701Z" fill="#D0CDE1"/>
<path d="M23.242 152.63H12.5865V163.297H23.242V152.63Z" fill="#F9A826"/>
<path d="M29.7114 157.202H16.7726V144.249H29.7114V157.202ZM17.3351 156.638H29.1488V144.812H17.3351V156.638Z" fill="#3F3D56"/>
<path d="M260.488 95.0498L258.966 99.6213C258.966 99.6213 249.452 110.669 256.302 112.193C263.152 113.717 263.913 100.383 263.913 100.383L265.816 96.5736L260.488 95.0498Z" fill="#FFB8B8"/>
<path d="M271.144 39.8104C271.144 39.8104 268.86 39.4294 268.099 48.5724C267.338 57.7155 266.958 73.7158 266.958 73.7158L258.205 96.1924L269.241 99.6211L274.569 74.0968L271.144 39.8104Z" fill="#575A89"/>
<path d="M266.197 175.813L265.055 183.051H275.33L274.949 175.813H266.197Z" fill="#FFB8B8"/>
<path d="M299.305 183.813L298.543 193.718L305.393 194.48V183.051L299.305 183.813Z" fill="#FFB8B8"/>
<path d="M270.383 81.3352L261.63 131.622L263.913 177.337H275.71V135.813L287.127 114.479L296.26 141.146L298.544 185.718L311.482 183.433L308.438 140.003C308.438 140.003 306.155 82.0971 303.871 81.3352C301.588 80.5733 270.383 81.3352 270.383 81.3352Z" fill="#2F2E41"/>
<path d="M267.338 180.765C267.338 180.765 267.338 176.956 264.294 179.242C261.249 181.527 257.444 185.718 257.444 185.718C257.444 185.718 242.983 193.718 253.258 194.861C263.533 196.004 270.002 189.527 270.002 189.527L271.144 190.67C271.144 190.67 277.233 189.527 277.233 188.004C277.189 186.727 277.061 185.454 276.852 184.194C276.852 184.194 276.052 177.732 275.12 179.058C274.188 180.384 268.86 183.051 267.338 180.765Z" fill="#2F2E41"/>
<path d="M305.774 191.432C305.774 191.432 298.924 188.004 297.402 191.051C295.88 194.099 294.738 200.194 294.738 200.194C294.738 200.194 289.791 209.718 298.543 208.957C307.296 208.195 306.916 203.242 306.916 202.099C306.916 200.956 306.535 198.29 306.916 197.147C307.296 196.004 305.774 191.432 305.774 191.432Z" fill="#2F2E41"/>
<path d="M290.742 24.7625C296.627 24.7625 301.398 19.9867 301.398 14.0956C301.398 8.20444 296.627 3.42871 290.742 3.42871C284.857 3.42871 280.087 8.20444 280.087 14.0956C280.087 19.9867 284.857 24.7625 290.742 24.7625Z" fill="#FFB8B8"/>
<path d="M283.702 19.2383L283.321 32.9528L297.021 31.81V19.2383H283.702Z" fill="#FFB8B8"/>
<path d="M297.782 24.9526C297.782 24.9526 291.313 29.1432 289.41 29.9051C287.508 30.667 283.321 26.8574 283.321 26.8574C283.321 26.8574 282.18 27.6194 282.18 28.3813C282.18 29.1432 281.419 32.1909 281.419 32.1909L272.285 62.2867L273.047 83.6205C273.047 83.6205 300.827 86.2872 303.871 82.8586C306.916 79.4299 302.349 30.2861 302.349 30.2861L297.782 24.9526Z" fill="#D0CDE1"/>
<path opacity="0.1" d="M295.88 32.9531C295.88 32.9531 285.605 36.7627 282.18 33.3341C282.18 33.3341 287.127 34.477 295.88 32.9531Z" fill="black"/>
<path d="M322.899 115.621C318.713 118.288 305.013 121.717 305.013 121.717C305.013 121.717 303.517 89.4686 298.163 84.3827C292.839 79.3198 284.147 42.82 291.964 36.4732C291.999 36.4405 292.036 36.41 292.074 36.3818L297.021 24.9529C297.021 24.9529 297.782 23.8101 299.305 25.3339C300.536 26.6548 301.68 28.0546 302.73 29.5245L302.947 29.6121L313.385 33.715L309.199 52.3821C309.199 52.3821 327.085 112.955 322.899 115.621Z" fill="#575A89"/>
<path opacity="0.1" d="M302.947 29.6121L300.066 40.1914L291.964 36.4732C291.999 36.4405 292.036 36.41 292.074 36.3818L297.021 24.9529C297.021 24.9529 297.782 23.8101 299.305 25.3339C300.536 26.6548 301.68 28.0546 302.73 29.5245L302.947 29.6121Z" fill="black"/>
<path d="M283.131 26.667L281.989 39.6196L281.929 40.2101L273.237 123.05C273.237 123.05 265.626 120.383 262.962 117.336C260.298 114.288 269.051 80.3824 269.051 80.3824L269.812 37.7148C269.812 37.7148 276.563 32.9566 279.322 30.3432C279.969 29.7337 280.395 29.2423 280.467 28.9528C280.848 27.4289 283.131 26.667 283.131 26.667Z" fill="#575A89"/>
<path opacity="0.1" d="M283.131 26.667L281.989 39.6196L281.929 40.2101L276.471 39.4292L279.322 30.3432C279.969 29.7337 280.395 29.2423 280.467 28.9528C280.848 27.4289 283.131 26.667 283.131 26.667Z" fill="black"/>
<path d="M303.491 90.8594L299.305 94.669C299.305 94.669 301.207 102.669 303.491 103.05C303.491 103.05 305.013 100.764 305.393 98.8595C305.774 96.9547 309.199 95.0499 309.199 95.0499L303.491 90.8594Z" fill="#FFB8B8"/>
<path d="M308.438 32.9531L313.385 33.715C313.385 33.715 329.749 61.5251 327.846 71.4301C325.943 81.3351 310.721 98.4783 310.721 98.4783L301.207 90.8591L315.288 71.8111L308.057 48.9535L308.438 32.9531Z" fill="#575A89"/>
<path d="M280.063 15.2935C280.063 15.2935 280.063 5.88644 282.346 3.74848H285.086C285.086 3.74848 288.283 -0.955056 292.394 0.75532C296.504 2.4657 303.355 5.45886 302.898 10.1624C302.441 14.8659 301.017 17.905 301.017 17.905C301.017 17.905 300.256 17.905 298.559 15.348C296.293 11.9312 301.528 12.9963 294.677 11.7135C287.827 10.4307 283.716 8.72034 282.803 10.4307C281.89 12.1411 280.063 15.2935 280.063 15.2935Z" fill="#2F2E41"/>
<path d="M285.041 4.38713C285.041 4.38713 285.406 1.63787 286.909 1.0459L285.041 4.38713Z" fill="#2F2E41"/>
<path d="M285.035 4.95235C285.035 4.95235 284.272 2.28597 285.414 1.14258L285.035 4.95235Z" fill="#2F2E41"/>
</g>
<defs>
<clipPath id="clip0_18_260">
<rect width="328" height="209" fill="white"/>
</clipPath>
</defs>
</svg>
