<svg width="16" height="19" viewBox="0 0 16 19" fill="none" xmlns="http://www.w3.org/2000/svg">
<path d="M12.3423 9.09972C12.9648 8.78657 13.4355 8.43779 13.758 8.06088C14.3318 7.38208 14.615 6.482 14.615 5.36629C14.615 4.28057 14.3318 3.35237 13.7655 2.57418C12.8204 1.30658 11.2209 0.657776 8.95949 0.624023H0V18.9124H8.35381C9.29514 18.9124 10.1671 18.8318 10.9734 18.6668C11.7797 18.4999 12.4773 18.1942 13.0679 17.7479C13.593 17.3598 14.0318 16.8779 14.3806 16.3097C14.9319 15.4509 15.2075 14.4777 15.2075 13.3938C15.2075 12.3437 14.9656 11.4493 14.4856 10.7142C13.9999 9.97917 13.2873 9.441 12.3423 9.09972ZM3.69593 3.80053H7.73126C8.61821 3.80053 9.34952 3.89617 9.92331 4.08556C10.5871 4.3612 10.919 4.92188 10.919 5.77695C10.919 6.54388 10.6659 7.08018 10.1652 7.38208C9.66079 7.68398 9.00636 7.83587 8.2038 7.83587H3.69593V3.80053ZM10.0771 15.4171C9.63079 15.6328 9.00261 15.7396 8.19817 15.7396H3.69593V10.8624H8.26005C9.05512 10.868 9.67392 10.973 10.1165 11.1699C10.904 11.5262 11.2959 12.1787 11.2959 13.1332C11.2959 14.2583 10.8909 15.0158 10.0771 15.4171Z" fill="#0243FF"/>
</svg>
