<svg width="14" height="15" viewBox="0 0 14 15" fill="none" xmlns="http://www.w3.org/2000/svg">
<path d="M13.8767 5.46122C13.7117 4.40175 13.3479 3.4698 12.7817 2.66536C12.161 1.75404 11.3734 1.08648 10.4152 0.664575C9.46076 0.240791 8.38629 0.0288989 7.18995 0.0307741C5.18166 0.0307741 3.55028 0.65895 2.2883 1.90593C1.03008 3.15665 0.400024 4.95492 0.400024 7.29886C0.400024 9.79844 1.09571 11.6042 2.49457 12.7124C3.88781 13.8225 5.49669 14.3757 7.32308 14.3757C9.53389 14.3757 11.2534 13.7175 12.4816 12.4049C13.2673 11.5761 13.7117 10.7604 13.8092 9.9597H10.1489C9.93705 10.3554 9.6914 10.6648 9.41013 10.8898C8.90009 11.3023 8.23628 11.5086 7.42247 11.5086C6.64803 11.5086 5.99173 11.3379 5.44418 10.9985C4.54036 10.4547 4.06782 9.50217 4.00782 8.14643H13.9967C14.0118 6.97821 13.9742 6.08001 13.8767 5.46122ZM4.09782 5.81187C4.22908 4.93242 4.54786 4.23486 5.05415 3.7192C5.56044 3.20541 6.27675 2.94664 7.1937 2.94476C8.03939 2.94476 8.74632 3.18665 9.322 3.67232C9.89017 4.16173 10.2108 4.87242 10.2764 5.81187H4.09782Z" fill="#0243FF"/>
</svg>
