<svg width="20" height="20" viewBox="0 0 20 20" fill="none" xmlns="http://www.w3.org/2000/svg">
<path d="M11.4497 8.37825C12.6463 9.09908 13.2447 9.4595 13.2447 10.0001C13.2447 10.5407 12.6463 10.9011 11.4497 11.6219L10.1036 12.4328C8.90699 13.1536 8.30873 13.514 7.86001 13.2437C7.41129 12.9733 7.41129 12.2526 7.41129 10.811V9.18917C7.41129 7.74759 7.41129 7.02679 7.86001 6.75649C8.30873 6.48619 8.90699 6.84659 10.1036 7.56739L11.4497 8.37825Z" fill="#6776FF"/>
<path fill-rule="evenodd" clip-rule="evenodd" d="M10 20C1.765 20 0 18.235 0 10C0 1.765 1.765 0 10 0C18.235 0 20 1.765 20 10C20 18.235 18.235 20 10 20ZM12.3932 12.9992C12.9177 12.6835 13.4613 12.3563 13.8591 12.0269C14.2997 11.6619 14.9113 11.0117 14.9113 10C14.9113 8.98825 14.2997 8.33808 13.8591 7.97312C13.4613 7.64368 12.9177 7.31652 12.3932 7.00084L10.8787 6.08847C10.3558 5.77327 9.8115 5.44506 9.33642 5.24928C8.82008 5.03647 7.91193 4.77944 7.00002 5.32876C6.11465 5.86209 5.89412 6.75913 5.81734 7.29873C5.74423 7.81251 5.74442 8.45683 5.74461 9.09275V10.9073C5.74442 11.5432 5.74423 12.1875 5.81734 12.7013C5.89412 13.2408 6.11465 14.1379 7.00002 14.6712C7.91193 15.2206 8.82008 14.9635 9.33642 14.7507C9.8115 14.5549 10.3558 14.2267 10.8787 13.9115L12.3932 12.9992Z" fill="#6776FF"/>
</svg>
