<svg width="16" height="16" viewBox="0 0 16 16" fill="none" xmlns="http://www.w3.org/2000/svg">
<path d="M15.963 5.82286C15.7176 5.05558 14.3673 4.88028 12.9376 4.69106C12.1539 4.58826 11.2635 4.47206 10.9948 4.27291C10.7241 4.07526 10.3467 3.26229 10.013 2.54368C9.40611 1.23708 8.83152 0.0044696 8.02799 0.00248312L8.01309 0C7.21651 0.0134087 6.63596 1.23112 6.01867 2.52382C5.67848 3.23845 5.29162 4.04844 5.02195 4.2446C4.74931 4.43878 3.85887 4.54804 3.07272 4.64339C1.64445 4.81721 0.292153 4.9801 0.0398703 5.7434C-0.212412 6.5067 0.77437 7.44482 1.82025 8.43607C2.39434 8.98136 3.04442 9.59915 3.14672 9.91699C3.24902 10.2348 3.0757 11.1168 2.92423 11.892C2.64712 13.3044 2.3854 14.6418 3.03299 15.1201C3.18794 15.2308 3.38261 15.2869 3.61255 15.282C4.27355 15.2715 5.22457 14.757 6.14382 14.2584C6.83263 13.882 7.61381 13.4574 7.96144 13.4534C8.29765 13.4534 9.08132 13.8899 9.77261 14.2748C10.7127 14.7968 11.6856 15.3371 12.3476 15.3262C12.5542 15.3232 12.7305 15.27 12.8745 15.1663C13.5261 14.6969 13.2777 13.36 13.016 11.9422C12.872 11.1655 12.7106 10.2815 12.8124 9.96367C12.9177 9.64732 13.5752 9.03747 14.1548 8.49616C15.2101 7.51434 16.2063 6.59014 15.963 5.82286Z" fill="#FED65B"/>
</svg>
