<svg width="50" height="50" xmlns="http://www.w3.org/2000/svg">
 <g id="Layer_1">
  <title>Layer 1</title>
  <defs stroke="null" transform="translate(264 98) translate(-70 0) translate(-70 0) scale(0.657895 1) translate(70 0)">
   <clipPath stroke="null" id="svg_3">
    <rect stroke="null" x="12" y="13" transform="translate(-2 -3)" fill="white" height="30" width="30"/>
   </clipPath>
   <clipPath stroke="null" id="svg_2">
    <rect stroke="null" x="80" y="10" transform="translate(264 98)" fill="white" height="30" width="30"/>
   </clipPath>
   <clipPath stroke="null" id="svg_1">
    <rect stroke="null" x="-60" y="10" transform="translate(264 98)" fill="white" height="30" width="30"/>
   </clipPath>
  </defs>
  <g id="svg_4">
   <circle stroke="null" fill="#351151" r="25" cy="25" cx="25"/>
   <g stroke="null" clip-path="url(#svg_3)">
    <path stroke="null" fill="#CC3F83" d="m35.306,14.1194l-0.584,-0.5538l-0.02,0.034c-2.717,-2.318 -6.1258,-3.5996 -9.7023,-3.5996c-1.9452,0 -3.8409,0.3786 -5.6468,1.1154l-0.0083,-0.0084l-0.405,0.1784c-4.4178,1.9554 -7.6407,5.9337 -8.6219,10.6409l-0.104,0.4993l0.0122,0.0058c-0.147,0.8509 -0.2259,1.7122 -0.2259,2.5689c0,4.4198 1.9233,8.5475 5.2868,11.4104l-0.0052,0.0128l0.3864,0.3074c2.6851,2.1383 5.9118,3.2685 9.3317,3.2685c1.8052,0 3.5964,-0.3331 5.3243,-0.9903l0.414,-0.1572l0,-0.0186c4.999,-2.0048 8.415,-6.4676 9.105,-11.8711l0.036,0.0128l0.065,-0.8304c0.026,-0.3479 0.057,-0.7413 0.057,-1.1436c-0.002,-4.149 -1.668,-8.013 -4.695,-10.8816zm3.41,10.8809c0,0.0764 -0.001,0.1528 -0.003,0.2285c-1.802,-0.541 -3.664,-0.8144 -5.55,-0.8144c-1.627,0 -3.2481,0.206 -4.8262,0.6135l-0.0032,-0.009l-0.0039,0.0013c-0.326,-0.8773 -0.6783,-1.7334 -1.0531,-2.5554l0.0058,-0.0026l-0.0051,-0.0103c3.1537,-1.546 5.7957,-3.8909 7.7057,-6.8391c2.413,2.5554 3.733,5.8592 3.733,9.3875zm-4.692,-10.293c-1.792,2.8448 -4.3029,5.1019 -7.3173,6.5798c-1.6704,-3.3493 -3.8158,-6.4271 -6.3918,-9.1693c1.5068,-0.5513 3.0778,-0.8343 4.6848,-0.8343c3.3371,0 6.5153,1.22 9.0243,3.4238zm-14.9676,-2.062c2.6286,2.7281 4.8087,5.8104 6.4913,9.1758c-2.153,0.8753 -4.4261,1.3188 -6.766,1.3188c-2.4611,0 -4.8445,-0.489 -7.092,-1.4536c0.9787,-3.941 3.6888,-7.2685 7.3667,-9.041zm-7.7729,12.355c0,-0.677 0.0526,-1.3573 0.1534,-2.0331c2.3334,0.9633 4.799,1.4555 7.3436,1.4555c2.5285,0 4.9825,-0.4896 7.3076,-1.4433c0.3562,0.7798 0.6899,1.589 1.0011,2.422c-4.9209,1.6275 -8.9563,5.1443 -11.246,9.7983c-2.9065,-2.6062 -4.5597,-6.2789 -4.5597,-10.1994zm5.5794,11.0311c2.1184,-4.4891 5.9606,-7.8846 10.664,-9.4299c1.2302,3.6644 1.8765,7.4803 1.9246,11.359c-1.4516,0.5012 -2.9476,0.7554 -4.4518,0.7554c-2.9604,0.0006 -5.763,-0.9261 -8.1368,-2.6845zm13.8541,1.426c-0.095,-3.8217 -0.7527,-7.5798 -1.9605,-11.1973c3.2395,-0.8157 6.6615,-0.7136 9.8405,0.2907c-0.538,4.8818 -3.492,8.9608 -7.88,10.9066z"/>
   </g>
  </g>
 </g>

</svg>