<svg width="50" height="50" xmlns="http://www.w3.org/2000/svg">
 <g id="Layer_1">
  <title>Layer 1</title>
  <defs stroke="null" transform="translate(264 98) translate(-70 0) translate(-70 0) scale(0.657895 1) translate(70 0)">
   <clipPath stroke="null" id="svg_3">
    <rect stroke="null" x="10" y="10" fill="white" height="30" width="30"/>
   </clipPath>
   <clipPath stroke="null" id="svg_2">
    <rect stroke="null" x="344" y="108" fill="white" height="30" width="30"/>
   </clipPath>
   <clipPath stroke="null" id="svg_1">
    <rect stroke="null" x="204" y="108" fill="white" height="30" width="30"/>
   </clipPath>
  </defs>
  <defs transform="translate(411 0) translate(0 228)">
   <clipPath id="svg_7">
    <rect x="80" y="238" transform="translate(411 0)" fill="white" height="30" width="30"/>
   </clipPath>
   <clipPath id="svg_6">
    <rect x="150" y="238" transform="translate(411 0)" fill="white" height="30" width="30"/>
   </clipPath>
   <clipPath id="svg_5">
    <rect x="12" y="11" transform="translate(-2 -1)" fill="white" height="30" width="30"/>
   </clipPath>
  </defs>
  <g id="svg_8">
   <circle fill="#091166" r="25" cy="25" cx="25"/>
   <g clip-path="url(#svg_5)">
    <path fill="#0243FF" d="m22.3423,24.0997c0.6225,-0.3131 1.0932,-0.6619 1.4157,-1.0388c0.5738,-0.6788 0.857,-1.5789 0.857,-2.6946c0,-1.0857 -0.2832,-2.0139 -0.8495,-2.7921c-0.9451,-1.2676 -2.5446,-1.9164 -4.806,-1.9502l-8.9595,0l0,18.2884l8.3538,0c0.9413,0 1.8133,-0.0806 2.6196,-0.2456c0.8063,-0.1669 1.5039,-0.4726 2.0945,-0.9189c0.5251,-0.3881 0.9639,-0.87 1.3127,-1.4382c0.5513,-0.8588 0.8269,-1.832 0.8269,-2.9159c0,-1.0501 -0.2419,-1.9445 -0.7219,-2.6796c-0.4857,-0.735 -1.1983,-1.2732 -2.1433,-1.6145zm-8.6464,-5.2992l4.0354,0c0.8869,0 1.6182,0.0957 2.192,0.2851c0.6638,0.2756 0.9957,0.8363 0.9957,1.6913c0,0.767 -0.2531,1.3033 -0.7538,1.6052c-0.5044,0.3019 -1.1588,0.4538 -1.9614,0.4538l-4.5079,0l0,-4.0354zm6.3812,11.6166c-0.4463,0.2157 -1.0745,0.3225 -1.8789,0.3225l-4.5023,0l0,-4.8772l4.5642,0c0.795,0.0056 1.4138,0.1106 1.8564,0.3075c0.7875,0.3563 1.1794,1.0088 1.1794,1.9633c0,1.1251 -0.405,1.8826 -1.2188,2.2839z"/>
    <path fill="#0243FF" d="m37.1166,16.4771l-7.945,0l0,2.2764l7.945,0l0,-2.2764z"/>
    <path fill="#0243FF" d="m39.8767,25.4612c-0.165,-1.0594 -0.5288,-1.9914 -1.095,-2.7958c-0.6207,-0.9114 -1.4083,-1.5789 -2.3665,-2.0008c-0.9544,-0.4238 -2.0289,-0.6357 -3.2253,-0.6338c-2.0082,0 -3.6396,0.6281 -4.9016,1.8751c-1.2582,1.2508 -1.8883,3.049 -1.8883,5.393c0,2.4995 0.6957,4.3053 2.0946,5.4135c1.3932,1.1101 3.0021,1.6633 4.8285,1.6633c2.2108,0 3.9303,-0.6582 5.1585,-1.9708c0.7857,-0.8288 1.2301,-1.6445 1.3276,-2.4452l-3.6603,0c-0.2119,0.3957 -0.4575,0.7051 -0.7388,0.9301c-0.51,0.4125 -1.1738,0.6188 -1.9876,0.6188c-0.7745,0 -1.4308,-0.1707 -1.9783,-0.5101c-0.9038,-0.5438 -1.3764,-1.4963 -1.4364,-2.8521l9.9889,0c0.0151,-1.1682 -0.0225,-2.0664 -0.12,-2.6852zm-9.7789,0.3507c0.1313,-0.8795 0.4501,-1.577 0.9564,-2.0927c0.5062,-0.5138 1.2226,-0.7726 2.1395,-0.7744c0.8457,0 1.5526,0.2419 2.1283,0.7275c0.5682,0.4894 0.8888,1.2001 0.9544,2.1396l-6.1786,0z"/>
   </g>
  </g>
 </g>

</svg>