<svg width="190" height="50" viewBox="0 0 190 50" fill="none" xmlns="http://www.w3.org/2000/svg">
<circle cx="25" cy="25" r="25" fill="#091166"/>
<circle cx="95" cy="25" r="25" fill="#351151"/>
<circle cx="165" cy="25" r="25" fill="#12134C"/>
<g clip-path="url(#clip0_24_1144)">
<path d="M105.306 14.1194L104.722 13.5656L104.702 13.5996C101.985 11.2816 98.5762 10 94.9997 10C93.0545 10 91.1588 10.3786 89.3529 11.1154L89.3446 11.107L88.9396 11.2854C84.5218 13.2408 81.2989 17.2191 80.3177 21.9263L80.2137 22.4256L80.2259 22.4314C80.0789 23.2823 80 24.1436 80 25.0003C80 29.4201 81.9233 33.5478 85.2868 36.4107L85.2816 36.4235L85.668 36.7309C88.3531 38.8692 91.5798 39.9994 94.9997 39.9994C96.8049 39.9994 98.5961 39.6663 100.324 39.0091L100.738 38.8519V38.8333C105.737 36.8285 109.153 32.3657 109.843 26.9622L109.879 26.975L109.944 26.1446C109.97 25.7967 110.001 25.4033 110.001 25.001C109.999 20.852 108.333 16.988 105.306 14.1194ZM108.716 25.0003C108.716 25.0767 108.715 25.1531 108.713 25.2288C106.911 24.6878 105.049 24.4144 103.163 24.4144C101.536 24.4144 99.9149 24.6204 98.3368 25.0279L98.3336 25.0189L98.3297 25.0202C98.0037 24.1429 97.6514 23.2868 97.2766 22.4648L97.2824 22.4622L97.2773 22.4519C100.431 20.9059 103.073 18.561 104.983 15.6128C107.396 18.1682 108.716 21.472 108.716 25.0003ZM104.024 14.7073C102.232 17.5521 99.7211 19.8092 96.7067 21.2871C95.0363 17.9378 92.8909 14.86 90.3149 12.1178C91.8217 11.5665 93.3927 11.2835 94.9997 11.2835C98.3368 11.2835 101.515 12.5035 104.024 14.7073ZM89.0564 12.6453C91.685 15.3734 93.8651 18.4557 95.5477 21.8211C93.3947 22.6964 91.1216 23.1399 88.7817 23.1399C86.3206 23.1399 83.9372 22.6509 81.6897 21.6863C82.6684 17.7453 85.3785 14.4178 89.0564 12.6453ZM81.2835 25.0003C81.2835 24.3233 81.3361 23.643 81.4369 22.9672C83.7703 23.9305 86.2359 24.4227 88.7805 24.4227C91.309 24.4227 93.763 23.9331 96.0881 22.9794C96.4443 23.7592 96.778 24.5684 97.0892 25.4014C92.1683 27.0289 88.1329 30.5457 85.8432 35.1997C82.9367 32.5935 81.2835 28.9208 81.2835 25.0003ZM86.8629 36.0314C88.9813 31.5423 92.8235 28.1468 97.5269 26.6015C98.7571 30.2659 99.4034 34.0818 99.4515 37.9605C97.9999 38.4617 96.5039 38.7159 94.9997 38.7159C92.0393 38.7165 89.2367 37.7898 86.8629 36.0314ZM100.717 37.4574C100.622 33.6357 99.9643 29.8776 98.7565 26.2601C101.996 25.4444 105.418 25.5465 108.597 26.5508C108.059 31.4326 105.105 35.5116 100.717 37.4574Z" fill="#CC3F83"/>
</g>
<g clip-path="url(#clip1_24_1144)">
<path d="M169.996 14.9812H172.735V10.2113C172.263 10.1462 170.638 10 168.745 10C164.796 10 162.091 12.4837 162.091 17.0487V21.25H157.734V26.5825H162.091V40H167.434V26.5837H171.615L172.279 21.2513H167.433V17.5775C167.434 16.0362 167.849 14.9812 169.996 14.9812Z" fill="#3D5A9C"/>
</g>
<g clip-path="url(#clip2_24_1144)">
<path d="M22.3423 24.0997C22.9648 23.7866 23.4355 23.4378 23.758 23.0609C24.3318 22.3821 24.615 21.482 24.615 20.3663C24.615 19.2806 24.3318 18.3524 23.7655 17.5742C22.8204 16.3066 21.2209 15.6578 18.9595 15.624H10V33.9124H18.3538C19.2951 33.9124 20.1671 33.8318 20.9734 33.6668C21.7797 33.4999 22.4773 33.1942 23.0679 32.7479C23.593 32.3598 24.0318 31.8779 24.3806 31.3097C24.9319 30.4509 25.2075 29.4777 25.2075 28.3938C25.2075 27.3437 24.9656 26.4493 24.4856 25.7142C23.9999 24.9792 23.2873 24.441 22.3423 24.0997ZM13.6959 18.8005H17.7313C18.6182 18.8005 19.3495 18.8962 19.9233 19.0856C20.5871 19.3612 20.919 19.9219 20.919 20.7769C20.919 21.5439 20.6659 22.0802 20.1652 22.3821C19.6608 22.684 19.0064 22.8359 18.2038 22.8359H13.6959V18.8005ZM20.0771 30.4171C19.6308 30.6328 19.0026 30.7396 18.1982 30.7396H13.6959V25.8624H18.2601C19.0551 25.868 19.6739 25.973 20.1165 26.1699C20.904 26.5262 21.2959 27.1787 21.2959 28.1332C21.2959 29.2583 20.8909 30.0158 20.0771 30.4171Z" fill="#0243FF"/>
<path d="M37.1166 16.4771H29.1716V18.7535H37.1166V16.4771Z" fill="#0243FF"/>
<path d="M39.8767 25.4612C39.7117 24.4018 39.3479 23.4698 38.7817 22.6654C38.161 21.754 37.3734 21.0865 36.4152 20.6646C35.4608 20.2408 34.3863 20.0289 33.1899 20.0308C31.1817 20.0308 29.5503 20.6589 28.2883 21.9059C27.0301 23.1567 26.4 24.9549 26.4 27.2989C26.4 29.7984 27.0957 31.6042 28.4946 32.7124C29.8878 33.8225 31.4967 34.3757 33.3231 34.3757C35.5339 34.3757 37.2534 33.7175 38.4816 32.4049C39.2673 31.5761 39.7117 30.7604 39.8092 29.9597H36.1489C35.937 30.3554 35.6914 30.6648 35.4101 30.8898C34.9001 31.3023 34.2363 31.5086 33.4225 31.5086C32.648 31.5086 31.9917 31.3379 31.4442 30.9985C30.5404 30.4547 30.0678 29.5022 30.0078 28.1464H39.9967C40.0118 26.9782 39.9742 26.08 39.8767 25.4612ZM30.0978 25.8119C30.2291 24.9324 30.5479 24.2349 31.0542 23.7192C31.5604 23.2054 32.2768 22.9466 33.1937 22.9448C34.0394 22.9448 34.7463 23.1867 35.322 23.6723C35.8902 24.1617 36.2108 24.8724 36.2764 25.8119H30.0978Z" fill="#0243FF"/>
</g>
<defs>
<clipPath id="clip0_24_1144">
<rect width="30" height="30" fill="white" transform="translate(80 10)"/>
</clipPath>
<clipPath id="clip1_24_1144">
<rect width="30" height="30" fill="white" transform="translate(150 10)"/>
</clipPath>
<clipPath id="clip2_24_1144">
<rect width="30" height="30" fill="white" transform="translate(10 10)"/>
</clipPath>
</defs>
</svg>
