<svg width="30" height="30" viewBox="0 0 30 30" fill="none" xmlns="http://www.w3.org/2000/svg">
<path d="M25.3062 4.11941L24.7216 3.56558L24.7017 3.59959C21.9845 1.28158 18.5762 0 14.9997 0C13.0545 0 11.1588 0.378634 9.3529 1.11537L9.34456 1.10702L8.93961 1.28543C4.52179 3.24085 1.29891 7.21907 0.317667 11.9263L0.213704 12.4256L0.225897 12.4314C0.0789356 13.2823 0 14.1436 0 15.0003C0 19.4201 1.92333 23.5478 5.28676 26.4107L5.28162 26.4235L5.66796 26.7309C8.35305 28.8692 11.5798 29.9994 14.9997 29.9994C16.8049 29.9994 18.5961 29.6663 20.3243 29.0091L20.7382 28.8519V28.8333C25.7375 26.8285 29.1529 22.3657 29.8434 16.9622L29.8794 16.975L29.9435 16.1446C29.9698 15.7967 30.0006 15.4033 30.0006 15.001C29.9994 10.852 28.3327 6.98804 25.3062 4.11941ZM28.7159 15.0003C28.7159 15.0767 28.7146 15.1531 28.7126 15.2288C26.9112 14.6878 25.0489 14.4144 23.1634 14.4144C21.5359 14.4144 19.9149 14.6204 18.3368 15.0279L18.3336 15.0189L18.3297 15.0202C18.0037 14.1429 17.6514 13.2868 17.2766 12.4648L17.2824 12.4622L17.2773 12.4519C20.4308 10.9059 23.0729 8.56098 24.9834 5.61277C27.3964 8.16822 28.7159 11.472 28.7159 15.0003ZM24.024 4.70725C22.2322 7.55214 19.7211 9.80918 16.7067 11.2871C15.0363 7.93783 12.8909 4.85999 10.3149 2.11778C11.8217 1.56652 13.3927 1.2835 14.9997 1.2835C18.3368 1.2835 21.5154 2.50348 24.024 4.70725ZM9.05641 2.6453C11.685 5.37339 13.8651 8.45573 15.5477 11.8211C13.3947 12.6964 11.1216 13.1399 8.78174 13.1399C6.32062 13.1399 3.93715 12.6509 1.68973 11.6863C2.66841 7.74531 5.37853 4.41782 9.05641 2.6453ZM1.2835 15.0003C1.2835 14.3233 1.33613 13.643 1.43688 12.9672C3.7703 13.9305 6.23591 14.4227 8.78046 14.4227C11.309 14.4227 13.763 13.9331 16.0881 12.9794C16.4443 13.7592 16.778 14.5684 17.0892 15.4014C12.1683 17.0289 8.13293 20.5457 5.84316 25.1997C2.93666 22.5935 1.2835 18.9208 1.2835 15.0003ZM6.8629 26.0314C8.98133 21.5423 12.8235 18.1468 17.5269 16.6015C18.7571 20.2659 19.4034 24.0818 19.4515 27.9605C17.9999 28.4617 16.5039 28.7159 14.9997 28.7159C12.0393 28.7165 9.23674 27.7898 6.8629 26.0314ZM20.7171 27.4574C20.6221 23.6357 19.9643 19.8776 18.7565 16.2601C21.9961 15.4444 25.4179 15.5465 28.5971 16.5508C28.0587 21.4326 25.1054 25.5116 20.7171 27.4574Z" fill="#CC3F83"/>
</svg>
